<?xml version="1.0" encoding="UTF-8" standalone="no"?>
<!-- Created with Inkscape (http://www.inkscape.org/) -->

<svg
   xmlns:dc="http://purl.org/dc/elements/1.1/"
   xmlns:cc="http://creativecommons.org/ns#"
   xmlns:rdf="http://www.w3.org/1999/02/22-rdf-syntax-ns#"
   xmlns:svg="http://www.w3.org/2000/svg"
   xmlns="http://www.w3.org/2000/svg"
   xmlns:sodipodi="http://sodipodi.sourceforge.net/DTD/sodipodi-0.dtd"
   xmlns:inkscape="http://www.inkscape.org/namespaces/inkscape"
   width="744.09448819"
   height="1052.3622047"
   id="svg5488"
   version="1.1"
   inkscape:version="0.48.4 r9939"
   inkscape:export-filename="C:\Users\Rui\Desktop\TrabalhosGit\Flybeat\flybeat\reports\Meta 3\Packaging\cell.png"
   inkscape:export-xdpi="90"
   inkscape:export-ydpi="90"
   sodipodi:docname="New document 3">
  <defs
     id="defs5490">
    <inkscape:path-effect
       effect="skeletal"
       id="path-effect6455"
       is_visible="true"
       pattern="m 7.1428571,10.714286 c 0,-2.7600003 2.24,-5.0000003 4.9999999,-5.0000003 2.76,0 5,2.24 5,5.0000003 0,2.76 -2.24,5 -5,5 -2.7599999,0 -4.9999999,-2.24 -4.9999999,-5 z"
       copytype="single_stretched"
       prop_scale="1"
       scale_y_rel="false"
       spacing="0"
       normal_offset="0"
       tang_offset="0"
       prop_units="false"
       vertical_pattern="false"
       fuse_tolerance="0" />
    <inkscape:path-effect
       effect="skeletal"
       id="path-effect6234"
       is_visible="true"
       pattern="M 0,5 C 0,2.24 2.24,0 5,0 7.76,0 10,2.24 10,5 10,7.76 7.76,10 5,10 2.24,10 0,7.76 0,5 z"
       copytype="single_stretched"
       prop_scale="1"
       scale_y_rel="false"
       spacing="0"
       normal_offset="0"
       tang_offset="0"
       prop_units="false"
       vertical_pattern="false"
       fuse_tolerance="0" />
    <inkscape:path-effect
       effect="skeletal"
       id="path-effect5722"
       is_visible="true"
       pattern="M 0,5 C 0,2.24 2.24,0 5,0 7.76,0 10,2.24 10,5 10,7.76 7.76,10 5,10 2.24,10 0,7.76 0,5 z"
       copytype="single_stretched"
       prop_scale="1"
       scale_y_rel="false"
       spacing="0"
       normal_offset="0"
       tang_offset="0"
       prop_units="false"
       vertical_pattern="false"
       fuse_tolerance="0" />
    <inkscape:path-effect
       effect="skeletal"
       id="path-effect5718"
       is_visible="true"
       pattern="M 0,5 C 0,2.24 2.24,0 5,0 7.76,0 10,2.24 10,5 10,7.76 7.76,10 5,10 2.24,10 0,7.76 0,5 z"
       copytype="single_stretched"
       prop_scale="1"
       scale_y_rel="false"
       spacing="0"
       normal_offset="0"
       tang_offset="0"
       prop_units="false"
       vertical_pattern="false"
       fuse_tolerance="0" />
    <inkscape:path-effect
       effect="skeletal"
       id="path-effect5714"
       is_visible="true"
       pattern="m -30.714286,-91.680272 c 0,-2.76 2.24,-5 5,-5 2.76,0 5,2.24 5,5 0,2.76 -2.24,5 -5,5 -2.76,0 -5,-2.24 -5,-5 z"
       copytype="single_stretched"
       prop_scale="1"
       scale_y_rel="false"
       spacing="0"
       normal_offset="0"
       tang_offset="0"
       prop_units="false"
       vertical_pattern="false"
       fuse_tolerance="0" />
    <inkscape:path-effect
       effect="skeletal"
       id="path-effect5710"
       is_visible="true"
       pattern="m -21.428571,-89.537422 c 0,-2.76 2.24,-5 5,-5 2.76,0 5,2.24 5,5 0,2.76 -2.24,5 -5,5 -2.76,0 -5,-2.24 -5,-5 z"
       copytype="single_stretched"
       prop_scale="1"
       scale_y_rel="false"
       spacing="0"
       normal_offset="0"
       tang_offset="0"
       prop_units="false"
       vertical_pattern="false"
       fuse_tolerance="0" />
    <inkscape:path-effect
       effect="skeletal"
       id="path-effect5706"
       is_visible="true"
       pattern="m -12.142857,-88.108842 c 0,-2.76 2.2399995,-5 4.9999994,-5 2.76,0 5,2.24 5,5 0,2.76 -2.24,5 -5,5 -2.7599999,0 -4.9999994,-2.24 -4.9999994,-5 z"
       copytype="single_stretched"
       prop_scale="1"
       scale_y_rel="false"
       spacing="0"
       normal_offset="0"
       tang_offset="0"
       prop_units="false"
       vertical_pattern="false"
       fuse_tolerance="0" />
    <inkscape:path-effect
       effect="skeletal"
       id="path-effect5702"
       is_visible="true"
       pattern="m 0,-261.68027 c 0,-2.76 2.24,-5 5,-5 2.76,0 5,2.24 5,5 0,2.76 -2.24,5 -5,5 -2.76,0 -5,-2.24 -5,-5 z"
       copytype="single_stretched"
       prop_scale="1"
       scale_y_rel="false"
       spacing="0"
       normal_offset="0"
       tang_offset="0"
       prop_units="false"
       vertical_pattern="false"
       fuse_tolerance="0" />
    <inkscape:path-effect
       effect="skeletal"
       id="path-effect5698"
       is_visible="true"
       pattern="m 0,-261.68027 c 0,-2.76 2.24,-5 5,-5 2.76,0 5,2.24 5,5 0,2.76 -2.24,5 -5,5 -2.76,0 -5,-2.24 -5,-5 z"
       copytype="single_stretched"
       prop_scale="1"
       scale_y_rel="false"
       spacing="0"
       normal_offset="0"
       tang_offset="0"
       prop_units="false"
       vertical_pattern="false"
       fuse_tolerance="0" />
    <inkscape:path-effect
       effect="skeletal"
       id="path-effect5694"
       is_visible="true"
       pattern="M 0,5 C 0,2.24 2.24,0 5,0 7.76,0 10,2.24 10,5 10,7.76 7.76,10 5,10 2.24,10 0,7.76 0,5 z"
       copytype="single_stretched"
       prop_scale="1"
       scale_y_rel="false"
       spacing="0"
       normal_offset="0"
       tang_offset="0"
       prop_units="false"
       vertical_pattern="false"
       fuse_tolerance="0" />
    <inkscape:path-effect
       effect="skeletal"
       id="path-effect5615"
       is_visible="true"
       pattern="m -205.71429,-143.10884 c 0,-2.76 2.24,-5 5,-5 2.76,0 5,2.24 5,5 0,2.76 -2.24,5 -5,5 -2.76,0 -5,-2.24 -5,-5 z"
       copytype="single_stretched"
       prop_scale="1"
       scale_y_rel="false"
       spacing="0"
       normal_offset="0"
       tang_offset="0"
       prop_units="false"
       vertical_pattern="false"
       fuse_tolerance="0" />
    <inkscape:path-effect
       effect="skeletal"
       id="path-effect5611"
       is_visible="true"
       pattern="m -205.71429,-143.10884 c 0,-2.76 2.24,-5 5,-5 2.76,0 5,2.24 5,5 0,2.76 -2.24,5 -5,5 -2.76,0 -5,-2.24 -5,-5 z"
       copytype="single_stretched"
       prop_scale="1"
       scale_y_rel="false"
       spacing="0"
       normal_offset="0"
       tang_offset="0"
       prop_units="false"
       vertical_pattern="false"
       fuse_tolerance="0" />
    <inkscape:path-effect
       effect="skeletal"
       id="path-effect5603"
       is_visible="true"
       pattern="m -205.71429,-143.10884 c 0,-2.76 2.24,-5 5,-5 2.76,0 5,2.24 5,5 0,2.76 -2.24,5 -5,5 -2.76,0 -5,-2.24 -5,-5 z"
       copytype="single_stretched"
       prop_scale="1"
       scale_y_rel="false"
       spacing="0"
       normal_offset="0"
       tang_offset="0"
       prop_units="false"
       vertical_pattern="false"
       fuse_tolerance="0" />
    <inkscape:path-effect
       effect="skeletal"
       id="path-effect5558"
       is_visible="true"
       pattern="M 0,5 C 0,2.24 2.24,0 5,0 7.76,0 10,2.24 10,5 10,7.76 7.76,10 5,10 2.24,10 0,7.76 0,5 z"
       copytype="single_stretched"
       prop_scale="1"
       scale_y_rel="false"
       spacing="0"
       normal_offset="0"
       tang_offset="0"
       prop_units="false"
       vertical_pattern="false"
       fuse_tolerance="0" />
    <inkscape:path-effect
       effect="skeletal"
       id="path-effect5546"
       is_visible="true"
       pattern="M 0,5 C 0,2.24 2.24,0 5,0 7.76,0 10,2.24 10,5 10,7.76 7.76,10 5,10 2.24,10 0,7.76 0,5 z"
       copytype="single_stretched"
       prop_scale="1"
       scale_y_rel="false"
       spacing="0"
       normal_offset="0"
       tang_offset="0"
       prop_units="false"
       vertical_pattern="false"
       fuse_tolerance="0" />
    <inkscape:path-effect
       effect="skeletal"
       id="path-effect5542"
       is_visible="true"
       pattern="M 0,5 C 0,2.24 2.24,0 5,0 7.76,0 10,2.24 10,5 10,7.76 7.76,10 5,10 2.24,10 0,7.76 0,5 z"
       copytype="single_stretched"
       prop_scale="1"
       scale_y_rel="false"
       spacing="0"
       normal_offset="0"
       tang_offset="0"
       prop_units="false"
       vertical_pattern="false"
       fuse_tolerance="0" />
    <inkscape:path-effect
       effect="skeletal"
       id="path-effect5538"
       is_visible="true"
       pattern="M 0,5 C 0,2.24 2.24,0 5,0 7.76,0 10,2.24 10,5 10,7.76 7.76,10 5,10 2.24,10 0,7.76 0,5 z"
       copytype="single_stretched"
       prop_scale="1"
       scale_y_rel="false"
       spacing="0"
       normal_offset="0"
       tang_offset="0"
       prop_units="false"
       vertical_pattern="false"
       fuse_tolerance="0" />
    <inkscape:path-effect
       effect="skeletal"
       id="path-effect5615-5"
       is_visible="true"
       pattern="m -58.251876,-20.997947 c 0,-2.76 2.24,-5 5,-5 2.76,0 5,2.24 5,5 0,2.76 -2.24,5 -5,5 -2.76,0 -5,-2.24 -5,-5 z"
       copytype="single_stretched"
       prop_scale="1"
       scale_y_rel="false"
       spacing="0"
       normal_offset="0"
       tang_offset="0"
       prop_units="false"
       vertical_pattern="false"
       fuse_tolerance="0" />
    <inkscape:path-effect
       effect="skeletal"
       id="path-effect5611-1"
       is_visible="true"
       pattern="m -58.251876,-20.997947 c 0,-2.76 2.24,-5 5,-5 2.76,0 5,2.24 5,5 0,2.76 -2.24,5 -5,5 -2.76,0 -5,-2.24 -5,-5 z"
       copytype="single_stretched"
       prop_scale="1"
       scale_y_rel="false"
       spacing="0"
       normal_offset="0"
       tang_offset="0"
       prop_units="false"
       vertical_pattern="false"
       fuse_tolerance="0" />
    <inkscape:path-effect
       effect="skeletal"
       id="path-effect5603-1"
       is_visible="true"
       pattern="m -5.3947331,-313.3925 c 0,-2.76 2.24,-5 4.99999999,-5 2.76000001,0 5.00000001,2.24 5.00000001,5 0,2.76 -2.24,5 -5.00000001,5 -2.75999999,0 -4.99999999,-2.24 -4.99999999,-5 z"
       copytype="single_stretched"
       prop_scale="1"
       scale_y_rel="false"
       spacing="0"
       normal_offset="0"
       tang_offset="0"
       prop_units="false"
       vertical_pattern="false"
       fuse_tolerance="0" />
    <inkscape:path-effect
       effect="skeletal"
       id="path-effect5615-3"
       is_visible="true"
       pattern="m -8.2518759,121.8592 c 0,-2.76 2.24,-5 5,-5 2.76000003,0 5,2.24 5,5 0,2.76 -2.23999997,5 -5,5 -2.76,0 -5,-2.24 -5,-5 z"
       copytype="single_stretched"
       prop_scale="1"
       scale_y_rel="false"
       spacing="0"
       normal_offset="0"
       tang_offset="0"
       prop_units="false"
       vertical_pattern="false"
       fuse_tolerance="0" />
    <inkscape:path-effect
       effect="skeletal"
       id="path-effect5611-9"
       is_visible="true"
       pattern="m -8.2518759,121.8592 c 0,-2.76 2.24,-5 5,-5 2.76000003,0 5,2.24 5,5 0,2.76 -2.23999997,5 -5,5 -2.76,0 -5,-2.24 -5,-5 z"
       copytype="single_stretched"
       prop_scale="1"
       scale_y_rel="false"
       spacing="0"
       normal_offset="0"
       tang_offset="0"
       prop_units="false"
       vertical_pattern="false"
       fuse_tolerance="0" />
    <inkscape:path-effect
       effect="skeletal"
       id="path-effect5603-7"
       is_visible="true"
       pattern="m -8.2518759,-144.82107 c 0,-2.76 2.24,-5 5,-5 2.76000003,0 5,2.24 5,5 0,2.76 -2.23999997,5 -5,5 -2.76,0 -5,-2.24 -5,-5 z"
       copytype="single_stretched"
       prop_scale="1"
       scale_y_rel="false"
       spacing="0"
       normal_offset="0"
       tang_offset="0"
       prop_units="false"
       vertical_pattern="false"
       fuse_tolerance="0" />
    <inkscape:path-effect
       effect="skeletal"
       id="path-effect5615-4"
       is_visible="true"
       pattern="m 184.60527,116.14491 c 0,-2.76 2.24,-5 5,-5 2.76,0 5,2.24 5,5 0,2.76 -2.24,5 -5,5 -2.76,0 -5,-2.24 -5,-5 z"
       copytype="single_stretched"
       prop_scale="1"
       scale_y_rel="false"
       spacing="0"
       normal_offset="0"
       tang_offset="0"
       prop_units="false"
       vertical_pattern="false"
       fuse_tolerance="0" />
    <inkscape:path-effect
       effect="skeletal"
       id="path-effect5611-8"
       is_visible="true"
       pattern="m 184.60527,116.14491 c 0,-2.76 2.24,-5 5,-5 2.76,0 5,2.24 5,5 0,2.76 -2.24,5 -5,5 -2.76,0 -5,-2.24 -5,-5 z"
       copytype="single_stretched"
       prop_scale="1"
       scale_y_rel="false"
       spacing="0"
       normal_offset="0"
       tang_offset="0"
       prop_units="false"
       vertical_pattern="false"
       fuse_tolerance="0" />
    <inkscape:path-effect
       effect="skeletal"
       id="path-effect5603-4"
       is_visible="true"
       pattern="m 184.60527,-150.53536 c 0,-2.76 2.24,-5 5,-5 2.76,0 5,2.24 5,5 0,2.76 -2.24,5 -5,5 -2.76,0 -5,-2.24 -5,-5 z"
       copytype="single_stretched"
       prop_scale="1"
       scale_y_rel="false"
       spacing="0"
       normal_offset="0"
       tang_offset="0"
       prop_units="false"
       vertical_pattern="false"
       fuse_tolerance="0" />
  </defs>
  <sodipodi:namedview
     id="base"
     pagecolor="#000000"
     bordercolor="#666666"
     borderopacity="1.0"
     inkscape:pageopacity="0"
     inkscape:pageshadow="2"
     inkscape:zoom="0.24748737"
     inkscape:cx="201.11666"
     inkscape:cy="903.27014"
     inkscape:document-units="px"
     inkscape:current-layer="layer1"
     showgrid="false"
     inkscape:window-width="1920"
     inkscape:window-height="1003"
     inkscape:window-x="-9"
     inkscape:window-y="-9"
     inkscape:window-maximized="1" />
  <metadata
     id="metadata5493">
    <rdf:RDF>
      <cc:Work
         rdf:about="">
        <dc:format>image/svg+xml</dc:format>
        <dc:type
           rdf:resource="http://purl.org/dc/dcmitype/StillImage" />
        <dc:title></dc:title>
      </cc:Work>
    </rdf:RDF>
  </metadata>
  <g
     inkscape:label="Layer 1"
     inkscape:groupmode="layer"
     id="layer1">
    <path
       style="fill:#ffffff;fill-rule:evenodd;stroke:none"
       d="m 91.270564,382.00448 c -0.412311,0.0412 -1.08937,-2.69748 -1.969208,-7.93691 -0.879838,-5.23942 -1.974689,-12.9793 -3.145306,-22.94407 -1.170617,-9.96476 -2.430525,-22.15488 -3.361419,-36.29673 -0.930893,-14.14185 -1.540548,-30.23648 -0.966771,-48.0006 22.96087,-4.19384 49.04472,-7.47445 77.308,-8.94129 28.26328,-1.46683 58.7011,-1.11132 90.08124,1.59538 2.48621,0.21444 4.96339,0.44215 7.43094,0.68275 0.98901,10.23411 1.21831,20.29397 1.06406,30.13047 -0.15425,9.83649 -0.69121,19.44963 -1.2868,28.79943 -1.4239,10.05813 -2.79993,19.85941 -3.78341,29.36655 -0.98348,9.50714 -1.57381,18.72022 -1.53146,27.60989 0,0 -1e-5,0 -2e-5,0 -14.78837,0.37905 -28.89163,1.45507 -42.15151,2.62173 -13.25989,1.16666 -25.67592,2.42436 -37.09069,3.43509 -12.0072,0.54147 -22.94763,0.96226 -32.62009,1.1722 -9.67245,0.20994 -18.07682,0.21553 -25.02872,0.0883 -6.9519,-0.12721 -12.45153,-0.37935 -16.330636,-0.63269 -3.879111,-0.25334 -6.138145,-0.50069 -6.620358,-0.68171 0.0022,-0.0676 0.0022,-0.0678 0.0022,-0.0678 0,0 5e-6,-1.7e-4 0.0022,-0.0678 0.4924,-0.15 2.756708,-0.23607 6.617136,-0.37255 3.860432,-0.13648 9.316872,-0.33074 16.201882,-0.74271 6.88502,-0.41197 15.19881,-1.04964 24.78133,-2.001 9.58253,-0.95137 20.43419,-2.22295 32.39753,-3.72033 10.84773,-0.88284 22.6083,-1.84024 35.19108,-2.54491 12.58278,-0.70467 25.98826,-1.15707 40.13659,-0.77801 0,0 10e-6,0 2e-5,0 -0.83375,-8.63234 -1.07997,-17.45545 -0.96434,-26.41606 0.11563,-8.96062 0.59254,-18.0586 1.10233,-27.24191 1.2069,-8.58622 2.40668,-17.29642 3.26516,-26.08847 0.85848,-8.79206 1.37485,-17.66586 1.16076,-26.58078 -2.31059,-0.23721 -4.62953,-0.46232 -6.95638,-0.67501 -29.36866,-2.68443 -57.77815,-3.15275 -84.32787,-1.90151 -26.54972,1.25124 -51.23693,4.21489 -73.306822,8.03518 -0.342479,16.60355 0.327114,31.83074 1.141629,45.34195 0.814515,13.51122 1.78176,25.30558 2.507228,35.0324 0.725467,9.72681 1.222827,17.38579 1.40406,22.62404 0.181234,5.23824 0.05883,8.05625 -0.353481,8.09748 z"
       id="path5601"
       inkscape:path-effect="#path-effect5603"
       inkscape:original-d="m 91.270564,382.00448 c -3.50249,-35.02485 -8.10555,-74.33499 -7.07107,-113.13709 55.773486,-9.92601 114.971296,-11.53435 169.705626,-6.06091 2.46829,39.28629 -6.98292,72.47363 -5.05076,111.11678 -50.38648,-1e-5 -103.17881,9.81259 -157.583796,8.08122 z"
       inkscape:connector-curvature="0"
       inkscape:export-filename="C:\Users\Rui\Desktop\TrabalhosGit\Flybeat\flybeat\reports\Meta 3\Packaging\Keyboard.png"
       inkscape:export-xdpi="90"
       inkscape:export-ydpi="90" />
    <path
       style="fill:#ffffff;fill-rule:evenodd;stroke:none"
       d="m 148.84925,348.66944 c -0.87566,-0.23044 -0.96271,-3.40725 -0.0155,-8.71205 0.47361,-2.6524 1.21166,-5.82753 2.17236,-9.40304 0.96069,-3.57552 2.1464,-7.54926 3.38583,-11.8256 1.86403,-4.59324 3.93688,-9.59226 5.92285,-14.88296 1.98597,-5.2907 3.88164,-10.87198 5.29305,-16.64147 0.0455,-0.18584 0.0903,-0.37148 0.13456,-0.55693 7.29474,10.16277 14.70365,19.35853 20.79969,27.10473 2.2729,3.66639 4.40168,7.02668 6.26319,10.0395 1.86151,3.01283 3.45607,5.67736 4.70062,7.9262 2.48911,4.49769 3.57186,7.32718 2.86111,7.86025 -0.71075,0.53307 -3.11908,-1.28137 -6.76636,-4.91204 -3.64728,-3.63067 -8.57331,-9.0558 -14.00112,-16.09655 -2.3844,-3.95586 -4.71798,-8.42255 -6.94298,-13.30822 -2.225,-4.88566 -4.34133,-10.19016 -6.35529,-15.78807 0.007,0.19452 0.014,0.3891 0.0202,0.58372 0.38324,12.08469 -1.42167,22.73627 -3.84262,31.44984 -1.69391,4.26276 -3.37846,8.0648 -4.89506,11.40411 -1.51661,3.3393 -2.86846,6.21634 -4.0193,8.57891 -2.30169,4.72514 -3.83958,7.41011 -4.71524,7.17967 z"
       id="path5609"
       inkscape:path-effect="#path-effect5611"
       inkscape:original-d="m 148.84925,348.66944 c 4.95063,-18.81239 14.88826,-37.12241 17.1726,-60.60915 12.08596,22.79844 21.92959,34.96366 34.34518,51.51778"
       inkscape:connector-curvature="0"
       inkscape:export-filename="C:\Users\Rui\Desktop\TrabalhosGit\Flybeat\flybeat\reports\Meta 3\Packaging\Keyboard.png"
       inkscape:export-xdpi="90"
       inkscape:export-ydpi="90" />
    <path
       style="fill:#ffffff;fill-rule:evenodd;stroke:none"
       d="m 155.92032,326.44609 c -0.0198,-1.37986 2.04341,-2.64199 5.33259,-3.69422 3.28918,-1.05222 7.81828,-1.92392 12.91444,-2.40055 5.09616,-0.47662 9.8121,-0.4323 13.28982,0.11188 3.47772,0.54419 5.70149,1.57928 5.8388,2.95243 0.13731,1.37315 -1.81942,2.8249 -5.09694,4.08155 -3.27752,1.25665 -7.89082,2.3286 -13.10451,2.81193 -5.21369,0.48333 -10.03608,0.24964 -13.52546,-0.49897 -3.48939,-0.7486 -5.62896,-1.98419 -5.64874,-3.36405 z"
       id="path5613"
       inkscape:path-effect="#path-effect5615"
       inkscape:original-d="m 155.92032,326.44609 c 13.16189,-0.18871 24.5516,-1.74806 37.37565,-3.03046"
       inkscape:connector-curvature="0"
       inkscape:export-filename="C:\Users\Rui\Desktop\TrabalhosGit\Flybeat\flybeat\reports\Meta 3\Packaging\Keyboard.png"
       inkscape:export-xdpi="90"
       inkscape:export-ydpi="90" />
    <path
       style="fill:#ffffff;fill-rule:evenodd;stroke:none"
       d="m 291.59012,211.72081 c -0.41231,0.0412 -1.08937,-2.69748 -1.96921,-7.93691 -0.87984,-5.23942 -1.97469,-12.9793 -3.1453,-22.94407 -1.17062,-9.96476 -2.43053,-22.15488 -3.36142,-36.29673 -0.9309,-14.14186 -1.54055,-30.23649 -0.96677,-48.000602 22.96086,-4.193841 49.04471,-7.474454 77.30799,-8.941289 28.26328,-1.466835 58.7011,-1.111318 90.08124,1.595375 2.48621,0.214448 4.96339,0.442149 7.43094,0.682756 0.98901,10.23411 1.21831,20.29397 1.06406,30.13047 -0.15425,9.83649 -0.69121,19.44963 -1.2868,28.79943 -1.4239,10.05812 -2.79993,19.85941 -3.78341,29.36655 -0.98348,9.50714 -1.57381,18.72022 -1.53146,27.60989 0,0 -10e-6,0 -2e-5,0 -14.78837,0.37905 -28.89163,1.45507 -42.15151,2.62173 -13.25989,1.16666 -25.67592,2.42436 -37.09069,3.43509 -12.0072,0.54147 -22.94763,0.96226 -32.62008,1.1722 -9.67245,0.20994 -18.07682,0.21553 -25.02873,0.0883 -6.9519,-0.12721 -12.45152,-0.37935 -16.33063,-0.63269 -3.87911,-0.25334 -6.13815,-0.50069 -6.62036,-0.68171 0.002,-0.0676 0.002,-0.0678 0.002,-0.0678 0,0 10e-6,-1.7e-4 0.002,-0.0678 0.4924,-0.15 2.75671,-0.23607 6.61713,-0.37255 3.86043,-0.13648 9.31688,-0.33074 16.20189,-0.74271 6.88501,-0.41197 15.19881,-1.04964 24.78133,-2.001 9.58252,-0.95137 20.43418,-2.22295 32.39752,-3.72033 10.84773,-0.88284 22.6083,-1.84024 35.19108,-2.54491 12.58278,-0.70467 25.98826,-1.15707 40.13659,-0.77801 0,0 10e-6,0 2e-5,0 -0.83375,-8.63234 -1.07997,-17.45545 -0.96434,-26.41606 0.11563,-8.96062 0.59254,-18.0586 1.10233,-27.24191 1.2069,-8.58622 2.40668,-17.29642 3.26516,-26.08847 0.85848,-8.79206 1.37485,-17.66586 1.16076,-26.580784 -2.31059,-0.237208 -4.62953,-0.462321 -6.95638,-0.675006 -29.36866,-2.684433 -57.77815,-3.152752 -84.32787,-1.901511 -26.54971,1.251241 -51.23693,4.214894 -73.30682,8.035181 -0.34248,16.60355 0.32712,31.83074 1.14163,45.34195 0.81452,13.51122 1.78176,25.30558 2.50723,35.0324 0.72547,9.72681 1.22283,17.38579 1.40406,22.62404 0.18123,5.23824 0.0588,8.05625 -0.35348,8.09748 z"
       id="path5601-1"
       inkscape:path-effect="#path-effect5603-1"
       inkscape:original-d="m 291.59012,211.72081 c -3.50249,-35.02485 -8.10555,-74.33499 -7.07107,-113.137092 55.77348,-9.92601 114.97129,-11.53435 169.70562,-6.06091 2.46829,39.286292 -6.98292,72.473632 -5.05076,111.116782 -50.38648,-1e-5 -103.17881,9.81259 -157.58379,8.08122 z"
       inkscape:connector-curvature="0"
       inkscape:export-filename="C:\Users\Rui\Desktop\TrabalhosGit\Flybeat\flybeat\reports\Meta 3\Packaging\Keyboard.png"
       inkscape:export-xdpi="90"
       inkscape:export-ydpi="90" />
    <path
       style="fill:#ffffff;fill-rule:evenodd;stroke:none"
       d="m 288.73298,380.29225 c -0.41231,0.0412 -1.08937,-2.69748 -1.96921,-7.93691 -0.87984,-5.23942 -1.97469,-12.9793 -3.1453,-22.94407 -1.17062,-9.96476 -2.43053,-22.15488 -3.36142,-36.29673 -0.9309,-14.14185 -1.54055,-30.23648 -0.96677,-48.0006 22.96086,-4.19384 49.04472,-7.47445 77.308,-8.94129 28.26328,-1.46683 58.7011,-1.11132 90.08124,1.59538 2.48621,0.21444 4.96339,0.44215 7.43094,0.68275 0.98901,10.23411 1.21831,20.29397 1.06406,30.13047 -0.15425,9.83649 -0.69121,19.44963 -1.2868,28.79943 -1.4239,10.05813 -2.79993,19.85941 -3.78341,29.36655 -0.98348,9.50714 -1.57381,18.72022 -1.53146,27.60989 0,0 -1e-5,0 -2e-5,0 -14.78837,0.37905 -28.89163,1.45507 -42.15152,2.62173 -13.25988,1.16666 -25.67592,2.42436 -37.09069,3.43509 -12.0072,0.54147 -22.94763,0.96226 -32.62008,1.1722 -9.67245,0.20994 -18.07682,0.21553 -25.02873,0.0883 -6.9519,-0.12721 -12.45152,-0.37935 -16.33063,-0.63269 -3.87911,-0.25334 -6.13815,-0.50069 -6.62036,-0.68171 0.002,-0.0676 0.002,-0.0678 0.002,-0.0678 0,0 10e-6,-1.7e-4 0.002,-0.0678 0.4924,-0.15 2.75671,-0.23607 6.61713,-0.37255 3.86043,-0.13648 9.31688,-0.33074 16.20189,-0.74271 6.88501,-0.41197 15.19881,-1.04964 24.78133,-2.001 9.58252,-0.95137 20.43418,-2.22295 32.39752,-3.72033 10.84773,-0.88284 22.6083,-1.84024 35.19109,-2.54491 12.58278,-0.70467 25.98826,-1.15707 40.13659,-0.77801 0,0 10e-6,0 2e-5,0 -0.83375,-8.63234 -1.07997,-17.45545 -0.96434,-26.41606 0.11563,-8.96062 0.59254,-18.0586 1.10233,-27.24191 1.2069,-8.58622 2.40668,-17.29642 3.26516,-26.08847 0.85848,-8.79206 1.37485,-17.66586 1.16076,-26.58078 -2.31059,-0.23721 -4.62953,-0.46232 -6.95638,-0.67501 -29.36867,-2.68443 -57.77815,-3.15275 -84.32787,-1.90151 -26.54972,1.25124 -51.23694,4.21489 -73.30683,8.03518 -0.34248,16.60355 0.32712,31.83074 1.14163,45.34195 0.81452,13.51122 1.78176,25.30558 2.50723,35.0324 0.72547,9.72681 1.22283,17.38579 1.40406,22.62404 0.18123,5.23824 0.0588,8.05625 -0.35348,8.09748 z"
       id="path5601-2"
       inkscape:path-effect="#path-effect5603-7"
       inkscape:original-d="m 288.73298,380.29225 c -3.50249,-35.02485 -8.10555,-74.33499 -7.07107,-113.13709 55.77348,-9.92601 114.9713,-11.53435 169.70563,-6.06091 2.46829,39.28629 -6.98292,72.47363 -5.05076,111.11678 -50.38648,-10e-6 -103.17882,9.81259 -157.5838,8.08122 z"
       inkscape:connector-curvature="0"
       inkscape:export-filename="C:\Users\Rui\Desktop\TrabalhosGit\Flybeat\flybeat\reports\Meta 3\Packaging\Keyboard.png"
       inkscape:export-xdpi="90"
       inkscape:export-ydpi="90" />
    <path
       style="fill:#ffffff;fill-rule:evenodd;stroke:none"
       d="m 481.59011,374.57796 c -0.41231,0.0412 -1.08937,-2.69748 -1.96921,-7.93691 -0.87984,-5.23942 -1.97469,-12.9793 -3.1453,-22.94406 -1.17062,-9.96476 -2.43053,-22.15488 -3.36142,-36.29673 -0.9309,-14.14186 -1.54055,-30.23649 -0.96677,-48.0006 22.96086,-4.19384 49.04471,-7.47445 77.308,-8.94129 28.26328,-1.46683 58.7011,-1.11132 90.08124,1.59538 2.48621,0.21444 4.96339,0.44215 7.43094,0.68275 0.98901,10.23411 1.21831,20.29397 1.06406,30.13047 -0.15425,9.83649 -0.69121,19.44963 -1.2868,28.79942 -1.4239,10.05813 -2.79993,19.85942 -3.78341,29.36656 -0.98348,9.50713 -1.57381,18.72021 -1.53146,27.60988 0,0 -10e-6,0 -2e-5,0 -14.78837,0.37905 -28.89163,1.45507 -42.15151,2.62173 -13.25989,1.16666 -25.67592,2.42436 -37.09069,3.43509 -12.0072,0.54147 -22.94764,0.96226 -32.62009,1.1722 -9.67245,0.20994 -18.07682,0.21553 -25.02872,0.0883 -6.95191,-0.12721 -12.45153,-0.37935 -16.33064,-0.63269 -3.87911,-0.25334 -6.13815,-0.50069 -6.62036,-0.68171 0.002,-0.0676 0.002,-0.0678 0.002,-0.0678 0,0 1e-5,-1.7e-4 0.002,-0.0678 0.4924,-0.15 2.75671,-0.23607 6.61713,-0.37255 3.86043,-0.13648 9.31688,-0.33074 16.20189,-0.74271 6.88502,-0.41197 15.19881,-1.04964 24.78133,-2.001 9.58252,-0.95137 20.43419,-2.22295 32.39753,-3.72033 10.84773,-0.88284 22.6083,-1.84024 35.19108,-2.54491 12.58278,-0.70467 25.98826,-1.15707 40.13659,-0.77801 0,0 10e-6,0 2e-5,0 -0.83375,-8.63234 -1.07997,-17.45545 -0.96434,-26.41606 0.11563,-8.96061 0.59254,-18.05859 1.10233,-27.2419 1.2069,-8.58622 2.40668,-17.29642 3.26516,-26.08847 0.85848,-8.79206 1.37485,-17.66586 1.16076,-26.58078 -2.31059,-0.23721 -4.62953,-0.46232 -6.95638,-0.67501 -29.36867,-2.68443 -57.77815,-3.15275 -84.32787,-1.90151 -26.54972,1.25124 -51.23694,4.2149 -73.30683,8.03518 -0.34248,16.60355 0.32712,31.83074 1.14163,45.34195 0.81452,13.51121 1.78176,25.30558 2.50723,35.03239 0.72547,9.72681 1.22283,17.38579 1.40406,22.62404 0.18123,5.23825 0.0588,8.05625 -0.35348,8.09748 z"
       id="path5601-3"
       inkscape:path-effect="#path-effect5603-4"
       inkscape:original-d="m 481.59011,374.57796 c -3.50249,-35.02484 -8.10555,-74.33498 -7.07107,-113.13708 55.77349,-9.92601 114.9713,-11.53435 169.70563,-6.06091 2.46829,39.28629 -6.98292,72.47363 -5.05076,111.11677 -50.38648,-10e-6 -103.17881,9.81259 -157.5838,8.08122 z"
       inkscape:connector-curvature="0"
       inkscape:export-filename="C:\Users\Rui\Desktop\TrabalhosGit\Flybeat\flybeat\reports\Meta 3\Packaging\Keyboard.png"
       inkscape:export-xdpi="90"
       inkscape:export-ydpi="90" />
    <path
       style="fill:#ffffff;fill-rule:evenodd;stroke:none"
       d="m 365.71429,287.11048 c 0.15116,0.54548 -0.89632,1.3872 -2.89624,2.51644 -1.99992,1.12925 -4.9652,2.52561 -8.4344,4.46303 -2.08494,1.18566 -4.32558,2.42231 -5.96403,4.12244 -0.45475,0.48176 -0.82305,0.90751 -0.98286,1.28783 -0.0991,0.2655 -0.15879,0.44353 -0.0938,0.4785 0.0237,0.004 0.0745,0.0614 0.11984,0.11967 0.0444,0.10659 0.21037,0.29977 0.42909,0.59294 0.58464,0.79351 1.66602,1.54013 2.99839,2.48818 1.59757,1.07149 3.43277,2.05761 5.43981,3.08271 4.28246,2.17575 9.0864,4.23416 14.16882,6.64068 2.05984,0.97258 4.18162,2.00836 6.32762,3.16906 0.22159,0.11985 0.44288,0.24074 0.66382,0.36272 1.97334,1.07836 4.01447,2.32021 5.98353,3.85144 1.47737,1.03085 3.12308,2.6791 4.46567,5.07802 0.55531,1.02664 0.90521,2.30837 0.98318,3.79428 0,0 0,1e-5 0,1e-5 0.005,1.53202 -0.33745,2.90617 -0.96416,4.06598 -1.83227,2.9682 -4.02663,4.57684 -5.827,5.33626 -3.36501,1.77843 -6.64149,2.80104 -9.60734,3.57499 -5.3947,1.4458 -10.37144,2.26792 -14.7535,2.84836 0,0 0,0 0,0 -6.47585,0.86184 -11.76291,1.16906 -15.45194,1.13042 -3.68903,-0.0386 -5.78276,-0.43057 -5.8902,-1.14681 -0.10744,-0.71624 1.78419,-1.6867 5.24672,-2.87077 3.46254,-1.18408 8.49774,-2.57414 14.62117,-4.29757 0,0 0,-10e-6 0,-10e-6 4.15807,-1.17191 8.79278,-2.45696 13.59509,-4.16786 2.70101,-0.98034 5.34474,-1.95627 7.56298,-3.33688 1.16959,-0.92099 2.07147,-1.32867 1.84826,-1.50263 -0.0926,0.11682 -0.13068,0.31533 -0.16118,0.66409 0,0 0,10e-6 0,10e-6 0.0421,0.30807 0.0313,0.43088 0.0436,0.39886 -0.057,-0.32945 -0.79721,-0.81896 -1.79966,-1.70905 -1.33456,-1.02784 -2.94737,-1.96344 -4.72732,-2.95678 -0.19597,-0.10814 -0.39309,-0.21587 -0.59133,-0.32325 -1.9198,-1.0399 -3.89763,-2.02264 -5.89041,-3.00572 -4.87297,-2.39763 -9.77968,-4.72713 -14.33176,-7.3639 -2.12618,-1.22643 -4.24239,-2.5766 -6.22123,-4.12387 -1.63174,-1.22238 -3.31525,-2.83615 -4.69222,-4.89644 -0.58673,-0.8786 -1.07561,-1.949 -1.40132,-3.17593 -0.30371,-1.19924 -0.32972,-2.45806 -0.0868,-3.70547 0.31308,-1.38094 0.86051,-2.51544 1.53378,-3.40683 0.86518,-1.15503 1.79321,-2.01419 2.68933,-2.66164 3.00039,-2.17754 5.90093,-3.23787 8.35573,-3.9845 4.15784,-1.30894 7.52344,-1.84284 9.86682,-2.01523 2.34337,-0.1724 3.67431,0.0387 3.82547,0.58422 z"
       id="path5696"
       inkscape:path-effect="#path-effect5698"
       inkscape:original-d="m 365.71429,287.11048 c -82.49487,22.86054 99.25247,38.57642 -29.28572,57.85715"
       inkscape:connector-curvature="0"
       inkscape:export-filename="C:\Users\Rui\Desktop\TrabalhosGit\Flybeat\flybeat\reports\Meta 3\Packaging\Keyboard.png"
       inkscape:export-xdpi="90"
       inkscape:export-ydpi="90" />
    <path
       style="fill:#ffffff;fill-rule:evenodd;stroke:none"
       d="m 527.14286,290.68191 c 0.54646,-0.0151 1.10823,1.48321 1.60289,4.22052 0.49467,2.73731 0.92253,6.71343 1.27353,11.67517 0.35101,4.96174 0.62564,10.909 0.88117,17.61159 0.25553,6.70258 0.49293,14.1604 0.82629,22.16777 0,0 0,10e-6 0,10e-6 6.21433,-5.54929 12.596,-11.60868 18.7052,-18.38384 0.55567,-0.61625 1.10513,-1.23414 1.64823,-1.85373 3.53762,-3.06493 6.83122,-6.12533 9.68973,-9.30994 2.42695,-2.75583 4.52946,-5.3646 5.77321,-8.05887 0.50019,-1.08707 0.88295,-2.08237 1.0178,-2.9799 0.11645,-0.77874 0.13992,-1.49792 -0.012,-2.05294 -0.10951,-0.58766 -0.46909,-1.22633 -0.9364,-1.82507 -0.6246,-0.81271 -1.61133,-1.52786 -2.7279,-2.22451 -1.97656,-1.22154 -4.17713,-2.06125 -6.424,-2.73131 -2.24687,-0.67007 -4.53992,-1.17011 -6.74827,-1.63587 0,0 0,0 0,0 -3.67658,-0.74492 -7.06696,-1.25457 -10.07114,-1.67319 -3.00417,-0.41861 -5.62219,-0.74491 -7.77116,-1.05591 -4.29796,-0.622 -6.71419,-1.20235 -6.72723,-1.88998 -0.013,-0.68763 2.36718,-1.42127 6.75002,-1.99231 2.19142,-0.28553 4.88489,-0.52476 8.03368,-0.62799 3.1488,-0.10322 6.75354,-0.0716 10.75967,0.25461 0,0 0,0 0,0 2.36727,0.17218 4.94389,0.45366 7.67316,1.02801 2.72927,0.57434 5.61166,1.44153 8.54239,2.8617 1.75824,0.85095 3.56932,2.05279 5.23507,3.76235 1.33363,1.38456 2.42346,3.12995 3.09446,5.19114 0.58847,1.95755 0.74249,3.94844 0.50319,5.83549 -0.25726,2.04077 -0.8209,3.93287 -1.56639,5.62356 -1.77346,4.03383 -4.31504,7.5686 -7.02758,10.66451 -3.19423,3.70692 -6.77334,7.14252 -10.51173,10.38758 -0.80535,0.54985 -1.61817,1.09538 -2.43788,1.6367 -9.0122,5.95152 -18.12604,10.94123 -26.48908,15.41389 0,0 0,0 0,0 -1.34511,-8.77729 -2.35931,-16.95212 -3.05491,-24.25113 -0.69559,-7.29901 -1.07331,-13.72221 -1.18993,-19.02806 -0.23325,-10.6117 0.59293,-16.72978 1.68586,-16.76005 z"
       id="path5700"
       inkscape:path-effect="#path-effect5702"
       inkscape:original-d="m 527.14286,290.68191 c 0.53628,19.36206 1.77151,39.85797 3.57143,57.85715 32.35767,-22.24592 78.543,-59.41378 -3.57143,-57.85715 z"
       inkscape:connector-curvature="0"
       inkscape:export-filename="C:\Users\Rui\Desktop\TrabalhosGit\Flybeat\flybeat\reports\Meta 3\Packaging\Keyboard.png"
       inkscape:export-xdpi="90"
       inkscape:export-ydpi="90" />
    <path
       style="fill:#ffffff;fill-rule:evenodd;stroke:none"
       d="m 319.89984,119.99629 c 1.24846,-0.588 4.22794,2.73757 7.90586,8.71046 3.67793,5.97289 8.0379,14.61441 11.83596,24.58518 1.89902,4.98538 3.47494,9.82848 4.70257,14.29552 1.22764,4.46703 2.10771,8.5571 2.65386,12.03582 1.0923,6.95743 0.87521,11.44188 -0.46359,11.77658 -1.3388,0.3347 -3.53626,-3.50133 -6.31787,-9.79388 -2.78161,-6.29255 -6.2141,-15.03327 -9.92181,-24.75073 -3.70772,-9.71747 -6.95476,-18.61053 -8.94337,-25.2483 -1.98862,-6.63777 -2.70007,-11.02265 -1.45161,-11.61065 z"
       id="path5704"
       inkscape:path-effect="#path-effect5706"
       inkscape:original-d="m 319.89984,119.99629 c 10.47598,22.24291 21.00406,48.88113 26.63466,71.40356"
       inkscape:connector-curvature="0"
       inkscape:export-filename="C:\Users\Rui\Desktop\TrabalhosGit\Flybeat\flybeat\reports\Meta 3\Packaging\Keyboard.png"
       inkscape:export-xdpi="90"
       inkscape:export-ydpi="90" />
    <path
       style="fill:#ffffff;fill-rule:evenodd;stroke:none"
       d="m 345.40112,191.39985 c -0.49918,-0.008 -0.97771,-1.00046 -1.34369,-2.87253 -0.36598,-1.87206 -0.61162,-4.62507 -0.56078,-8.10982 0.0508,-3.48475 0.40509,-7.70127 1.21039,-12.44652 0.8053,-4.74525 2.0658,-10.01801 3.81648,-15.57039 3.77395,-8.28325 9.06361,-17.28586 15.6398,-26.22767 0.82964,-1.1281 1.66812,-2.24034 2.51327,-3.33582 3.6735,11.75428 7.86048,22.62787 11.28357,31.83168 1.1317,4.43091 2.21078,8.47192 3.19776,12.0445 0.98698,3.57257 1.88037,6.67803 2.59469,9.25628 1.42865,5.15649 2.10703,8.23501 1.31715,8.62995 -0.39494,0.19747 -1.12652,-0.29616 -2.12305,-1.43045 -0.99652,-1.13428 -2.25534,-2.91102 -3.66449,-5.28114 -1.40916,-2.37012 -2.96595,-5.33499 -4.55936,-8.82279 -1.59341,-3.4878 -3.22143,-7.49906 -4.80989,-11.9248 -1.05293,-4.39904 -1.93015,-9.2271 -2.58206,-14.40719 -0.65191,-5.1801 -1.07811,-10.71239 -1.26986,-16.51054 -0.44364,1.09547 -0.87701,2.20594 -1.30025,3.33049 -3.35472,8.91375 -5.73007,17.78055 -7.70363,25.84733 -2.01011,5.146 -3.68375,9.96747 -5.02719,14.30329 -1.34343,4.33583 -2.36016,8.18706 -3.16447,11.39935 -0.8043,3.21228 -1.40278,5.78654 -1.94102,7.55975 -0.53824,1.77321 -1.02419,2.74535 -1.52337,2.73704 z"
       id="path5708"
       inkscape:path-effect="#path-effect5710"
       inkscape:original-d="m 345.40112,191.39985 c 0.42582,-25.59112 12.28954,-52.11713 20.9677,-66.87 3.483,20.04686 10.46401,43.5958 18.70094,60.06966"
       inkscape:connector-curvature="0"
       inkscape:export-filename="C:\Users\Rui\Desktop\TrabalhosGit\Flybeat\flybeat\reports\Meta 3\Packaging\Keyboard.png"
       inkscape:export-xdpi="90"
       inkscape:export-ydpi="90" />
    <path
       style="fill:#ffffff;fill-rule:evenodd;stroke:none"
       d="m 382.80297,185.16621 c -0.58821,-0.3549 -0.53063,-1.69475 -0.009,-3.81608 0.52186,-2.12133 1.49656,-5.02994 2.74894,-8.58694 1.25239,-3.557 2.77748,-7.7686 4.53425,-12.46603 1.75677,-4.69742 3.74881,-9.88371 6.07899,-15.28846 0.0403,-0.0945 0.0808,-0.18918 0.12128,-0.2839 2.31362,-5.4081 4.72971,-10.56819 7.20831,-15.14653 2.4786,-4.57833 5.01746,-8.57027 7.39864,-11.74922 2.38119,-3.17895 4.59512,-5.54732 6.3367,-7.00381 1.74157,-1.45648 2.99822,-2.01016 3.55022,-1.59616 0.552,0.414 0.35295,1.7484 -0.36395,3.81782 -0.71691,2.06943 -1.93865,4.88225 -3.42917,8.33814 -1.49053,3.45588 -3.24417,7.56261 -5.16673,12.1786 -1.92255,4.61599 -4.01738,9.7444 -6.34851,15.1182 -0.0408,0.0941 -0.0817,0.18814 -0.12251,0.28209 -2.28455,5.31096 -4.5509,10.41399 -6.81971,14.99614 -2.2688,4.58215 -4.53942,8.63867 -6.66791,11.92188 -2.1285,3.28321 -4.10693,5.79385 -5.69305,7.38124 -1.58612,1.58739 -2.76881,2.25792 -3.35702,1.90302 z"
       id="path5712"
       inkscape:path-effect="#path-effect5714"
       inkscape:original-d="m 382.80297,185.16621 c 13.13529,-21.77052 22.06333,-54.73015 37.96856,-75.93713"
       inkscape:connector-curvature="0"
       inkscape:export-xdpi="90"
       inkscape:export-ydpi="90"
       inkscape:export-filename="C:\Users\Rui\Desktop\TrabalhosGit\Flybeat\flybeat\reports\Meta 3\Packaging\Keyboard.png" />
    <rect
       style="fill:#f2f2f2;fill-opacity:0;fill-rule:nonzero;stroke:#ffffff;stroke-width:21;stroke-linejoin:round;stroke-miterlimit:4;stroke-opacity:1;stroke-dasharray:none"
       id="rect6435"
       width="274.28592"
       height="420.00089"
       x="198.57143"
       y="528.07642"
       inkscape:export-filename="C:\Users\Rui\Desktop\TrabalhosGit\Flybeat\flybeat\reports\Meta 3\Packaging\cell.png"
       inkscape:export-xdpi="90"
       inkscape:export-ydpi="90" />
    <path
       style="fill:#ececec;fill-rule:evenodd;stroke:none"
       d="m 338.57143,875.21933 c 0.23223,0.33074 0.0577,0.93041 -0.46013,1.7707 -0.51785,0.84029 -1.38173,1.92125 -2.48886,3.23388 -1.10713,1.31263 -2.46013,2.85567 -3.87529,4.64959 -1.41515,1.79391 -2.89349,3.83717 -4.14221,6.20139 0,0 0,0 0,0 -0.7013,1.40673 -1.35451,2.8945 -1.77643,4.36814 -0.42192,1.47365 -0.61251,2.93253 -0.31025,4.25439 0.22295,1.72245 1.30504,3.55168 2.81688,4.90395 1.51247,1.36782 3.60982,2.3509 5.88583,2.86525 0.0855,0.0163 0.17114,0.032 0.25681,0.0472 2.12505,0.37563 4.18751,0.36593 5.79423,-0.25256 1.53306,-0.51939 2.9303,-1.71986 3.52112,-3.04187 0.48991,-0.94139 0.7235,-2.15236 0.84397,-3.43477 0.15902,-1.83114 -0.0805,-3.76489 -0.4302,-5.66605 -0.52594,-2.841 -1.34044,-5.43277 -2.15739,-7.74936 -0.81694,-2.31659 -1.63744,-4.35679 -2.28704,-6.0765 -0.6496,-1.71972 -1.13093,-3.1184 -1.35191,-4.14736 -0.22097,-1.02896 -0.18403,-1.68888 0.16087,-1.926 0.3449,-0.23712 0.97824,-0.039 1.8577,0.56949 0.87945,0.60854 2.00729,1.62692 3.29938,3.06583 1.2921,1.43892 2.75127,3.29871 4.21114,5.62784 1.45988,2.32913 2.92204,5.12897 4.10348,8.4728 0.8076,2.2909 1.43554,4.93273 1.54273,7.92545 0.0837,2.14403 -0.20806,4.49896 -1.10179,6.91755 -1.54301,3.8597 -4.62998,7.06904 -8.72129,8.67981 -3.63912,1.36831 -7.55666,1.61685 -11.21071,0.85963 -0.14731,-0.0305 -0.29394,-0.0626 -0.43986,-0.0962 -3.92289,-0.82296 -7.57222,-2.72079 -10.46457,-5.44966 -3.17635,-3.00799 -5.04125,-7.05982 -5.3719,-11.22542 -0.10142,-2.97149 0.4442,-5.63266 1.32029,-7.94549 0.87609,-2.31283 2.08202,-4.27797 3.37625,-5.90657 0,0 0,-1e-5 0,-1e-5 2.07169,-2.68632 4.2537,-4.75157 6.29221,-6.37335 2.03851,-1.62178 3.93572,-2.80087 5.54862,-3.65073 1.6129,-0.84986 2.94448,-1.36994 3.92226,-1.60822 0.97778,-0.23827 1.60383,-0.19346 1.83606,0.13728 z"
       id="path6453"
       inkscape:path-effect="#path-effect6455"
       inkscape:original-d="m 338.57143,875.21933 c -55.63597,39.06513 41.22306,59.96081 0,0 z"
       inkscape:connector-curvature="0"
       inkscape:export-filename="C:\Users\Rui\Desktop\TrabalhosGit\Flybeat\flybeat\reports\Meta 3\Packaging\cell.png"
       inkscape:export-xdpi="90"
       inkscape:export-ydpi="90" />
    <rect
       style="fill:#ffffff;fill-opacity:1;fill-rule:nonzero;stroke:#ffffff;stroke-width:9.26940632;stroke-linejoin:round;stroke-miterlimit:4;stroke-opacity:1;stroke-dasharray:none"
       id="rect6459"
       width="213.19635"
       height="280.73059"
       x="228.20613"
       y="563.42542"
       inkscape:export-filename="C:\Users\Rui\Desktop\TrabalhosGit\Flybeat\flybeat\reports\Meta 3\Packaging\cell.png"
       inkscape:export-xdpi="90"
       inkscape:export-ydpi="90" />
  </g>
</svg>
