<?xml version="1.0" encoding="UTF-8" standalone="no"?>
<!-- Created with Inkscape (http://www.inkscape.org/) -->

<svg
   xmlns:osb="http://www.openswatchbook.org/uri/2009/osb"
   xmlns:dc="http://purl.org/dc/elements/1.1/"
   xmlns:cc="http://creativecommons.org/ns#"
   xmlns:rdf="http://www.w3.org/1999/02/22-rdf-syntax-ns#"
   xmlns:svg="http://www.w3.org/2000/svg"
   xmlns="http://www.w3.org/2000/svg"
   xmlns:xlink="http://www.w3.org/1999/xlink"
   xmlns:sodipodi="http://sodipodi.sourceforge.net/DTD/sodipodi-0.dtd"
   xmlns:inkscape="http://www.inkscape.org/namespaces/inkscape"
   width="744.09448819"
   height="1052.3622047"
   id="svg2"
   version="1.1"
   inkscape:version="0.48.4 r9939"
   sodipodi:docname="New document 1">
  <defs
     id="defs4">
    <inkscape:path-effect
       effect="skeletal"
       id="path-effect6102"
       is_visible="true"
       pattern="m 597.09103,-34.091373 c 0,-2.76 2.24,-5 5,-5 2.76,0 5,2.24 5,5 0,2.76 -2.24,5 -5,5 -2.76,0 -5,-2.24 -5,-5 z"
       copytype="single_stretched"
       prop_scale="1"
       scale_y_rel="false"
       spacing="0"
       normal_offset="0"
       tang_offset="0"
       prop_units="false"
       vertical_pattern="false"
       fuse_tolerance="0" />
    <inkscape:path-effect
       effect="skeletal"
       id="path-effect6082"
       is_visible="true"
       pattern="m 397.59611,17.337199 c 0,-2.76 2.24,-5 5,-5 2.76,0 5,2.24 5,5 0,2.76 -2.24,5 -5,5 -2.76,0 -5,-2.24 -5,-5 z"
       copytype="single_stretched"
       prop_scale="1"
       scale_y_rel="false"
       spacing="0"
       normal_offset="0"
       tang_offset="0"
       prop_units="false"
       vertical_pattern="false"
       fuse_tolerance="0" />
    <pattern
       inkscape:stockid="Stripes 1:1 white"
       id="Strips1_1white"
       patternTransform="translate(0,0) scale(10,10)"
       height="1"
       width="2"
       patternUnits="userSpaceOnUse"
       inkscape:collect="always">
      <rect
         id="rect5239"
         height="2"
         width="1"
         y="-0.5"
         x="0"
         style="fill:white;stroke:none" />
    </pattern>
    <linearGradient
       id="linearGradient6057"
       osb:paint="solid">
      <stop
         style="stop-color:#ffffff;stop-opacity:1;"
         offset="0"
         id="stop6059" />
    </linearGradient>
    <inkscape:path-effect
       effect="skeletal"
       id="path-effect6049"
       is_visible="true"
       pattern="m 130.30968,-265.72088 c 0,-2.76 2.24,-5 5,-5 2.76,0 5,2.24 5,5 0,2.76 -2.24,5 -5,5 -2.76,0 -5,-2.24 -5,-5 z"
       copytype="single_stretched"
       prop_scale="1"
       scale_y_rel="false"
       spacing="0"
       normal_offset="0"
       tang_offset="0"
       prop_units="false"
       vertical_pattern="false"
       fuse_tolerance="0" />
    <inkscape:path-effect
       effect="skeletal"
       id="path-effect6037"
       is_visible="true"
       pattern="M 0,5 C 0,2.24 2.24,0 5,0 7.76,0 10,2.24 10,5 10,7.76 7.76,10 5,10 2.24,10 0,7.76 0,5 z"
       copytype="single_stretched"
       prop_scale="1"
       scale_y_rel="false"
       spacing="0"
       normal_offset="0"
       tang_offset="0"
       prop_units="false"
       vertical_pattern="false"
       fuse_tolerance="0" />
    <inkscape:path-effect
       effect="skeletal"
       id="path-effect6029"
       is_visible="true"
       pattern="m 216.17264,209.05081 c 0,-2.76 2.24,-5 5,-5 2.76,0 5,2.24 5,5 0,2.76 -2.24,5 -5,5 -2.76,0 -5,-2.24 -5,-5 z"
       copytype="single_stretched"
       prop_scale="1"
       scale_y_rel="false"
       spacing="0"
       normal_offset="0"
       tang_offset="0"
       prop_units="false"
       vertical_pattern="false"
       fuse_tolerance="0" />
    <inkscape:path-effect
       effect="skeletal"
       id="path-effect6025"
       is_visible="true"
       pattern="m 64.649763,86.822356 c 0,-2.76 2.24,-5 5,-5 2.76,0 5,2.24 5,5 0,2.76 -2.24,5 -5,5 -2.76,0 -5,-2.24 -5,-5 z"
       copytype="single_stretched"
       prop_scale="1"
       scale_y_rel="false"
       spacing="0"
       normal_offset="0"
       tang_offset="0"
       prop_units="false"
       vertical_pattern="false"
       fuse_tolerance="0" />
    <inkscape:path-effect
       effect="skeletal"
       id="path-effect6021"
       is_visible="true"
       pattern="m -64.649763,61.568542 c 0,-2.76 2.24,-5 5,-5 2.76,0 5,2.24 5,5 0,2.76 -2.24,5 -5,5 -2.76,0 -5,-2.24 -5,-5 z"
       copytype="single_stretched"
       prop_scale="1"
       scale_y_rel="false"
       spacing="0"
       normal_offset="0"
       tang_offset="0"
       prop_units="false"
       vertical_pattern="false"
       fuse_tolerance="0" />
    <inkscape:path-effect
       effect="skeletal"
       id="path-effect5997"
       is_visible="true"
       pattern="M 0,5 C 0,2.24 2.24,0 5,0 7.76,0 10,2.24 10,5 10,7.76 7.76,10 5,10 2.24,10 0,7.76 0,5 z"
       copytype="single_stretched"
       prop_scale="1"
       scale_y_rel="false"
       spacing="0"
       normal_offset="0"
       tang_offset="0"
       prop_units="false"
       vertical_pattern="false"
       fuse_tolerance="0" />
    <linearGradient
       id="linearGradient5973">
      <stop
         style="stop-color:#08ffff;stop-opacity:1;"
         offset="0"
         id="stop5975" />
      <stop
         style="stop-color:#808080;stop-opacity:0;"
         offset="1"
         id="stop5977" />
    </linearGradient>
    <inkscape:path-effect
       effect="skeletal"
       id="path-effect5967"
       is_visible="true"
       pattern="m 445.71429,215 c 0,-2.76 2.24,-5 5,-5 2.76,0 5,2.24 5,5 0,2.76 -2.24,5 -5,5 -2.76,0 -5,-2.24 -5,-5 z"
       copytype="single_stretched"
       prop_scale="1"
       scale_y_rel="false"
       spacing="0"
       normal_offset="0"
       tang_offset="0"
       prop_units="false"
       vertical_pattern="false"
       fuse_tolerance="0" />
    <linearGradient
       id="linearGradient4499">
      <stop
         style="stop-color:#000000;stop-opacity:1;"
         offset="0"
         id="stop4501" />
      <stop
         style="stop-color:#000000;stop-opacity:0;"
         offset="1"
         id="stop4503" />
    </linearGradient>
    <inkscape:path-effect
       effect="skeletal"
       id="path-effect4459"
       is_visible="true"
       pattern="m 445.71429,215 c 0,-2.76 2.24,-5 5,-5 2.76,0 5,2.24 5,5 0,2.76 -2.24,5 -5,5 -2.76,0 -5,-2.24 -5,-5 z"
       copytype="single_stretched"
       prop_scale="1"
       scale_y_rel="false"
       spacing="0"
       normal_offset="0"
       tang_offset="0"
       prop_units="false"
       vertical_pattern="false"
       fuse_tolerance="0" />
    <inkscape:path-effect
       effect="skeletal"
       id="path-effect4455"
       is_visible="true"
       pattern="m 445.71429,215 c 0,-2.76 2.24,-5 5,-5 2.76,0 5,2.24 5,5 0,2.76 -2.24,5 -5,5 -2.76,0 -5,-2.24 -5,-5 z"
       copytype="single_stretched"
       prop_scale="1"
       scale_y_rel="false"
       spacing="0"
       normal_offset="0"
       tang_offset="0"
       prop_units="false"
       vertical_pattern="false"
       fuse_tolerance="0" />
    <inkscape:perspective
       sodipodi:type="inkscape:persp3d"
       inkscape:vp_x="268.70058 : 414.05416 : 1"
       inkscape:vp_y="0 : 1000 : 0"
       inkscape:vp_z="712.77975 : 307.98814 : 1"
       inkscape:persp3d-origin="372.04724 : 350.78739 : 1"
       id="perspective4419" />
    <linearGradient
       id="linearGradient4281">
      <stop
         style="stop-color:#000000;stop-opacity:1;"
         offset="0"
         id="stop4283" />
      <stop
         style="stop-color:#000000;stop-opacity:0;"
         offset="1"
         id="stop4285" />
    </linearGradient>
    <linearGradient
       inkscape:collect="always"
       xlink:href="#linearGradient4281"
       id="linearGradient4287"
       x1="252.85715"
       y1="537.36218"
       x2="620"
       y2="535.93359"
       gradientUnits="userSpaceOnUse" />
    <linearGradient
       inkscape:collect="always"
       xlink:href="#linearGradient4281-0"
       id="linearGradient4287-6"
       x1="252.85715"
       y1="537.36218"
       x2="620"
       y2="535.93359"
       gradientUnits="userSpaceOnUse" />
    <linearGradient
       id="linearGradient4281-0">
      <stop
         style="stop-color:#000000;stop-opacity:1;"
         offset="0"
         id="stop4283-3" />
      <stop
         style="stop-color:#000000;stop-opacity:0;"
         offset="1"
         id="stop4285-6" />
    </linearGradient>
    <linearGradient
       inkscape:collect="always"
       xlink:href="#linearGradient4281-4"
       id="linearGradient4287-2"
       x1="252.85715"
       y1="537.36218"
       x2="620"
       y2="535.93359"
       gradientUnits="userSpaceOnUse" />
    <linearGradient
       id="linearGradient4281-4">
      <stop
         style="stop-color:#000000;stop-opacity:1;"
         offset="0"
         id="stop4283-5" />
      <stop
         style="stop-color:#000000;stop-opacity:0;"
         offset="1"
         id="stop4285-8" />
    </linearGradient>
    <radialGradient
       inkscape:collect="always"
       xlink:href="#linearGradient4499"
       id="radialGradient4507"
       cx="412.14285"
       cy="291.29074"
       fx="412.14285"
       fy="291.29074"
       r="19.785715"
       gradientTransform="matrix(1,0,0,2.2093862,0,-352.28302)"
       gradientUnits="userSpaceOnUse" />
    <linearGradient
       inkscape:collect="always"
       xlink:href="#linearGradient5973"
       id="linearGradient5981"
       x1="706.64288"
       y1="488.07648"
       x2="-570.92859"
       y2="509.50504"
       gradientUnits="userSpaceOnUse"
       gradientTransform="translate(-14.285714,252.85714)" />
    <inkscape:path-effect
       effect="skeletal"
       id="path-effect6102-8"
       is_visible="true"
       pattern="m 592.17365,98.227947 c 0,-2.76001 2.24,-5.00001 5,-5.00001 2.76,0 5,2.24 5,5.00001 0,2.760003 -2.24,5.000003 -5,5.000003 -2.76,0 -5,-2.24 -5,-5.000003 z"
       copytype="single_stretched"
       prop_scale="1"
       scale_y_rel="false"
       spacing="0"
       normal_offset="0"
       tang_offset="0"
       prop_units="false"
       vertical_pattern="false"
       fuse_tolerance="0" />
    <inkscape:path-effect
       effect="skeletal"
       id="path-effect6102-9"
       is_visible="true"
       pattern="m 530.11129,181.43171 c 0,-2.76 2.24,-5 5,-5 2.76,0 5,2.24 5,5 0,2.76 -2.24,5 -5,5 -2.76,0 -5,-2.24 -5,-5 z"
       copytype="single_stretched"
       prop_scale="1"
       scale_y_rel="false"
       spacing="0"
       normal_offset="0"
       tang_offset="0"
       prop_units="false"
       vertical_pattern="false"
       fuse_tolerance="0" />
    <inkscape:path-effect
       effect="skeletal"
       id="path-effect6102-6"
       is_visible="true"
       pattern="m 562.17365,-121.77205 c 0,-2.76 2.24,-5 5,-5 2.76,0 5,2.24 5,5 0,2.76 -2.24,5 -5,5 -2.76,0 -5,-2.24 -5,-5 z"
       copytype="single_stretched"
       prop_scale="1"
       scale_y_rel="false"
       spacing="0"
       normal_offset="0"
       tang_offset="0"
       prop_units="false"
       vertical_pattern="false"
       fuse_tolerance="0" />
  </defs>
  <sodipodi:namedview
     id="base"
     pagecolor="#000000"
     bordercolor="#666666"
     borderopacity="1.0"
     inkscape:pageopacity="0"
     inkscape:pageshadow="2"
     inkscape:zoom="0.7"
     inkscape:cx="925.7401"
     inkscape:cy="516.97258"
     inkscape:document-units="px"
     inkscape:current-layer="layer1"
     showgrid="false"
     inkscape:window-width="1920"
     inkscape:window-height="1003"
     inkscape:window-x="-9"
     inkscape:window-y="-9"
     inkscape:window-maximized="1" />
  <metadata
     id="metadata7">
    <rdf:RDF>
      <cc:Work
         rdf:about="">
        <dc:format>image/svg+xml</dc:format>
        <dc:type
           rdf:resource="http://purl.org/dc/dcmitype/StillImage" />
        <dc:title></dc:title>
      </cc:Work>
    </rdf:RDF>
  </metadata>
  <g
     inkscape:groupmode="layer"
     id="layer3"
     inkscape:label="Layer" />
  <g
     inkscape:label="Layer 1"
     inkscape:groupmode="layer"
     id="layer1">
    <rect
       style="fill:#ffffff;fill-opacity:0;fill-rule:nonzero;stroke:#f9f9f9;stroke-width:12;stroke-linejoin:round;stroke-miterlimit:10;stroke-opacity:1;stroke-dasharray:none"
       id="rect3755"
       width="631.42859"
       height="102.85714"
       x="73.141304"
       y="433.84424"
       inkscape:export-filename="C:\Users\Rui\Desktop\TrabalhosGit\Flybeat\flybeat\reports\Meta 3\Packaging\noisebarempty.png"
       inkscape:export-xdpi="26.577299"
       inkscape:export-ydpi="26.577299" />
    <path
       style="fill:#ffffff;fill-rule:evenodd;stroke:#f2f2f2"
       d="m 730.57731,403.73252 c 0.46908,-0.0654 1.55023,4.14937 2.92559,12.07923 1.37536,7.92985 3.02711,19.57856 4.42684,34.39768 1.39973,14.81912 2.53157,32.81178 2.91409,53.39278 0.38252,20.58099 0.006,43.7515 -1.36788,68.85637 11.81844,3.0087 24.52234,4.80233 37.79611,6.15721 11.48987,1.87936 23.44256,3.38246 35.72935,5.27099 11.74947,-3.78111 23.94338,-6.5498 36.25513,-9.21177 12.31176,-2.66197 24.74007,-5.22077 36.90747,-8.8167 0.2649,-0.0783 0.52952,-0.15703 0.79384,-0.23623 1.87316,-13.65085 2.66499,-27.25954 2.84422,-40.68721 0.17924,-13.42768 -0.2526,-26.67393 -0.89559,-39.61046 -0.082,-14.37527 -0.52913,-28.38832 -1.00543,-41.97729 -0.47629,-13.58896 -0.98103,-26.75375 -1.29002,-39.42112 -14.55657,-2.64713 -28.53475,-4.35258 -41.68721,-5.31929 -13.15247,-0.9667 -25.47966,-1.19634 -36.78518,-0.95113 -11.73314,-0.21056 -22.33929,0.18864 -31.66335,0.82477 -9.32407,0.63612 -17.36703,1.50964 -23.99851,2.33976 -6.63149,0.83013 -11.85265,1.61736 -15.54184,2.16508 -3.68918,0.54771 -5.84747,0.85574 -6.34479,0.80831 0,0 0,0 0,0 -0.0128,-0.0608 -0.0128,-0.061 -0.0128,-0.061 0,0 -3e-5,-1.4e-4 -0.0128,-0.061 0,0 0,0 0,0 0.43622,-0.24396 2.53537,-0.84682 6.17379,-1.74411 3.63841,-0.89729 8.81701,-2.08901 15.42372,-3.41395 6.6067,-1.32495 14.64265,-2.7837 23.99155,-4.11297 9.34889,-1.32927 20.01182,-2.52954 31.85124,-3.2269 11.88175,-0.23364 24.94778,0.16828 38.9848,1.47667 14.03703,1.30838 29.04532,3.52506 44.74192,6.84814 0.97843,13.08098 2.20671,26.7896 3.4456,41.06191 1.23888,14.27231 2.48763,29.10848 3.38972,44.44411 0.23858,13.67901 0.194,27.78901 -0.52457,42.19595 -0.71857,14.40695 -2.11269,29.1106 -4.63727,43.95229 -0.2972,0.0981 -0.59458,0.19574 -0.89213,0.29287 -13.66689,4.46128 -27.30204,7.77621 -40.52982,11.07607 -13.22779,3.29986 -26.0474,6.58834 -38.16479,10.77246 -12.89702,-1.88904 -25.64378,-3.45168 -38.04226,-5.44156 -14.5917,-3.15855 -28.73032,-6.7299 -41.97548,-11.4145 1.17062,-25.77655 1.53143,-49.52315 1.32313,-70.57911 -0.20831,-21.05597 -0.97596,-39.42339 -1.84895,-54.5374 -0.87299,-15.11402 -1.83576,-26.97829 -2.41353,-35.07978 -0.57778,-8.10149 -0.75291,-12.44385 -0.28383,-12.50921 z"
       id="path4453"
       inkscape:path-effect="#path-effect4455"
       inkscape:original-d="m 730.57731,403.73252 c 7.56769,54.31418 8.83526,115.22889 6.06091,170.71578 25.31214,7.76959 55.45944,10.94531 76.7716,14.14213 23.89444,-7.97443 52.34982,-12.49091 76.77159,-20.20305 8.16666,-52.91099 1.65068,-113.45851 -1.01015,-166.67517 -56.79782,-11.20858 -106.60301,-8.92516 -158.59395,2.02031 z"
       inkscape:connector-curvature="0"
       inkscape:export-filename="C:\Users\Rui\Desktop\TrabalhosGit\Flybeat\flybeat\reports\Meta 3\Packaging\Speaker.png"
       inkscape:export-xdpi="90"
       inkscape:export-ydpi="90" />
    <path
       style="fill:#ffffff;fill-rule:evenodd;stroke:none"
       d="m 811.38951,586.57013 c -0.68983,-0.0152 -1.28327,-2.70483 -1.79576,-7.54798 -0.51248,-4.84315 -0.94645,-11.84002 -1.35096,-20.47483 -0.80903,-17.26961 -1.53013,-41.08792 -2.48015,-67.36867 -0.95001,-26.28075 -1.96396,-50.07779 -2.44956,-67.35278 -0.24281,-8.6375 -0.34284,-15.64456 -0.20325,-20.51157 0.1396,-4.86702 0.52203,-7.59434 1.20861,-7.663 0.68658,-0.0687 1.61274,2.52884 2.66525,7.29591 1.05251,4.76708 2.22816,11.70423 3.37637,20.31018 2.29641,17.21191 4.44034,41.11132 5.39686,67.5599 0.95653,26.44857 0.55822,50.43672 -0.44357,67.76942 -0.50089,8.66635 -1.14494,15.67135 -1.82883,20.50436 -0.68388,4.83301 -1.40518,7.49431 -2.09501,7.47906 z"
       id="path4457"
       inkscape:path-effect="#path-effect4459"
       inkscape:original-d="m 811.38951,586.57013 c 1.42208,-64.31677 -1.46072,-134.81537 -7.07107,-190.91883"
       inkscape:connector-curvature="0"
       inkscape:export-filename="C:\Users\Rui\Desktop\TrabalhosGit\Flybeat\flybeat\reports\Meta 3\Packaging\Speaker.png"
       inkscape:export-xdpi="90"
       inkscape:export-ydpi="90" />
    <path
       sodipodi:type="arc"
       style="fill:url(#Strips1_1white);fill-opacity:1;fill-rule:nonzero;stroke:url(#radialGradient4507);stroke-width:1;stroke-linejoin:round;stroke-miterlimit:10;stroke-opacity:1;stroke-dasharray:none"
       id="path4497"
       sodipodi:cx="412.14285"
       sodipodi:cy="291.29074"
       sodipodi:rx="19.285715"
       sodipodi:ry="43.214287"
       d="m 431.42857,291.29074 a 19.285715,43.214287 0 1 1 -38.57143,0 19.285715,43.214287 0 1 1 38.57143,0 z"
       transform="translate(444.28572,221.42857)"
       inkscape:export-filename="C:\Users\Rui\Desktop\TrabalhosGit\Flybeat\flybeat\reports\Meta 3\Packaging\Speaker.png"
       inkscape:export-xdpi="90"
       inkscape:export-ydpi="90" />
    <path
       style="fill:#ffffff;fill-rule:evenodd;stroke:none"
       d="m 830.71429,426.6479 c 0.2868,-0.62757 1.1485,-0.9442 2.41833,-1.07313 1.26984,-0.12892 2.95141,-0.0777 4.95315,0.004 2.00173,0.0813 4.32729,0.1893 6.90319,0.22982 2.5759,0.0405 5.40391,0.014 8.38672,-0.0982 0.85328,-0.0321 1.696,-0.0699 2.52531,-0.11149 0,0 0,0 0,0 5.42576,-0.30837 10.27275,-0.78792 13.92458,-0.9377 3.65184,-0.14978 6.13861,0.0787 6.60301,1.27285 0.2322,0.59709 -0.0731,1.37911 -0.87533,2.26912 -0.80227,0.89 -2.10338,1.88562 -3.84705,2.85942 -1.74368,0.9738 -3.93103,1.9233 -6.46748,2.70708 -2.53646,0.78377 -5.422,1.39956 -8.51555,1.72766 0,0 0,0 0,0 -0.95966,0.10699 -1.94237,0.18397 -2.94254,0.22683 -3.49628,0.14985 -6.87099,-0.14171 -9.86987,-0.75753 -2.99888,-0.61582 -5.61923,-1.55137 -7.69564,-2.59279 -2.07642,-1.04142 -3.61005,-2.18183 -4.53666,-3.19776 -0.92661,-1.01593 -1.25097,-1.90017 -0.96417,-2.52774 z"
       id="path5965"
       inkscape:path-effect="#path-effect5967"
       inkscape:original-d="m 830.71429,426.6479 c 16.77979,7.66847 36.24289,2.96903 45.71429,-0.71429"
       inkscape:connector-curvature="0"
       inkscape:export-filename="C:\Users\Rui\Desktop\TrabalhosGit\Flybeat\flybeat\reports\Meta 3\Packaging\Speaker.png"
       inkscape:export-xdpi="90"
       inkscape:export-ydpi="90" />
    <rect
       style="fill:url(#linearGradient5981);fill-opacity:1;fill-rule:nonzero;stroke:#000000;stroke-width:1;stroke-linejoin:round;stroke-miterlimit:10;stroke-opacity:1;stroke-dasharray:none"
       id="rect5971"
       width="624.28571"
       height="97.14286"
       x="61.428574"
       y="689.505"
       inkscape:export-filename="C:\Users\Rui\Desktop\TrabalhosGit\Flybeat\flybeat\reports\Meta 3\Packaging\noisebarfull.png"
       inkscape:export-xdpi="90"
       inkscape:export-ydpi="90" />
    <path
       style="fill:#f9f9f9;fill-rule:evenodd;stroke:none"
       d="m 1021.4817,492.22037 c -0.068,-0.0303 -0.1022,-0.12948 -0.116,-0.22929 0,0 0,0 0,0 -0.01,-0.0756 0,-0.16761 0.023,-0.26808 0.038,-0.19292 0.1247,-0.43574 0.2513,-0.71483 0.2467,-0.54252 0.6651,-1.25118 1.2351,-2.10021 1.0868,-1.61795 2.7531,-3.7801 4.9407,-6.39454 3.8404,-4.58964 9.3006,-10.62164 16.2505,-17.57102 5.0994,-5.10519 10.9894,-10.83621 18.1265,-16.46279 2.195,-1.74732 4.6519,-3.59082 7.5942,-5.18565 0.9125,-0.51692 2.0824,-1.04645 3.5538,-1.44689 0.8536,-0.43122 2.4679,-0.4333 4.7256,0.29392 2.2022,1.20151 3.5426,2.57443 4.1655,3.65199 1.1897,1.60317 2.1293,3.22752 2.9281,4.76086 2.0434,3.87436 3.7443,7.89123 5.4087,11.84074 1.6099,3.8 3.1304,7.58121 4.8907,11.15393 0.6582,1.31588 1.255,2.49595 1.9167,3.44092 0,0 0,0 0,0 0.7119,0.66419 0.637,0.95285 0.012,0.35441 -0.3298,-0.08 -0.4086,-0.13699 -0.4302,-0.0991 0,0 0,0 0,0 0.163,0.0213 0.5501,-0.24548 1.1702,-0.60612 0.4893,-0.31189 0.9687,-0.69206 1.4471,-1.1272 1.081,-0.98343 2.1454,-2.23624 3.2906,-3.58888 1.632,-1.99222 3.1575,-4.15764 4.6927,-6.38728 0,0 0,0 0,0 0.5896,-0.85865 1.195,-1.75588 1.8387,-2.67417 0.3013,-0.46719 0.82,-1.21002 1.6534,-2.13169 5.4424,-5.6863 11.0343,-10.78484 16.5487,-15.44216 5.5145,-4.65732 10.9509,-8.87456 16.1345,-12.75564 5.1836,-3.88109 10.1144,-7.42644 14.6733,-10.68568 4.5589,-3.25925 8.7466,-6.23205 12.4932,-8.91298 2.4081,-1.7238 4.7524,-3.0185 6.9241,-4.10242 2.1716,-1.08392 4.1721,-1.95539 5.9568,-2.72461 1.8213,-0.809 3.4277,-1.47559 4.7863,-2.087 1.3587,-0.6114 2.4737,-1.16308 3.3731,-1.63207 0.8995,-0.46899 1.5867,-0.851 2.0933,-1.07991 0.5066,-0.22891 0.8344,-0.30136 0.9779,-0.16623 0.1435,0.13513 0.097,0.47542 -0.1674,0.99813 -0.2649,0.52272 -0.7519,1.22577 -1.4991,2.04438 -0.7472,0.81861 -1.7588,1.74922 -3.0256,2.72818 -1.2667,0.97896 -2.7929,2.00195 -4.4575,3.06647 -1.6405,1.07164 -3.4647,2.2119 -5.362,3.48061 -1.8972,1.2687 -3.8686,2.66393 -5.7189,4.33817 -3.487,3.09133 -7.4368,6.44646 -11.7607,10.03435 -4.3239,3.5879 -9.0222,7.40781 -13.9546,11.48149 -4.9323,4.07367 -10.0982,8.40103 -15.3066,13.0627 -5.2084,4.66168 -10.4582,9.65829 -15.519,15.12506 -0.061,0.0282 -0.2606,0.39006 -0.7064,1.00082 -0.5666,0.82782 -1.1449,1.70559 -1.7593,2.61833 0,1e-5 0,1e-5 0,1e-5 -1.5655,2.33256 -3.2435,4.73423 -5.1576,7.10423 -1.2211,1.55836 -2.6494,3.18961 -4.3914,4.72922 -0.7709,0.68122 -1.5996,1.34108 -2.4938,1.96554 -1.1647,0.84734 -2.7146,1.60756 -4.6435,2.08556 0,0 0,0 0,0 -1.8463,0.43629 -3.8773,0.25238 -5.8919,-0.60774 -2.418,-1.4287 -3.6811,-2.86909 -4.0684,-3.83092 0,-10e-6 0,-10e-6 0,-10e-6 -1.0868,-1.64138 -1.9058,-3.2371 -2.5918,-4.69969 -1.9259,-4.04641 -3.4624,-8.02115 -4.9583,-11.77413 -1.6078,-4.00862 -3.0926,-7.80696 -4.7943,-11.2513 -0.6913,-1.37846 -1.3218,-2.60132 -2.0232,-3.58476 -0.6756,-0.69848 -0.7702,-1.11121 -0.5347,-0.82034 1.1751,0.22595 1.5223,0.39264 1.2255,0.23654 -0.3354,0.0317 -0.8576,0.2808 -1.5753,0.59952 -2.1939,1.03787 -4.3287,2.52689 -6.5361,4.07807 -6.9659,4.9402 -13.0467,10.14333 -18.5131,14.76447 -7.4032,6.26336 -13.4699,11.56139 -18.0217,15.38241 -2.5957,2.17948 -4.6846,3.87428 -6.2302,5.02686 -0.8142,0.60777 -1.4692,1.05581 -1.9705,1.34871 -0.2599,0.15252 -0.4722,0.25562 -0.6455,0.31944 -0.091,0.0339 -0.1676,0.0519 -0.2352,0.0609 0,0 0,0 0,0 -0.053,0.0131 -0.093,0.004 -0.1323,-0.003 -0.039,-0.007 -0.076,-0.0138 -0.1095,-0.0289 z"
       id="path6100"
       inkscape:path-effect="#path-effect6102"
       inkscape:original-d="m 1021.4817,492.22037 c 0.6225,-1.39156 47.7285,-49.14386 54.6642,-45.93233 6.0492,2.80102 14.0415,33.21831 19.1462,35.582 6.93,3.20886 17.15,-15.4156 19.3532,-17.75518 16.608,-17.63566 39.4156,-33.76435 58.1953,-48.75004 7.4765,-5.96603 17.0822,-8.82035 22.171,-14.22409"
       inkscape:connector-curvature="0"
       inkscape:export-xdpi="90"
       inkscape:export-ydpi="90" />
    <path
       style="fill:#f9f9f9;fill-rule:evenodd;stroke:none"
       d="m 1020.398,526.77737 c -0,-0.0369 0,-0.0752 0.029,-0.11234 0.026,-0.0371 0.072,-0.072 0.1115,-0.10302 0,0 0,0 0,0 0.062,-0.043 0.1468,-0.081 0.2434,-0.11469 0.1857,-0.0643 0.4395,-0.11061 0.7445,-0.14103 0.5931,-0.0586 1.416,-0.0519 2.4364,0.0154 1.9448,0.1289 4.651,0.48639 8.01,1.06805 5.8966,1.02111 13.8535,2.72043 23.3511,5.24861 6.974,1.85185 14.8859,4.07393 23.3329,7.4274 2.6125,1.02289 5.4395,2.2241 8.2947,3.96999 0.9048,0.53026 1.9496,1.27693 3.0339,2.34914 0.8012,0.52229 1.6124,1.91791 2.1154,4.23587 0.065,2.50786 -0.4509,4.35602 -1.0708,5.43532 -0.7905,1.83317 -1.7247,3.46067 -2.6507,4.92065 -2.3274,3.71074 -4.9498,7.19656 -7.5322,10.61712 -2.4804,3.29838 -4.9894,6.50994 -7.1978,9.82448 -0.8084,1.22932 -1.5301,2.33746 -2.0158,3.3838 0,0 0,0 0,0 -0.2177,0.94898 -0.505,1.02888 -0.3006,0.18809 -0.096,-0.3255 -0.086,-0.42224 -0.1301,-0.42187 0,0 0,0 0,0 0.063,0.15169 0.4883,0.35281 1.1112,0.70844 0.5152,0.26694 1.0846,0.49115 1.7009,0.68678 1.393,0.44214 3.0106,0.7348 4.7552,1.04734 2.542,0.41296 5.1805,0.64699 7.8794,0.85718 0,10e-6 0,10e-6 0,10e-6 1.0385,0.0795 2.1184,0.15337 3.2356,0.24979 0.5554,0.0265 1.4582,0.10275 2.6735,0.36161 7.6488,1.85727 14.8641,4.1386 21.6587,6.57418 6.7947,2.43557 13.1695,5.02432 19.1267,7.56289 5.9572,2.53856 11.4972,5.02681 16.6031,7.33671 5.1059,2.3099 9.7779,4.44225 13.9761,6.33939 2.699,1.21907 4.9947,2.59812 7.0215,3.93346 2.0267,1.33534 3.7839,2.62912 5.3443,3.78746 1.6133,1.17013 2.9955,2.22567 4.2058,3.09454 1.2103,0.86887 2.2467,1.55694 3.1035,2.09994 0.8568,0.54301 1.5319,0.94604 1.984,1.26954 0.4521,0.32349 0.6792,0.57078 0.6342,0.76269 -0.09,0.38382 -1.3021,0.55585 -3.468,0.0839 -1.083,-0.23599 -2.3954,-0.64456 -3.8776,-1.24961 -1.4822,-0.60504 -3.1326,-1.41252 -4.8883,-2.3189 -1.7498,-0.88195 -3.6511,-1.88843 -5.7001,-2.89369 -2.0491,-1.00526 -4.2448,-2.01129 -6.6211,-2.7725 -4.4232,-1.46677 -9.3066,-3.2016 -14.5791,-5.14341 -5.2724,-1.94181 -10.9333,-4.0912 -16.9312,-6.31582 -5.9978,-2.22461 -12.3322,-4.52411 -18.9772,-6.69272 -6.645,-2.16861 -13.6005,-4.20506 -20.8681,-5.8422 -0.055,-0.0388 -0.4681,-0.0299 -1.2201,-0.10932 -1.0003,-0.0751 -2.0498,-0.13536 -3.1475,-0.20919 0,0 0,0 0,0 -2.8032,-0.18478 -5.7225,-0.43225 -8.7328,-0.89984 -1.9606,-0.27508 -4.0881,-0.69277 -6.2937,-1.42793 -0.976,-0.3253 -1.9624,-0.71142 -2.9511,-1.17191 -1.3172,-0.58279 -2.7521,-1.54253 -4.1329,-2.97167 0,0 0,-10e-6 0,-10e-6 -1.3034,-1.37865 -2.1627,-3.22808 -2.4288,-5.40236 0.024,-2.80845 0.6364,-4.6235 1.2744,-5.44094 0,0 0,-10e-6 0,-10e-6 0.8751,-1.76332 1.845,-3.2721 2.7664,-4.59908 2.5351,-3.69538 5.2035,-7.01786 7.7004,-10.19397 2.662,-3.40125 5.2037,-6.5905 7.3303,-9.78999 0.846,-1.28931 1.5878,-2.44806 2.0869,-3.54808 0.2656,-0.93472 0.5752,-1.22356 0.4417,-0.87387 0.3938,1.12998 0.4236,1.51389 0.4099,1.1789 -0.1956,-0.2743 -0.673,-0.60118 -1.3087,-1.06237 -1.9981,-1.37764 -4.3569,-2.47799 -6.8058,-3.60993 -3.8837,-1.77477 -7.7176,-3.3151 -11.4186,-4.72332 -3.7011,-1.40821 -7.2693,-2.68415 -10.6389,-3.89024 -9.1313,-3.26428 -16.7573,-5.85642 -22.3457,-7.87847 -3.1873,-1.15289 -5.7011,-2.11026 -7.4733,-2.86953 -0.9341,-0.39963 -1.6503,-0.74171 -2.155,-1.02854 -0.2623,-0.14834 -0.458,-0.28033 -0.6001,-0.39827 -0.075,-0.0617 -0.129,-0.11901 -0.1706,-0.17294 0,0 0,0 0,0 -0.076,-0.0784 -0.086,-0.15129 -0.094,-0.22509 z"
       id="path6100-6"
       inkscape:path-effect="#path-effect6102-8"
       inkscape:original-d="m 1020.398,526.77737 c 1.5161,-0.15924 66.4522,16.65052 67.1516,24.26161 0.61,6.63824 -21.6988,28.8059 -21.184,34.4077 0.6988,7.60481 21.9373,7.10769 25.0663,7.84075 23.5862,5.52548 48.9775,17.17043 71.3601,25.90366 8.9108,3.47685 16.1971,10.35623 23.4242,12.04924"
       inkscape:connector-curvature="0"
       inkscape:export-xdpi="90"
       inkscape:export-ydpi="90" />
    <path
       style="fill:#f9f9f9;fill-rule:evenodd;stroke:none"
       d="m 1017.6948,567.08183 c 0.046,-0.0585 0.1501,-0.0683 0.2503,-0.058 0,0 0,0 0,0 0.075,0.0124 0.162,0.0434 0.2549,0.0861 0.1785,0.0824 0.3935,0.22502 0.6343,0.41453 0.468,0.369 1.0565,0.94433 1.7451,1.70034 1.3121,1.44122 3.0144,3.57514 5.0318,6.32312 3.5413,4.82407 8.0971,11.56526 13.1886,19.97195 1.8709,3.08485 3.8365,6.403 5.8147,9.98002 1.9783,3.57701 3.9693,7.41299 5.8504,11.54951 1.1734,2.54838 2.3778,5.374 3.225,8.61172 0.2844,1.00944 0.5196,2.27189 0.5576,3.7963 0.2152,0.93182 -0.1677,2.50003 -1.4123,4.51915 -1.6921,1.85218 -3.345,2.82651 -4.5401,3.17449 -1.8406,0.773 -3.6422,1.29815 -5.3217,1.70821 -4.2499,1.0605 -8.5565,1.75433 -12.789,2.42889 -4.0743,0.65723 -8.109,1.23206 -11.9985,2.08956 -1.4349,0.32541 -2.7232,0.62363 -3.7987,1.04087 0,0 0,0 0,0 -0.8148,0.53294 -1.0773,0.39131 -0.3471,-0.0729 0.1564,-0.30125 0.2305,-0.3642 0.1988,-0.39418 0,0 0,0 0,0 -0.06,0.15318 0.1072,0.59274 0.3096,1.28094 0.1862,0.54956 0.4411,1.10587 0.7496,1.67416 0.6972,1.28437 1.6601,2.61682 2.7006,4.05158 1.5456,2.06001 3.2847,4.05796 5.0839,6.08061 0,0 0,10e-6 0,10e-6 0.6933,0.77735 1.4202,1.57923 2.1585,2.42334 0.3819,0.40408 0.9796,1.08496 1.6759,2.11411 4.2243,6.64143 7.8422,13.28787 11.0501,19.75387 3.2079,6.466 6.007,12.75128 8.5399,18.71086 2.5329,5.95957 4.8001,11.59363 6.8781,16.79824 2.078,5.2046 3.9664,9.98038 5.6765,14.25823 1.0998,2.74975 1.798,5.3352 2.3328,7.70269 0.5348,2.36748 0.904,4.51808 1.2255,6.43471 0.3513,1.96173 0.6156,3.68072 0.8853,5.14595 0.2698,1.46523 0.5396,2.67966 0.7806,3.665 0.4819,1.97067 0.8087,3.06546 0.4778,3.27972 -0.1655,0.10713 -0.485,-0.0187 -0.9294,-0.40058 -0.4445,-0.38189 -1.0111,-1.02251 -1.6279,-1.94341 -0.6168,-0.92089 -1.2793,-2.12524 -1.928,-3.58888 -0.6486,-1.46364 -1.2781,-3.18978 -1.9149,-5.06022 -0.6495,-1.84873 -1.3219,-3.89223 -2.1015,-6.03728 -0.7797,-2.14506 -1.6645,-4.39237 -2.8493,-6.58846 -2.1705,-4.12366 -4.4869,-8.7596 -6.9401,-13.81439 -2.4532,-5.05479 -5.0425,-10.52853 -7.8224,-16.29004 -2.7799,-5.76151 -5.7504,-11.81037 -9.0355,-17.98021 -3.2851,-6.16983 -6.8856,-12.45973 -10.9878,-18.67818 -0.013,-0.0661 -0.3166,-0.34609 -0.8034,-0.92469 -0.6688,-0.7477 -1.3834,-1.51869 -2.1232,-2.33298 0,0 0,0 -10e-5,-1e-5 -1.8919,-2.07659 -3.8241,-4.27893 -5.6692,-6.703 -1.2222,-1.55756 -2.4658,-3.33361 -3.5455,-5.39259 -0.4778,-0.91103 -0.921,-1.8732 -1.3142,-2.89048 -0.5451,-1.33318 -0.9138,-3.01967 -0.918,-5.00688 0,-10e-6 0,-10e-6 0,-2e-5 0.017,-1.89713 0.6796,-3.8257 1.9953,-5.57704 1.9641,-2.00751 3.6642,-2.89061 4.6906,-3.03741 0,0 0,-10e-6 0,-10e-6 1.8532,-0.66396 3.5982,-1.07878 5.1822,-1.39625 4.389,-0.90538 8.6155,-1.44963 12.6169,-2.00729 4.2764,-0.60551 8.3193,-1.14158 12.07,-1.97281 1.5036,-0.34258 2.8415,-0.66331 3.9639,-1.10998 0.8394,-0.48948 1.2628,-0.48296 0.9241,-0.32353 -0.4996,1.08733 -0.7443,1.38468 -0.5219,1.13375 0.049,-0.33329 -0.068,-0.89984 -0.2066,-1.67293 -0.4847,-2.37806 -1.4217,-4.80641 -2.4017,-7.32002 -1.5682,-3.97155 -3.2631,-7.73966 -4.9539,-11.32047 -1.6908,-3.58081 -3.3775,-6.97416 -4.9696,-10.17954 -4.3172,-8.68322 -8.0156,-15.83841 -10.6409,-21.17009 -1.4975,-3.04061 -2.6453,-5.47335 -3.396,-7.24925 -0.3961,-0.9356 -0.675,-1.67861 -0.8399,-2.23529 -0.086,-0.28873 -0.1356,-0.5195 -0.1562,-0.70304 -0.011,-0.0965 -0.01,-0.17518 -0,-0.24293 0,0 0,0 0,0 -2e-4,-0.10888 0.043,-0.16873 0.088,-0.22728 z"
       id="path6100-8"
       inkscape:path-effect="#path-effect6102-9"
       inkscape:original-d="m 1017.6948,567.08183 c 1.2029,0.93638 36.3437,58.0712 31.5709,64.04091 -4.1628,5.20667 -35.6085,5.71447 -39.1214,10.10821 -4.7689,5.96481 10.881,20.3315 12.6276,23.02912 13.1662,20.33455 23.3905,46.3304 33.4652,68.14202 4.011,8.68356 4.4922,18.6928 8.5265,24.92345"
       inkscape:connector-curvature="0"
       inkscape:export-filename="C:\Users\Rui\Desktop\TrabalhosGit\Flybeat\flybeat\reports\Meta 3\Packaging\path6100-62.png"
       inkscape:export-xdpi="90"
       inkscape:export-ydpi="90" />
    <path
       style="fill:#f9f9f9;fill-rule:evenodd;stroke:none"
       d="m 1026.114,444.84628 c -0.037,0.006 -0.075,0.001 -0.1139,-0.022 -0.038,-0.0233 -0.076,-0.0674 -0.1094,-0.10515 0,0 0,0 0,0 -0.047,-0.0598 -0.09,-0.1417 -0.1289,-0.23615 -0.075,-0.18156 -0.1365,-0.43219 -0.185,-0.7348 -0.094,-0.58858 -0.1359,-1.41046 -0.1291,-2.43304 0.013,-1.949 0.2095,-4.67171 0.5909,-8.05927 0.6694,-5.94683 1.8936,-13.9905 3.8538,-23.62134 0.7174,-3.5358 1.5235,-7.30728 2.4958,-11.27754 0.9724,-3.97026 2.111,-8.13947 3.5342,-12.45501 0.8661,-2.66854 1.8974,-5.56181 3.4708,-8.51561 0.4757,-0.93468 1.159,-2.02194 2.165,-3.16793 0.4739,-0.83072 1.8189,-1.72338 4.1029,-2.36296 2.4996,-0.21348 4.3751,0.19163 5.4893,0.74642 1.8768,0.68033 3.5569,1.5163 5.0692,2.35411 3.8423,2.10309 7.4776,4.51408 11.0453,6.88898 3.4398,2.28033 6.7945,4.59438 10.2342,6.60217 1.2752,0.73405 2.4242,1.38871 3.4975,1.81154 0,0 0,0 0,0 0.9602,0.16098 1.057,0.44306 0.2056,0.28893 -0.3192,0.1153 -0.4164,0.11128 -0.4134,0.1548 0,0 0,0 0,0 0.1477,-0.0722 0.3232,-0.50829 0.6413,-1.15126 0.2359,-0.53015 0.4259,-1.11182 0.5846,-1.73869 0.3587,-1.41671 0.5549,-3.04886 0.7634,-4.80887 0.2614,-2.56203 0.3384,-5.20975 0.3881,-7.91636 0,-1e-5 0,-1e-5 0,-1e-5 0.018,-1.04144 0.027,-2.12376 0.057,-3.24478 -0.01,-0.55592 0.016,-1.46164 0.2023,-2.69017 1.4002,-7.74555 3.2494,-15.08345 5.2775,-22.01068 2.0282,-6.92722 4.2341,-13.4444 6.4148,-19.5417 2.1806,-6.09731 4.3358,-11.77517 6.3387,-17.00914 2.0029,-5.23397 3.8543,-10.0242 5.499,-14.32761 1.0568,-2.76655 2.2972,-5.14007 3.5099,-7.2425 1.2128,-2.10243 2.4,-3.93324 3.4637,-5.55968 1.0724,-1.67984 2.044,-3.12228 2.8396,-4.38197 0.7955,-1.25969 1.4209,-2.33513 1.9121,-3.22263 0.4912,-0.88751 0.8535,-1.58536 1.1496,-2.05583 0.2961,-0.47047 0.5295,-0.71181 0.7237,-0.67832 0.1942,0.0335 0.3437,0.34265 0.4113,0.92473 0.068,0.58209 0.05,1.43715 -0.1219,2.5322 -0.1713,1.09505 -0.5013,2.42939 -1.0173,3.94487 -0.516,1.51547 -1.2242,3.21087 -2.0248,5.0173 -0.7766,1.79904 -1.6685,3.7567 -2.5504,5.86178 -0.8819,2.10507 -1.7558,4.35662 -2.3747,6.77393 -1.2018,4.5024 -2.6438,9.48017 -4.2694,14.85853 -1.6256,5.37835 -3.4353,11.15684 -5.3001,17.2761 -1.8649,6.11925 -3.7845,12.57898 -5.555,19.34093 -1.7705,6.76195 -3.3907,13.82605 -4.5937,21.17789 -0.035,0.0573 -0,0.4691 -0.037,1.22447 -0.016,1.00304 -0.014,2.05421 -0.022,3.15442 0,0 0,0 0,1e-5 -0.018,2.80913 -0.092,5.73801 -0.3801,8.77077 -0.1583,1.97347 -0.449,4.122 -1.052,6.36732 -0.2668,0.99353 -0.5938,2.00119 -0.9948,3.01546 -0.5036,1.34942 -1.3765,2.83877 -2.7212,4.30193 0,1e-5 0,1e-5 0,2e-5 -1.2989,1.38283 -3.0941,2.35039 -5.2488,2.74498 -2.8049,0.14311 -4.6531,-0.36097 -5.5069,-0.94927 -10e-5,0 -10e-5,-1e-5 -10e-5,-1e-5 -1.8121,-0.76897 -3.3758,-1.64765 -4.7551,-2.48867 -3.8392,-2.3114 -7.3142,-4.77798 -10.6328,-7.08206 -3.5532,-2.45543 -6.8877,-4.80346 -10.2077,-6.73652 -1.3372,-0.768 -2.5379,-1.43975 -3.6656,-1.87272 -0.9488,-0.20963 -1.2555,-0.50158 -0.8985,-0.38904 1.1046,-0.46012 1.486,-0.51269 1.1525,-0.4791 -0.2623,0.21153 -0.5602,0.70748 -0.9829,1.36941 -1.2567,2.07629 -2.2151,4.49622 -3.1998,7.00802 -1.5412,3.9821 -2.8513,7.90063 -4.0375,11.67873 -1.1861,3.7781 -2.2481,7.41569 -3.2521,10.85097 -2.7168,9.30888 -4.8519,17.07523 -6.5388,22.77375 -0.9618,3.25008 -1.7683,5.81623 -2.4211,7.63041 -0.3435,0.95616 -0.6424,1.69132 -0.8988,2.21223 -0.1325,0.2706 -0.2527,0.47375 -0.362,0.62263 -0.057,0.0785 -0.1111,0.1358 -0.1625,0.1806 0,0 0,0 0,0 -0.074,0.0801 -0.1459,0.0949 -0.2191,0.10706 z"
       id="path6100-62"
       inkscape:path-effect="#path-effect6102-6"
       inkscape:original-d="m 1026.114,444.84628 c -0.249,-1.50397 12.6784,-67.32303 20.2346,-68.47276 6.5903,-1.00278 30.0425,19.95143 35.6039,19.10522 7.55,-1.14881 5.7936,-22.32037 6.3397,-25.48735 4.1163,-23.87256 14.2342,-49.91002 21.6241,-72.7713 2.942,-9.10145 9.3769,-16.78311 10.6382,-24.09787"
       inkscape:connector-curvature="0"
       inkscape:export-xdpi="90"
       inkscape:export-ydpi="90" />
    <path
       style="fill:#f9f9f9;fill-opacity:1;fill-rule:nonzero;stroke:#f9f9f9;stroke-width:1.48496187;stroke-linejoin:round;stroke-miterlimit:10;stroke-opacity:1;stroke-dasharray:none"
       d="m 792.33174,580.1063 c -38.62835,-5.52873 -50.05392,-7.27474 -51.85367,-7.92407 -1.40881,-0.50827 -1.85304,-12.28439 -1.82995,-48.51054 0.0314,-49.37684 -1.77139,-77.52925 -6.70578,-104.71406 -1.50932,-8.31523 -2.54891,-15.33759 -2.31019,-15.60524 1.20734,-1.35365 33.19797,-4.67881 52.74504,-5.4824 l 22.20631,-0.91292 0.41002,22.15924 c 0.54894,29.66797 4.67773,135.58805 5.90111,151.38729 0.53654,6.92936 0.71437,12.51653 0.39514,12.41593 -0.31922,-0.1006 -8.85033,-1.36654 -18.95803,-2.81323 z"
       id="path6155"
       inkscape:connector-curvature="0"
       inkscape:export-filename="C:\Users\Rui\Desktop\TrabalhosGit\Flybeat\flybeat\reports\Meta 3\Packaging\Speaker.png"
       inkscape:export-xdpi="90"
       inkscape:export-ydpi="90" />
  </g>
</svg>
