<?xml version="1.0" encoding="UTF-8" standalone="no"?>
<!-- Created with Inkscape (http://www.inkscape.org/) -->

<svg
   xmlns:dc="http://purl.org/dc/elements/1.1/"
   xmlns:cc="http://creativecommons.org/ns#"
   xmlns:rdf="http://www.w3.org/1999/02/22-rdf-syntax-ns#"
   xmlns:svg="http://www.w3.org/2000/svg"
   xmlns="http://www.w3.org/2000/svg"
   xmlns:sodipodi="http://sodipodi.sourceforge.net/DTD/sodipodi-0.dtd"
   xmlns:inkscape="http://www.inkscape.org/namespaces/inkscape"
   width="744.09448819"
   height="1052.3622047"
   id="svg2"
   version="1.1"
   inkscape:version="0.48.4 r9939"
   sodipodi:docname="skull2.svg">
  <defs
     id="defs4">
    <inkscape:path-effect
       effect="skeletal"
       id="path-effect3049"
       is_visible="true"
       pattern="m -6.0714285,9.2857143 c 0,-2.76 2.24,-5 5,-5 2.76,0 5,2.24 5,5 0,2.7599997 -2.24,4.9999997 -5,4.9999997 -2.76,0 -5,-2.24 -5,-4.9999997 z"
       copytype="single_stretched"
       prop_scale="1"
       scale_y_rel="false"
       spacing="0"
       normal_offset="0"
       tang_offset="0"
       prop_units="false"
       vertical_pattern="false"
       fuse_tolerance="0" />
    <inkscape:path-effect
       effect="skeletal"
       id="path-effect4209"
       is_visible="true"
       pattern="M 0,5 C 0,2.24 2.24,0 5,0 7.76,0 10,2.24 10,5 10,7.76 7.76,10 5,10 2.24,10 0,7.76 0,5 z"
       copytype="single_stretched"
       prop_scale="1"
       scale_y_rel="false"
       spacing="0"
       normal_offset="0"
       tang_offset="0"
       prop_units="false"
       vertical_pattern="false"
       fuse_tolerance="0" />
    <inkscape:path-effect
       effect="skeletal"
       id="path-effect4060"
       is_visible="true"
       pattern="m 48.284271,-217.85714 c 0,-2.76 2.24,-5 5,-5 2.76,0 5,2.24 5,5 0,2.76 -2.24,5 -5,5 -2.76,0 -5,-2.24 -5,-5 z"
       copytype="single_stretched"
       prop_scale="1"
       scale_y_rel="false"
       spacing="0"
       normal_offset="0"
       tang_offset="0"
       prop_units="false"
       vertical_pattern="false"
       fuse_tolerance="0" />
    <inkscape:path-effect
       effect="skeletal"
       id="path-effect3978"
       is_visible="true"
       pattern="m 11.428571,-227.85714 c 0,-2.76 2.24,-5 5,-5 2.76,0 5,2.24 5,5 0,2.76 -2.24,5 -5,5 -2.76,0 -5,-2.24 -5,-5 z"
       copytype="single_stretched"
       prop_scale="1"
       scale_y_rel="false"
       spacing="0"
       normal_offset="0"
       tang_offset="0"
       prop_units="false"
       vertical_pattern="false"
       fuse_tolerance="0" />
    <inkscape:path-effect
       effect="skeletal"
       id="path-effect3970"
       is_visible="true"
       pattern="m 11.428571,-227.85714 c 0,-2.76 2.24,-5 5,-5 2.76,0 5,2.24 5,5 0,2.76 -2.24,5 -5,5 -2.76,0 -5,-2.24 -5,-5 z"
       copytype="single_stretched"
       prop_scale="1"
       scale_y_rel="false"
       spacing="0"
       normal_offset="0"
       tang_offset="0"
       prop_units="false"
       vertical_pattern="false"
       fuse_tolerance="0" />
    <inkscape:path-effect
       effect="skeletal"
       id="path-effect3184"
       is_visible="true"
       pattern="m 11.428571,-227.85714 c 0,-2.76 2.24,-5 5,-5 2.76,0 5,2.24 5,5 0,2.76 -2.24,5 -5,5 -2.76,0 -5,-2.24 -5,-5 z"
       copytype="single_stretched"
       prop_scale="1"
       scale_y_rel="false"
       spacing="0"
       normal_offset="0"
       tang_offset="0"
       prop_units="false"
       vertical_pattern="false"
       fuse_tolerance="0" />
    <inkscape:path-effect
       effect="skeletal"
       id="path-effect3139"
       is_visible="true"
       pattern="m 27.142857,-232.14286 c 0,-2.76 2.24,-5 5,-5 2.76,0 5,2.24 5,5 0,2.76 -2.24,5 -5,5 -2.76,0 -5,-2.24 -5,-5 z"
       copytype="single_stretched"
       prop_scale="1"
       scale_y_rel="false"
       spacing="0"
       normal_offset="0"
       tang_offset="0"
       prop_units="false"
       vertical_pattern="false"
       fuse_tolerance="0" />
    <inkscape:path-effect
       effect="skeletal"
       id="path-effect3123"
       is_visible="true"
       pattern="m 11.428571,-227.85714 c 0,-2.76 2.24,-5 5,-5 2.76,0 5,2.24 5,5 0,2.76 -2.24,5 -5,5 -2.76,0 -5,-2.24 -5,-5 z"
       copytype="single_stretched"
       prop_scale="1"
       scale_y_rel="false"
       spacing="0"
       normal_offset="0"
       tang_offset="0"
       prop_units="false"
       vertical_pattern="false"
       fuse_tolerance="0" />
    <inkscape:path-effect
       effect="skeletal"
       id="path-effect3119"
       is_visible="true"
       pattern="m 11.428571,-227.85714 c 0,-2.76 2.24,-5 5,-5 2.76,0 5,2.24 5,5 0,2.76 -2.24,5 -5,5 -2.76,0 -5,-2.24 -5,-5 z"
       copytype="single_stretched"
       prop_scale="1"
       scale_y_rel="false"
       spacing="0"
       normal_offset="0"
       tang_offset="0"
       prop_units="false"
       vertical_pattern="false"
       fuse_tolerance="0" />
    <inkscape:path-effect
       effect="skeletal"
       id="path-effect3139-1"
       is_visible="true"
       pattern="m -74.568563,-230.51964 c 0,-2.76 2.24,-5 5,-5 2.76,0 5,2.24 5,5 0,2.76 -2.24,5 -5,5 -2.76,0 -5,-2.24 -5,-5 z"
       copytype="single_stretched"
       prop_scale="1"
       scale_y_rel="false"
       spacing="0"
       normal_offset="0"
       tang_offset="0"
       prop_units="false"
       vertical_pattern="false"
       fuse_tolerance="0" />
    <inkscape:path-effect
       effect="skeletal"
       id="path-effect4060-8"
       is_visible="true"
       pattern="m 89.854305,307.70722 c 0,-2.76 2.24,-5 5,-5 2.76,0 5,2.24 5,5 0,2.76 -2.24,5 -5,5 -2.76,0 -5,-2.24 -5,-5 z"
       copytype="single_stretched"
       prop_scale="1"
       scale_y_rel="false"
       spacing="0"
       normal_offset="0"
       tang_offset="0"
       prop_units="false"
       vertical_pattern="false"
       fuse_tolerance="0" />
    <inkscape:path-effect
       effect="skeletal"
       id="path-effect3978-8"
       is_visible="true"
       pattern="m 52.998605,297.70722 c 0,-2.76 2.24,-5 5,-5 2.76,0 5,2.24 5,5 0,2.76 -2.24,5 -5,5 -2.76,0 -5,-2.24 -5,-5 z"
       copytype="single_stretched"
       prop_scale="1"
       scale_y_rel="false"
       spacing="0"
       normal_offset="0"
       tang_offset="0"
       prop_units="false"
       vertical_pattern="false"
       fuse_tolerance="0" />
    <inkscape:path-effect
       effect="skeletal"
       id="path-effect3970-2"
       is_visible="true"
       pattern="m 52.998605,297.70722 c 0,-2.76 2.24,-5 5,-5 2.76,0 5,2.24 5,5 0,2.76 -2.24,5 -5,5 -2.76,0 -5,-2.24 -5,-5 z"
       copytype="single_stretched"
       prop_scale="1"
       scale_y_rel="false"
       spacing="0"
       normal_offset="0"
       tang_offset="0"
       prop_units="false"
       vertical_pattern="false"
       fuse_tolerance="0" />
    <inkscape:path-effect
       effect="skeletal"
       id="path-effect3184-4"
       is_visible="true"
       pattern="m 68.712891,-120.86421 c 0,-2.76 2.24,-5 5,-5 2.76,0 5,2.24 5,5 0,2.76 -2.24,5 -5,5 -2.76,0 -5,-2.24 -5,-5 z"
       copytype="single_stretched"
       prop_scale="1"
       scale_y_rel="false"
       spacing="0"
       normal_offset="0"
       tang_offset="0"
       prop_units="false"
       vertical_pattern="false"
       fuse_tolerance="0" />
    <inkscape:path-effect
       effect="skeletal"
       id="path-effect3139-1-5"
       is_visible="true"
       pattern="m -17.284239,-123.52671 c 0,-2.76 2.24,-5 5,-5 2.7599996,0 4.9999996,2.24 4.9999996,5 0,2.76 -2.24,5 -4.9999996,5 -2.76,0 -5,-2.24 -5,-5 z"
       copytype="single_stretched"
       prop_scale="1"
       scale_y_rel="false"
       spacing="0"
       normal_offset="0"
       tang_offset="0"
       prop_units="false"
       vertical_pattern="false"
       fuse_tolerance="0" />
    <inkscape:path-effect
       effect="skeletal"
       id="path-effect3139-5"
       is_visible="true"
       pattern="m 84.427181,-125.14992 c 0,-2.76 2.24,-5 5,-5 2.76,0 5,2.24 5,5 0,2.76 -2.24,5 -5,5 -2.76,0 -5,-2.24 -5,-5 z"
       copytype="single_stretched"
       prop_scale="1"
       scale_y_rel="false"
       spacing="0"
       normal_offset="0"
       tang_offset="0"
       prop_units="false"
       vertical_pattern="false"
       fuse_tolerance="0" />
    <inkscape:path-effect
       effect="skeletal"
       id="path-effect3123-1"
       is_visible="true"
       pattern="m 68.712891,-120.86421 c 0,-2.76 2.24,-5 5,-5 2.76,0 5,2.24 5,5 0,2.76 -2.24,5 -5,5 -2.76,0 -5,-2.24 -5,-5 z"
       copytype="single_stretched"
       prop_scale="1"
       scale_y_rel="false"
       spacing="0"
       normal_offset="0"
       tang_offset="0"
       prop_units="false"
       vertical_pattern="false"
       fuse_tolerance="0" />
    <inkscape:path-effect
       effect="skeletal"
       id="path-effect3119-7"
       is_visible="true"
       pattern="m 68.712891,-120.86421 c 0,-2.76 2.24,-5 5,-5 2.76,0 5,2.24 5,5 0,2.76 -2.24,5 -5,5 -2.76,0 -5,-2.24 -5,-5 z"
       copytype="single_stretched"
       prop_scale="1"
       scale_y_rel="false"
       spacing="0"
       normal_offset="0"
       tang_offset="0"
       prop_units="false"
       vertical_pattern="false"
       fuse_tolerance="0" />
    <inkscape:path-effect
       effect="skeletal"
       id="path-effect3049-1"
       is_visible="true"
       pattern="m -637.26265,-120.24961 c 0,-2.76 2.24,-5 5,-5 2.76,0 5,2.24 5,5 0,2.76 -2.24,5 -5,5 -2.76,0 -5,-2.24 -5,-5 z"
       copytype="single_stretched"
       prop_scale="1"
       scale_y_rel="false"
       spacing="0"
       normal_offset="0"
       tang_offset="0"
       prop_units="false"
       vertical_pattern="false"
       fuse_tolerance="0" />
    <inkscape:path-effect
       effect="skeletal"
       id="path-effect3049-1-4"
       is_visible="true"
       pattern="m -27.352426,-238.58638 c 0,-2.76 2.24,-5 5,-5 2.76,0 5,2.24 5,5 0,2.76 -2.24,5 -5,5 -2.76,0 -5,-2.24 -5,-5 z"
       copytype="single_stretched"
       prop_scale="1"
       scale_y_rel="false"
       spacing="0"
       normal_offset="0"
       tang_offset="0"
       prop_units="false"
       vertical_pattern="false"
       fuse_tolerance="0" />
    <inkscape:path-effect
       effect="skeletal"
       id="path-effect3049-1-4-9"
       is_visible="true"
       pattern="m 15.398422,65.870526 c 0,-2.76 2.24,-5 5,-5 2.76,0 5,2.24 5,5 0,2.76 -2.24,5 -5,5 -2.76,0 -5,-2.24 -5,-5 z"
       copytype="single_stretched"
       prop_scale="1"
       scale_y_rel="false"
       spacing="0"
       normal_offset="0"
       tang_offset="0"
       prop_units="false"
       vertical_pattern="false"
       fuse_tolerance="0" />
  </defs>
  <sodipodi:namedview
     id="base"
     pagecolor="#000000"
     bordercolor="#666666"
     borderopacity="1.0"
     inkscape:pageopacity="0.51764706"
     inkscape:pageshadow="2"
     inkscape:zoom="0.9899495"
     inkscape:cx="475.44712"
     inkscape:cy="552.42577"
     inkscape:document-units="px"
     inkscape:current-layer="layer1"
     showgrid="false"
     inkscape:window-width="1920"
     inkscape:window-height="1003"
     inkscape:window-x="-9"
     inkscape:window-y="-9"
     inkscape:window-maximized="1" />
  <metadata
     id="metadata7">
    <rdf:RDF>
      <cc:Work
         rdf:about="">
        <dc:format>image/svg+xml</dc:format>
        <dc:type
           rdf:resource="http://purl.org/dc/dcmitype/StillImage" />
        <dc:title></dc:title>
      </cc:Work>
    </rdf:RDF>
  </metadata>
  <g
     inkscape:groupmode="layer"
     id="layer2"
     inkscape:label="Layer" />
  <g
     inkscape:groupmode="layer"
     id="layer3"
     inkscape:label="Layer#1">
    <path
       style="fill:#000000;fill-opacity:1;fill-rule:evenodd;stroke:#000000;stroke-width:3.17114377;stroke-miterlimit:4;stroke-dasharray:none"
       d="m 227.41421,633.57593 c 21.63586,-5.45507 42.78846,-20.38854 61.96413,-43.74589 12.50688,-15.23429 95.75863,-158.35451 122.90443,-203.74794 28.93088,-48.3784 74.7245,-119.71758 76.94132,-119.86229 1.1761,-0.0768 22.26682,31.19665 26.47731,39.19726 8.44865,16.05384 13.65353,32.72386 14.56982,46.66382 2.47521,37.65681 -9.31749,73.32584 -34.00904,102.86567 -12.29371,14.70763 -32.2438,23.26405 -51.236,34.72037 l -6.1522,2.28251 8.83205,-0.84478 c 20.86638,-1.99585 44.29631,-11.13472 58.69782,-22.89507 31.73688,-25.91648 50.63098,-68.84667 52.39208,-115.64497 0.38784,-10.30577 -5.94796,-31.15095 -8.55292,-38.75391 -7.80013,-22.766 -33.32897,-67.12942 -58.28133,-87.18074 l -6.8536,-5.50746 -1.3094,2.06696 c -1.38786,2.19094 -2.83193,5.09951 -15.44045,31.09903 -23.36803,48.18628 -33.82003,69.36314 -39.17015,79.36294 -29.53414,55.20138 -114.32393,191.01697 -141.40892,201.81285 -7.06282,2.81519 -11.38556,3.75632 -19.94295,4.34188 -8.0572,0.55138 -15.28549,-0.47833 -22.298,-3.17633 -6.6148,-2.54501 -32.01076,-7.05327 -45.07297,-8.0013 -12.18807,-0.8846 -28.04894,1.00438 -36.26212,4.31871 -9.61624,3.88048 -17.43906,11.17141 -20.87898,19.45939 -5.57092,13.42218 -2.86435,31.50851 7.09979,47.44375 6.08335,9.7289 14.46086,18.25572 23.96293,24.39013 6.75472,4.36076 18.66769,9.11499 25.95514,10.35818 7.17375,1.2238 20.0984,0.7355 27.07216,-1.02279 l 0,0 z"
       id="path3970-82-5-1"
       inkscape:connector-curvature="0"
       sodipodi:nodetypes="cssssssscsssssccsssssssssssccc" />
  </g>
  <g
     inkscape:label="Layer 1"
     inkscape:groupmode="layer"
     id="layer1">
    <path
       style="fill:#000000;fill-rule:evenodd;stroke:none"
       d="m 424.73816,495.86114 c 0.18798,0.18798 -0.13267,0.92116 -1.113,2.06752 -0.98034,1.14635 -2.64197,2.70725 -5.1875,4.23795 -2.0953,0.78722 -4.482,2.05711 -6.77653,4.06406 -2.29453,2.00695 -4.50802,4.76511 -5.89191,8.22313 -1.12318,2.47852 -2.01238,5.26592 -2.65415,8.32586 -0.64178,3.05994 -1.03533,6.39322 -1.2333,9.90442 -11.76479,-0.40025 -25.57037,-0.45854 -41.01495,-0.22083 -15.44459,0.23771 -32.53007,0.7726 -50.76532,1.05631 -3.81611,-7.20886 -6.2117,-14.75989 -8.78439,-21.88223 -1.41955,-5.72152 -2.54215,-11.21738 -5.50641,-14.78948 -0.89624,-0.31057 -1.84169,-0.56541 -2.83057,-0.78469 -2.80155,-0.62121 -5.91296,-0.95236 -9.1757,-1.4624 -2.25675,-0.42902 -4.62879,-0.91124 -7.06121,-1.61199 -1e-5,0 -1e-5,0 -2e-5,-10e-6 -2.21267,-0.90742 -4.74983,-2.16044 -7.3278,-4.09437 -4.09576,-11.89315 -6.73626,-23.78039 -8.36933,-35.19556 -0.84229,-6.80992 -1.30066,-13.51761 -1.33604,-20.02774 -0.0354,-6.51013 0.3522,-12.82255 1.15553,-18.85998 0.87676,-6.75483 2.35183,-13.23424 4.42537,-19.1432 2.07354,-5.90896 4.74398,-11.24826 7.88165,-15.87914 3.70614,-5.43629 8.0816,-9.74165 12.51524,-12.90654 3.15953,-2.23029 6.30407,-3.8831 9.25057,-5.12272 2.9465,-1.23962 5.69639,-2.06656 8.14271,-2.62519 8.30809,-0.84557 12.87942,-0.99148 12.99033,-0.34357 0.11091,0.64791 -4.23834,2.02909 -12.14005,3.95843 -2.17931,0.83428 -4.5872,1.89313 -7.10495,3.2862 -2.51774,1.39308 -5.14677,3.12076 -7.69729,5.30156 -3.67894,3.1022 -7.23952,7.16709 -10.21702,12.13788 -2.56414,4.24739 -4.68057,9.1324 -6.28458,14.5708 -1.60401,5.43841 -2.69465,11.4315 -3.34193,17.74727 -0.56015,5.65609 -0.73758,11.57667 -0.53531,17.70825 0.20228,6.13157 0.78424,12.47415 1.69794,18.95551 1.21357,10.13141 3.2378,20.5383 6.5329,30.81772 0.34176,0.12747 1.26737,0.0591 2.51979,0.15081 0,0 0,10e-6 1e-5,10e-6 1.8915,0.54607 3.96432,0.94647 6.17434,1.36966 3.58276,0.796 7.45325,1.55858 11.46983,2.76095 1.41775,0.4244 2.84673,0.90202 4.27993,1.45257 5.16616,6.443 7.58472,13.65337 9.46127,20.01963 1.13406,6.47139 1.77585,12.53668 3.62287,17.6121 16.16244,0.31099 31.50934,0.41618 45.67522,0.7993 14.16587,0.38312 27.14888,1.04269 38.52633,1.99152 -0.41566,-3.15059 -0.44552,-6.24938 -0.0839,-9.15261 0.36165,-2.90323 1.11389,-5.61155 2.20108,-8.04712 2.06118,-4.20103 5.0383,-7.24321 8.01539,-9.29174 2.9771,-2.04854 5.9649,-3.11808 8.50785,-3.607 2.35898,-0.92157 4.10182,-1.93009 5.30625,-2.61549 1.20443,-0.6854 1.89275,-1.0438 2.08073,-0.85582 z"
       id="path3117-1"
       inkscape:path-effect="#path-effect3119-7"
       inkscape:original-d="m 424.73816,495.86114 c -1.8887,1.88871 -4.41279,3.67291 -6.84374,4.88839 -15.09909,4.15428 -17.95709,19.3243 -17.59817,30.30797 -29.94881,-1.74587 -60.30051,-0.95571 -87.99091,-0.97767 -5.57534,-12.09386 -6.40518,-28.18134 -13.68747,-37.15172 -8.05775,-2.9787 -20.4771,-3.3542 -25.4196,-6.84373 -12.29506,-36.88517 -19.46809,-110.15363 30.30797,-125.14263 l 12.56519,-2.151"
       inkscape:connector-curvature="0"
       sodipodi:nodetypes="cccccccc"
       inkscape:export-filename="C:\Users\Rui\Desktop\TrabalhosGit\Flybeat\flybeat\reports\Meta 3\Packaging\skull1.png"
       inkscape:export-xdpi="52.893532"
       inkscape:export-ydpi="52.893532" />
    <path
       style="fill:#000000;fill-rule:evenodd;stroke:none"
       d="m 308.39463,359.96407 c -0.15972,-0.47711 1.46166,-1.55892 4.71327,-3.0261 3.25162,-1.46719 8.1439,-3.32183 14.54273,-5.0504 6.39884,-1.72857 14.31471,-3.33216 23.46696,-3.97098 9.15225,-0.63881 19.5463,-0.30693 30.63211,2.12914 8.27101,1.84127 16.79373,5.00983 24.90357,9.69442 8.10983,4.6846 15.80097,10.88631 22.25582,18.60172 0.94862,1.13387 1.86323,2.29158 2.74256,3.47152 6.44073,8.73914 10.81933,18.37606 13.47806,27.96546 2.65872,9.58941 3.60206,19.12478 3.32189,27.92896 -0.33297,10.23867 -2.17112,19.446 -4.5719,27.34596 -2.40078,7.89995 -5.3598,14.49869 -8.1454,19.72297 -2.78561,5.22427 -5.39707,9.08378 -7.34957,11.58676 -1.9525,2.50298 -3.24526,3.65917 -3.64657,3.40835 -0.40131,-0.25082 0.11214,-1.89139 1.28027,-4.77837 1.16812,-2.88699 2.98923,-7.03065 4.99377,-12.36003 2.00455,-5.32939 4.19259,-11.85292 5.89227,-19.42794 1.69969,-7.57501 2.90864,-16.20522 2.76725,-25.58344 -0.11578,-8.02782 -1.2541,-16.62567 -3.80917,-25.18023 -2.55508,-8.55456 -6.52826,-17.05945 -12.23355,-24.66763 -0.76357,-1.03122 -1.5591,-2.04456 -2.38545,-3.0388 -5.62295,-6.76527 -12.37763,-12.29108 -19.53612,-16.57947 -7.1585,-4.28839 -14.71591,-7.33841 -22.09309,-9.28219 -9.98061,-2.65956 -19.57936,-3.45048 -28.21215,-3.41792 -8.63278,0.0326 -16.30093,0.8857 -22.63746,1.80011 -6.33653,0.9144 -11.34973,1.89257 -14.81539,2.46001 -3.46567,0.56744 -5.39499,0.72523 -5.55471,0.24812 z"
       id="path3121-1"
       inkscape:path-effect="#path-effect3123-1"
       inkscape:original-d="m 308.39463,359.96407 c 110.95463,-37.14306 168.25271,56.75308 116.34353,139.80778"
       inkscape:connector-curvature="0"
       inkscape:export-filename="C:\Users\Rui\Desktop\TrabalhosGit\Flybeat\flybeat\reports\Meta 3\Packaging\skull1.png"
       inkscape:export-xdpi="52.893532"
       inkscape:export-ydpi="52.893532" />
    <path
       style="fill:#000000;fill-rule:evenodd;stroke:none"
       d="m 392.47483,419.60236 c 0.26289,0.48124 -0.55061,1.5112 -2.20495,3.04011 -1.65433,1.52891 -4.16168,3.54719 -7.07211,6.19698 -1.27205,1.20008 -2.65254,2.45537 -3.89515,3.79282 -1.24261,1.33746 -2.34855,2.75552 -2.90228,4.35244 -0.58288,1.33865 -0.85306,2.89378 -0.80849,4.55641 0.0446,1.66262 0.40372,3.43295 1.04424,5.12284 0,0 0,0 0,0 1.25705,3.2689 3.65629,6.40849 6.768,8.97878 2.83901,2.2223 6.11985,4.02036 9.40782,4.26658 0.47358,0.056 0.95899,0.0713 1.44894,0.0477 2.4205,-0.11673 4.84376,-1.17091 6.45527,-2.78307 0.55233,-0.36986 1.00272,-1.49782 1.69411,-2.91641 0.82562,-1.93054 1.40875,-4.03438 1.90833,-6.19185 1.24917,-5.54387 1.6962,-10.84969 1.49211,-15.60508 0,0 0,0 0,0 -0.11952,-2.51079 -0.37928,-4.7669 -0.91174,-6.73353 -0.55021,-1.85258 -1.12044,-3.3727 -1.97772,-4.3611 -0.38284,-0.51066 -0.89195,-0.93554 -1.43647,-1.25374 -0.54451,-0.31819 -1.12504,-0.52995 -1.68965,-0.63758 -0.93307,-0.20437 -1.8633,-0.1706 -2.7137,-0.0848 -0.85041,0.0858 -1.62166,0.22644 -2.27244,0.32891 -1.30155,0.20495 -2.11828,0.24337 -2.33412,-0.11637 -0.21584,-0.35974 0.15014,-1.10543 1.2506,-2.08354 0.55022,-0.48906 1.29015,-1.03108 2.27674,-1.5285 0.98659,-0.49741 2.22038,-0.95317 3.77913,-1.16492 1.09992,-0.11257 2.30466,-0.0398 3.53919,0.29644 1.23453,0.33623 2.49939,0.93637 3.67022,1.87175 1.97577,1.6484 3.5508,3.91538 4.54168,6.34771 1.08996,2.54439 1.83486,5.38159 2.2666,8.30963 0,0 0,0 0,0 0.83542,5.50053 0.84091,11.74329 -0.27408,18.2247 -0.42428,2.54174 -1.05823,5.2251 -2.08606,7.96492 -0.61497,1.87323 -1.71679,4.10833 -3.74105,6.31507 -3.38833,3.38768 -7.98111,5.49502 -12.91932,5.76075 -0.99958,0.0538 -2.00483,0.0319 -3.00722,-0.0667 -5.88029,-0.71359 -10.88923,-3.3984 -14.6624,-6.78285 -4.27904,-3.69663 -7.39786,-8.4462 -8.99457,-13.47047 0,0 0,0 0,-10e-6 -0.90494,-2.80131 -1.19955,-5.69877 -0.94933,-8.44806 0.25023,-2.74929 1.04468,-5.35031 2.2773,-7.64265 1.53104,-2.57264 3.35526,-4.45609 5.14915,-5.94137 1.79388,-1.48529 3.55946,-2.57251 5.13379,-3.45989 3.67726,-2.18146 6.77056,-3.47678 8.97038,-4.18011 2.19982,-0.70333 3.51636,-0.80318 3.77925,-0.32194 z"
       id="path3137-5"
       inkscape:path-effect="#path-effect3139-5"
       inkscape:original-d="m 392.47483,419.60236 c -6.28266,3.43199 -16.56842,9.67259 -19.55353,15.64283 -8.24577,16.49153 17.37768,39.32757 31.28566,25.41959 7.99625,-7.99626 10.84212,-54.60697 -11.73213,-41.06242 z"
       inkscape:connector-curvature="0"
       inkscape:export-filename="C:\Users\Rui\Desktop\TrabalhosGit\Flybeat\flybeat\reports\Meta 3\Packaging\skull1.png"
       inkscape:export-xdpi="52.893532"
       inkscape:export-ydpi="52.893532" />
    <path
       style="fill:#000000;fill-rule:evenodd;stroke:none"
       d="m 319.34265,420.71324 c 0.26279,-0.48106 1.57919,-0.38105 3.77889,0.3224 2.19971,0.70346 5.29292,1.99887 8.97017,4.18043 1.57426,0.8874 3.33978,1.97462 5.1336,3.45986 1.79381,1.48523 3.61797,3.36859 5.14892,5.94112 1.23254,2.29215 2.02696,4.89298 2.2772,7.64213 0.25024,2.74915 -0.0443,5.6465 -0.94919,8.44776 0,0 0,0 0,0 -1.59654,5.02402 -4.71511,9.77353 -8.99405,13.47029 -3.77292,3.38442 -8.78161,6.06942 -14.66198,6.78325 -1.02471,0.10075 -2.05243,0.12146 -3.07403,0.0631 -4.91277,-0.28082 -9.47943,-2.38403 -12.85298,-5.75656 -2.02439,-2.20668 -3.12646,-4.44184 -3.7416,-6.31514 -1.028,-2.73965 -1.66224,-5.42303 -2.08682,-7.96498 -1.11538,-6.47971 -1.11132,-12.72246 -0.27662,-18.22549 0,0 0,0 0,0 0.43106,-2.92747 1.17517,-5.76514 2.26501,-8.31132 0.98983,-2.43199 2.56402,-4.70051 4.54158,-6.35204 1.17013,-0.93562 2.43479,-1.53703 3.67023,-1.87467 1.23545,-0.33764 2.4422,-0.41193 3.54523,-0.30015 1.32204,0.33453 2.40668,0.82666 3.30765,1.32989 0.90098,0.50323 1.61863,1.01928 2.19252,1.47526 1.14779,0.91197 1.73878,1.56233 1.87647,1.86789 -0.0698,0.11641 -0.0702,0.11701 -0.0702,0.11701 0,0 -3.6e-4,6e-4 -0.0702,0.11701 -0.33029,0.0248 -1.14844,-0.22047 -2.41033,-0.43657 -0.63094,-0.10805 -1.37098,-0.20575 -2.19126,-0.20904 -0.82028,-0.003 -1.72116,0.0861 -2.64851,0.41397 -0.56392,0.10684 -1.14353,0.31792 -1.68695,0.63511 -0.54343,0.3172 -1.05127,0.74075 -1.43312,1.2496 -0.85722,0.98687 -1.42731,2.50596 -1.97781,4.35676 -0.53317,1.96645 -0.79331,4.22209 -0.91335,6.73183 0,10e-6 0,10e-6 0,10e-6 -0.20517,4.75654 0.24144,10.06195 1.48958,15.60428 0.49935,2.15761 1.08225,4.26139 1.90758,6.1918 0.69128,1.41865 1.14144,2.54652 1.69356,2.91634 1.60403,1.60505 4.01242,2.65704 6.42203,2.78191 0.50107,0.026 0.99757,0.0113 1.48171,-0.0459 3.28811,-0.24601 6.56913,-2.04397 9.40825,-4.26619 3.11196,-2.5703 5.51134,-5.70996 6.76851,-8.97896 0,0 0,-10e-6 0,-10e-6 0.64062,-1.69002 0.9998,-3.46049 1.04437,-5.12325 0.0446,-1.66277 -0.22565,-3.21803 -0.80858,-4.55682 -0.55385,-1.59709 -1.65989,-3.01525 -2.90257,-4.35275 -1.24268,-1.33749 -2.62321,-2.59275 -3.89528,-3.79278 -2.91061,-2.64981 -5.41806,-4.66799 -7.07246,-6.19675 -1.65441,-1.52876 -2.46796,-2.55851 -2.20517,-3.03957 z"
       id="path3137-7-2"
       inkscape:path-effect="#path-effect3139-1-5"
       inkscape:original-d="m 319.34265,420.71324 c 6.28266,3.432 16.56842,9.67259 19.55353,15.64283 8.24577,16.49153 -17.37767,39.32757 -31.28566,25.41959 -7.99625,-7.99626 -10.84213,-54.60697 11.73213,-41.06242 z"
       inkscape:connector-curvature="0"
       inkscape:export-filename="C:\Users\Rui\Desktop\TrabalhosGit\Flybeat\flybeat\reports\Meta 3\Packaging\skull1.png"
       inkscape:export-xdpi="52.893532"
       inkscape:export-ydpi="52.893532" />
    <path
       style="fill:#000000;fill-rule:evenodd;stroke:none"
       d="m 347.99861,495.33623 c -0.44147,-0.27134 -0.77648,-0.68933 -0.98387,-1.25624 -0.2074,-0.56691 -0.28849,-1.28504 -0.14661,-2.12785 0.14188,-0.84281 0.50992,-1.81316 1.26153,-2.81438 0.75162,-1.00121 1.89325,-2.03467 3.56922,-2.90041 0,0 1e-5,0 1e-5,0 1.25396,-0.43445 2.57205,-0.66864 3.84736,-0.67928 1.27531,-0.0106 2.50643,0.2026 3.59249,0.61736 0.30059,0.1148 0.58626,0.24324 0.85623,0.38325 1.22473,0.55995 2.2149,1.17943 3.02232,1.77914 0.80742,0.59972 1.43491,1.18019 1.95496,1.71587 0.54717,0.48583 0.94262,0.98093 1.26944,1.44728 0.32682,0.46636 0.58768,0.90536 0.8263,1.32522 0.23862,0.41985 0.45582,0.82292 0.62923,1.23484 0.17341,0.41192 0.30139,0.83521 0.30139,1.2752 0,0.43999 -0.13549,0.86982 -0.45151,1.25268 -0.31601,0.38285 -0.814,0.71621 -1.47047,0.94768 -0.65647,0.23147 -1.47047,0.35858 -2.34666,0.35188 -0.8762,-0.007 -1.81177,-0.1488 -2.66865,-0.40172 -0.92384,-0.22402 -1.83509,-0.5314 -2.67089,-0.84755 -0.8358,-0.31615 -1.59401,-0.63918 -2.26688,-0.87748 -0.12888,-0.0278 -0.25167,-0.0589 -0.3676,-0.0925 -0.8377,-0.24292 -1.1943,-0.58012 -1.31201,-0.63014 0,0 0,0 0,0 -0.3038,-0.24828 -0.74256,-0.22162 -1.27643,-0.10546 -0.53387,0.11616 -1.15735,0.32051 -1.78744,0.48307 -1.26018,0.3251 -2.49852,0.46227 -3.38146,-0.0804 z"
       id="path3182-7"
       inkscape:path-effect="#path-effect3184-4"
       inkscape:original-d="m 347.99861,495.33623 c 6.84466,-11.13608 13.31708,0 20,0"
       inkscape:connector-curvature="0"
       inkscape:export-filename="C:\Users\Rui\Desktop\TrabalhosGit\Flybeat\flybeat\reports\Meta 3\Packaging\skull1.png"
       inkscape:export-xdpi="52.893532"
       inkscape:export-ydpi="52.893532" />
    <path
       style="fill:none;stroke:#000000;stroke-width:10;stroke-linecap:butt;stroke-linejoin:miter;stroke-miterlimit:4;stroke-opacity:1;stroke-dasharray:none"
       d="m 406.94069,422.25853 -7.07107,44.44672 0,1.01015"
       id="path3980-2"
       inkscape:connector-curvature="0"
       inkscape:export-filename="C:\Users\Rui\Desktop\TrabalhosGit\Flybeat\flybeat\reports\Meta 3\Packaging\skull1.png"
       inkscape:export-xdpi="52.893532"
       inkscape:export-ydpi="52.893532" />
    <path
       style="fill:none;stroke:#000000;stroke-width:1px;stroke-linecap:butt;stroke-linejoin:miter;stroke-opacity:1"
       d="m 422.5,497.36218 6.07143,-3.92857"
       id="path3789"
       inkscape:connector-curvature="0"
       inkscape:export-filename="C:\Users\Rui\Desktop\TrabalhosGit\Flybeat\flybeat\reports\Meta 3\Packaging\skull1.png"
       inkscape:export-xdpi="52.893532"
       inkscape:export-ydpi="52.893532" />
    <path
       style="fill:#000000;fill-opacity:1;fill-rule:evenodd"
       d="m 314.52386,461.61855 c -4.28258,-1.19093 -6.91425,-5.17141 -8.62467,-13.04503 -1.37043,-6.3085 -1.88865,-13.26838 -1.32368,-17.77713 0.76472,-6.10282 2.2231,-9.36323 4.86597,-10.87864 1.20963,-0.69359 1.95869,-0.78891 5.41337,-0.68886 2.20521,0.0638 4.01121,0.26824 4.01334,0.45416 0.002,0.18592 3.83935,3.86871 8.52715,8.18398 5.17803,4.76652 8.83939,8.45778 9.32866,9.4048 1.82953,3.54125 1.10384,10.00432 -1.59053,14.16514 -4.34405,6.70843 -14.70065,11.8248 -20.60961,10.18158 z"
       id="path5265"
       inkscape:connector-curvature="0"
       inkscape:export-filename="C:\Users\Rui\Desktop\TrabalhosGit\Flybeat\flybeat\reports\Meta 3\Packaging\skull1.png"
       inkscape:export-xdpi="52.893532"
       inkscape:export-ydpi="52.893532" />
    <path
       style="fill:#000000;fill-opacity:1;fill-rule:evenodd"
       d="m 393.56445,461.59426 c -14.02959,-4.87974 -21.86149,-16.46458 -17.30024,-25.59037 0.66671,-1.33394 3.45748,-4.31949 8.95666,-9.58185 4.39351,-4.2043 8.3317,-8.1555 8.75154,-8.78046 0.73627,-1.09597 0.89482,-1.1361 4.46816,-1.13064 6.11373,0.009 5.80751,-0.27662 5.48337,5.11973 -0.72035,11.99223 -6.17946,40.77175 -7.72494,40.72466 -0.26913,-0.008 -1.45466,-0.35068 -2.63455,-0.76107 z"
       id="path5267"
       inkscape:connector-curvature="0"
       inkscape:export-filename="C:\Users\Rui\Desktop\TrabalhosGit\Flybeat\flybeat\reports\Meta 3\Packaging\skull1.png"
       inkscape:export-xdpi="52.893532"
       inkscape:export-ydpi="52.893532" />
    <path
       style="opacity:0.52808987;fill:#ffffff;fill-opacity:1;fill-rule:evenodd;stroke-width:20;stroke-miterlimit:4;stroke-dasharray:none"
       d="m 367.09387,527.25582 c -10.60715,-0.55818 -26.78121,-1.09083 -35.94236,-1.18365 l -16.65664,-0.16876 -1.69666,-10.05896 c -0.93317,-5.53243 -3.7234,-14.05028 -6.20051,-18.92858 l -4.50383,-8.8696 -12.43132,-2.84765 -12.43131,-2.84765 -2.22127,-9.29521 c -7.47455,-31.27818 -6.58597,-67.30086 2.07908,-84.28577 4.04113,-7.92126 13.42366,-17.97086 20.63693,-22.10416 16.87598,-9.67014 56.88002,-13.13486 80.70142,-6.98947 28.7998,7.4297 51.20381,29.99443 57.95416,58.36991 4.37238,18.37947 1.84226,43.27735 -6.63482,65.29072 -4.21568,10.94733 -4.28429,11.02704 -13.08825,15.20682 -13.37619,6.35048 -18.13605,12.80564 -18.13605,24.59546 l 0,5.62128 -6.07143,-0.24491 c -3.33929,-0.13472 -14.75,-0.70163 -25.35714,-1.25982 z m 0.91619,-30.64915 c 2.25889,-5.88657 -10.32518,-14.07776 -16.52778,-10.75822 -3.44943,1.84608 -6.29703,6.69391 -5.08445,8.65591 0.47556,0.76948 2.59457,1.44423 4.70892,1.49946 2.11434,0.0552 5.12997,0.65289 6.7014,1.32816 4.54385,1.95256 9.30419,1.61411 10.20191,-0.72531 l 0,0 z M 326.2119,470.25288 c 10.99058,-4.17862 20.71606,-19.31383 18.83919,-29.31839 -1.19109,-6.34906 -7.72405,-13.94696 -14.75163,-17.15631 -2.94165,-1.34339 -7.77896,-3.66478 -10.74959,-5.15865 -10.60886,-5.33498 -17.28991,-2.39325 -21.02417,9.25716 -2.47903,7.73426 -1.23641,26.00032 2.24414,32.98812 4.44665,8.92742 15.71616,13.08584 25.44206,9.38807 l 0,0 z m 81.52245,-5.28071 c 4.72859,-5.34171 6.7887,-13.12137 6.74033,-25.45379 -0.0434,-11.08233 -1.74047,-16.96571 -6.29642,-21.82926 -3.44572,-3.67834 -11.21306,-4.35904 -13.82521,-1.21159 -0.91415,1.10149 -3.40358,2.43118 -5.53207,2.95487 -6.64638,1.63529 -16.07215,7.9286 -18.95416,12.65512 -5.22128,8.56298 -2.80524,22.08408 5.32432,29.79697 7.13091,6.76543 11.83627,8.53492 20.77923,7.81422 6.72649,-0.54208 8.79577,-1.37348 11.76398,-4.72654 l 0,0 z"
       id="path3122"
       inkscape:connector-curvature="0" />
    <path
       style="opacity:0.52808987;fill:#ffffff;fill-opacity:1;fill-rule:evenodd;stroke-width:20;stroke-miterlimit:4;stroke-dasharray:none"
       d="m 342.2114,525.95122 -27.02533,-0.7621 -1.99351,-9.8733 c -2.82197,-13.97638 -9.26709,-27.66663 -13.48367,-28.64102 -1.83112,-0.42315 -7.41255,-1.69234 -12.40317,-2.82043 -4.99063,-1.12809 -9.2588,-2.25355 -9.48483,-2.50102 -2.04789,-2.24218 -5.49039,-27.3283 -6.06952,-44.22973 -1.15842,-33.80787 2.42609,-46.96053 16.71844,-61.34503 9.14272,-9.20165 17.65511,-12.98081 36.73209,-16.30756 25.42887,-4.43442 50.42644,-1.77605 68.92937,7.33031 19.20721,9.45297 35.40794,29.26952 40.77518,49.87572 4.3044,16.52573 2.32019,41.90411 -4.9039,62.72136 -4.0555,11.68653 -5.871,14.05123 -14.60487,19.02286 -11.92599,6.78869 -15.80221,11.70491 -16.57485,21.02194 l -0.65419,7.88876 -14.46596,-0.30933 c -7.95628,-0.17014 -26.62735,-0.65228 -41.49128,-1.07143 z m 26.31104,-30.51308 c 0,-8.08549 -14.13191,-13.97426 -19.83918,-8.26698 -4.98218,4.98218 -3.94385,8.35676 3.05346,9.92376 3.33929,0.74781 8.48215,1.4285 11.42857,1.51264 4.69869,0.13419 5.35715,-0.25537 5.35715,-3.16942 z m -38.0047,-26.58639 c 8.93857,-5.52435 15.77342,-17.83513 14.78256,-26.62602 -1.03043,-9.142 -5.41977,-14.03662 -18.42488,-20.54588 -16.42542,-8.22118 -22.22863,-7.83808 -27.14141,1.79177 -2.53613,4.97122 -2.86876,7.71612 -2.35902,19.46666 0.67581,15.57885 3.00805,21.52822 10.14537,25.88011 6.07134,3.70191 17.0358,3.71781 22.99738,0.0333 l 0,10e-6 z m 73.71264,-0.50843 c 6.26819,-3.17126 10.0819,-12.26564 10.42037,-24.84901 0.16514,-6.13928 -0.19633,-13.49476 -0.80327,-16.3455 -1.53743,-7.22119 -6.93121,-12.67397 -12.53683,-12.67397 -6.61197,0 -24.46403,8.99164 -29.70641,14.96239 -3.84263,4.37651 -4.50573,6.24001 -4.479,12.58732 0.0704,16.71506 10.68305,28.00682 26.3972,28.08632 3.92857,0.0199 8.74714,-0.77552 10.70794,-1.76755 l 0,0 z"
       id="path3124"
       inkscape:connector-curvature="0" />
    <path
       style="fill:#ffffff;fill-opacity:1;fill-rule:evenodd;stroke-width:2;stroke-miterlimit:4;stroke-dasharray:none;stroke:#ffffff"
       d="m 328.27208,524.84129 -12.39322,-0.47458 -1.5163,-7.07027 c -2.22417,-10.37096 -6.60965,-22.16928 -10.0213,-26.96051 -2.50729,-3.52117 -4.83286,-4.59724 -14.40503,-6.66543 -11.26064,-2.43301 -11.43413,-2.53731 -12.82756,-7.71212 -2.34308,-8.70153 -4.24952,-31.11174 -4.27576,-50.26163 -0.0295,-21.53802 2.75152,-32.44847 11.0231,-43.24536 12.71168,-16.59257 32.34274,-23.69599 65.38071,-23.65776 38.18956,0.0442 64.60547,15.00931 79.4797,45.02676 l 6.23459,12.5819 -0.0331,21.53627 c -0.0347,22.52105 -1.64515,31.78703 -8.16872,46.99934 -2.43749,5.68396 -4.7903,8.12984 -13.4264,13.95742 -10.59134,7.14695 -14.8003,12.53976 -14.8003,18.96316 0,8.24606 0.67614,8.07016 -29.7957,7.75116 -15.4338,-0.16156 -33.63839,-0.50732 -40.45466,-0.76835 z m 40.25036,-28.82104 c 0,-4.65982 -1.61277,-7.28158 -5.81646,-9.45539 -8.23599,-4.259 -17.04069,-1.18591 -17.04069,5.94769 0,3.89012 5.31813,5.91499 16.07143,6.11916 5.78167,0.10977 6.78572,-0.27663 6.78572,-2.61146 z m -33.5661,-30.12201 c 9.72698,-9.42776 13.25317,-22.3596 8.5676,-31.4205 -4.51034,-8.72202 -23.76123,-19.05097 -34.08737,-18.28936 -4.79576,0.35371 -6.39514,1.28417 -9.08178,5.28343 -2.80158,4.17035 -3.26092,6.68711 -3.26092,17.86658 0,14.96731 1.45802,21.3033 6.03731,26.23571 4.7054,5.06826 7.883,6.0643 17.8811,5.60494 7.94535,-0.36504 9.46674,-0.94121 13.94406,-5.2808 z m 71.93256,0.6727 c 7.03964,-5.92347 9.84729,-19.29304 7.49029,-35.66753 -1.69461,-11.77284 -5.61212,-16.42857 -13.82362,-16.42857 -6.36073,0 -22.08763,7.6626 -28.49135,13.88182 -4.58323,4.45117 -4.97035,5.49296 -4.97035,13.37569 0,18.40834 9.51807,28.27755 27.39039,28.40086 6.63759,0.0458 8.88304,-0.59904 12.40464,-3.56227 l 0,0 z"
       id="path3126"
       inkscape:connector-curvature="0" />
  </g>
</svg>
