<?xml version="1.0" encoding="UTF-8" standalone="no"?>
<!-- Created with Inkscape (http://www.inkscape.org/) -->

<svg
   xmlns:dc="http://purl.org/dc/elements/1.1/"
   xmlns:cc="http://creativecommons.org/ns#"
   xmlns:rdf="http://www.w3.org/1999/02/22-rdf-syntax-ns#"
   xmlns:svg="http://www.w3.org/2000/svg"
   xmlns="http://www.w3.org/2000/svg"
   xmlns:xlink="http://www.w3.org/1999/xlink"
   xmlns:sodipodi="http://sodipodi.sourceforge.net/DTD/sodipodi-0.dtd"
   xmlns:inkscape="http://www.inkscape.org/namespaces/inkscape"
   width="744.09448819"
   height="1052.3622047"
   id="svg2"
   version="1.1"
   inkscape:version="0.48.4 r9939"
   sodipodi:docname="skull.svg">
  <defs
     id="defs4">
    <linearGradient
       inkscape:collect="always"
       id="linearGradient5739">
      <stop
         style="stop-color:#000000;stop-opacity:1;"
         offset="0"
         id="stop5741" />
      <stop
         style="stop-color:#000000;stop-opacity:0;"
         offset="1"
         id="stop5743" />
    </linearGradient>
    <inkscape:path-effect
       effect="skeletal"
       id="path-effect4209"
       is_visible="true"
       pattern="M 0,5 C 0,2.24 2.24,0 5,0 7.76,0 10,2.24 10,5 10,7.76 7.76,10 5,10 2.24,10 0,7.76 0,5 z"
       copytype="single_stretched"
       prop_scale="1"
       scale_y_rel="false"
       spacing="0"
       normal_offset="0"
       tang_offset="0"
       prop_units="false"
       vertical_pattern="false"
       fuse_tolerance="0" />
    <inkscape:path-effect
       effect="skeletal"
       id="path-effect4060"
       is_visible="true"
       pattern="m 48.284271,-217.85714 c 0,-2.76 2.24,-5 5,-5 2.76,0 5,2.24 5,5 0,2.76 -2.24,5 -5,5 -2.76,0 -5,-2.24 -5,-5 z"
       copytype="single_stretched"
       prop_scale="1"
       scale_y_rel="false"
       spacing="0"
       normal_offset="0"
       tang_offset="0"
       prop_units="false"
       vertical_pattern="false"
       fuse_tolerance="0" />
    <inkscape:path-effect
       effect="skeletal"
       id="path-effect3978"
       is_visible="true"
       pattern="m 11.428571,-227.85714 c 0,-2.76 2.24,-5 5,-5 2.76,0 5,2.24 5,5 0,2.76 -2.24,5 -5,5 -2.76,0 -5,-2.24 -5,-5 z"
       copytype="single_stretched"
       prop_scale="1"
       scale_y_rel="false"
       spacing="0"
       normal_offset="0"
       tang_offset="0"
       prop_units="false"
       vertical_pattern="false"
       fuse_tolerance="0" />
    <inkscape:path-effect
       effect="skeletal"
       id="path-effect3970"
       is_visible="true"
       pattern="m 11.428571,-227.85714 c 0,-2.76 2.24,-5 5,-5 2.76,0 5,2.24 5,5 0,2.76 -2.24,5 -5,5 -2.76,0 -5,-2.24 -5,-5 z"
       copytype="single_stretched"
       prop_scale="1"
       scale_y_rel="false"
       spacing="0"
       normal_offset="0"
       tang_offset="0"
       prop_units="false"
       vertical_pattern="false"
       fuse_tolerance="0" />
    <inkscape:path-effect
       effect="skeletal"
       id="path-effect3184"
       is_visible="true"
       pattern="m 11.428571,-227.85714 c 0,-2.76 2.24,-5 5,-5 2.76,0 5,2.24 5,5 0,2.76 -2.24,5 -5,5 -2.76,0 -5,-2.24 -5,-5 z"
       copytype="single_stretched"
       prop_scale="1"
       scale_y_rel="false"
       spacing="0"
       normal_offset="0"
       tang_offset="0"
       prop_units="false"
       vertical_pattern="false"
       fuse_tolerance="0" />
    <inkscape:path-effect
       effect="skeletal"
       id="path-effect3139"
       is_visible="true"
       pattern="m 27.142857,-232.14286 c 0,-2.76 2.24,-5 5,-5 2.76,0 5,2.24 5,5 0,2.76 -2.24,5 -5,5 -2.76,0 -5,-2.24 -5,-5 z"
       copytype="single_stretched"
       prop_scale="1"
       scale_y_rel="false"
       spacing="0"
       normal_offset="0"
       tang_offset="0"
       prop_units="false"
       vertical_pattern="false"
       fuse_tolerance="0" />
    <inkscape:path-effect
       effect="skeletal"
       id="path-effect3123"
       is_visible="true"
       pattern="m 11.428571,-227.85714 c 0,-2.76 2.24,-5 5,-5 2.76,0 5,2.24 5,5 0,2.76 -2.24,5 -5,5 -2.76,0 -5,-2.24 -5,-5 z"
       copytype="single_stretched"
       prop_scale="1"
       scale_y_rel="false"
       spacing="0"
       normal_offset="0"
       tang_offset="0"
       prop_units="false"
       vertical_pattern="false"
       fuse_tolerance="0" />
    <inkscape:path-effect
       effect="skeletal"
       id="path-effect3119"
       is_visible="true"
       pattern="m 11.428571,-227.85714 c 0,-2.76 2.24,-5 5,-5 2.76,0 5,2.24 5,5 0,2.76 -2.24,5 -5,5 -2.76,0 -5,-2.24 -5,-5 z"
       copytype="single_stretched"
       prop_scale="1"
       scale_y_rel="false"
       spacing="0"
       normal_offset="0"
       tang_offset="0"
       prop_units="false"
       vertical_pattern="false"
       fuse_tolerance="0" />
    <inkscape:path-effect
       effect="skeletal"
       id="path-effect3139-1"
       is_visible="true"
       pattern="m -74.568563,-230.51964 c 0,-2.76 2.24,-5 5,-5 2.76,0 5,2.24 5,5 0,2.76 -2.24,5 -5,5 -2.76,0 -5,-2.24 -5,-5 z"
       copytype="single_stretched"
       prop_scale="1"
       scale_y_rel="false"
       spacing="0"
       normal_offset="0"
       tang_offset="0"
       prop_units="false"
       vertical_pattern="false"
       fuse_tolerance="0" />
    <inkscape:path-effect
       effect="skeletal"
       id="path-effect4060-8"
       is_visible="true"
       pattern="m 89.854305,307.70722 c 0,-2.76 2.24,-5 5,-5 2.76,0 5,2.24 5,5 0,2.76 -2.24,5 -5,5 -2.76,0 -5,-2.24 -5,-5 z"
       copytype="single_stretched"
       prop_scale="1"
       scale_y_rel="false"
       spacing="0"
       normal_offset="0"
       tang_offset="0"
       prop_units="false"
       vertical_pattern="false"
       fuse_tolerance="0" />
    <inkscape:path-effect
       effect="skeletal"
       id="path-effect3978-8"
       is_visible="true"
       pattern="m 52.998605,297.70722 c 0,-2.76 2.24,-5 5,-5 2.76,0 5,2.24 5,5 0,2.76 -2.24,5 -5,5 -2.76,0 -5,-2.24 -5,-5 z"
       copytype="single_stretched"
       prop_scale="1"
       scale_y_rel="false"
       spacing="0"
       normal_offset="0"
       tang_offset="0"
       prop_units="false"
       vertical_pattern="false"
       fuse_tolerance="0" />
    <inkscape:path-effect
       effect="skeletal"
       id="path-effect3970-2"
       is_visible="true"
       pattern="m 52.998605,297.70722 c 0,-2.76 2.24,-5 5,-5 2.76,0 5,2.24 5,5 0,2.76 -2.24,5 -5,5 -2.76,0 -5,-2.24 -5,-5 z"
       copytype="single_stretched"
       prop_scale="1"
       scale_y_rel="false"
       spacing="0"
       normal_offset="0"
       tang_offset="0"
       prop_units="false"
       vertical_pattern="false"
       fuse_tolerance="0" />
    <inkscape:path-effect
       effect="skeletal"
       id="path-effect3184-4"
       is_visible="true"
       pattern="m 52.998605,297.70722 c 0,-2.76 2.24,-5 5,-5 2.76,0 5,2.24 5,5 0,2.76 -2.24,5 -5,5 -2.76,0 -5,-2.24 -5,-5 z"
       copytype="single_stretched"
       prop_scale="1"
       scale_y_rel="false"
       spacing="0"
       normal_offset="0"
       tang_offset="0"
       prop_units="false"
       vertical_pattern="false"
       fuse_tolerance="0" />
    <inkscape:path-effect
       effect="skeletal"
       id="path-effect3139-1-5"
       is_visible="true"
       pattern="m -32.998525,295.04472 c 0,-2.76 2.24,-5 5,-5 2.76,0 5,2.24 5,5 0,2.76 -2.24,5 -5,5 -2.76,0 -5,-2.24 -5,-5 z"
       copytype="single_stretched"
       prop_scale="1"
       scale_y_rel="false"
       spacing="0"
       normal_offset="0"
       tang_offset="0"
       prop_units="false"
       vertical_pattern="false"
       fuse_tolerance="0" />
    <inkscape:path-effect
       effect="skeletal"
       id="path-effect3139-5"
       is_visible="true"
       pattern="m 68.712895,293.42151 c 0,-2.76 2.24,-5 5,-5 2.76,0 5,2.24 5,5 0,2.76 -2.24,5 -5,5 -2.76,0 -5,-2.24 -5,-5 z"
       copytype="single_stretched"
       prop_scale="1"
       scale_y_rel="false"
       spacing="0"
       normal_offset="0"
       tang_offset="0"
       prop_units="false"
       vertical_pattern="false"
       fuse_tolerance="0" />
    <inkscape:path-effect
       effect="skeletal"
       id="path-effect3123-1"
       is_visible="true"
       pattern="m 52.998605,297.70722 c 0,-2.76 2.24,-5 5,-5 2.76,0 5,2.24 5,5 0,2.76 -2.24,5 -5,5 -2.76,0 -5,-2.24 -5,-5 z"
       copytype="single_stretched"
       prop_scale="1"
       scale_y_rel="false"
       spacing="0"
       normal_offset="0"
       tang_offset="0"
       prop_units="false"
       vertical_pattern="false"
       fuse_tolerance="0" />
    <inkscape:path-effect
       effect="skeletal"
       id="path-effect3119-7"
       is_visible="true"
       pattern="m 52.998605,297.70722 c 0,-2.76 2.24,-5 5,-5 2.76,0 5,2.24 5,5 0,2.76 -2.24,5 -5,5 -2.76,0 -5,-2.24 -5,-5 z"
       copytype="single_stretched"
       prop_scale="1"
       scale_y_rel="false"
       spacing="0"
       normal_offset="0"
       tang_offset="0"
       prop_units="false"
       vertical_pattern="false"
       fuse_tolerance="0" />
    <linearGradient
       inkscape:collect="always"
       xlink:href="#linearGradient5739"
       id="linearGradient5747"
       x1="456.371"
       y1="634.3764"
       x2="583.69434"
       y2="632.94781"
       gradientUnits="userSpaceOnUse" />
  </defs>
  <sodipodi:namedview
     id="base"
     pagecolor="#ffffff"
     bordercolor="#666666"
     borderopacity="1.0"
     inkscape:pageopacity="1"
     inkscape:pageshadow="2"
     inkscape:zoom="0.7"
     inkscape:cx="180.27226"
     inkscape:cy="477.7123"
     inkscape:document-units="px"
     inkscape:current-layer="layer1"
     showgrid="false"
     inkscape:window-width="1920"
     inkscape:window-height="1003"
     inkscape:window-x="-9"
     inkscape:window-y="-9"
     inkscape:window-maximized="1" />
  <metadata
     id="metadata7">
    <rdf:RDF>
      <cc:Work
         rdf:about="">
        <dc:format>image/svg+xml</dc:format>
        <dc:type
           rdf:resource="http://purl.org/dc/dcmitype/StillImage" />
      </cc:Work>
    </rdf:RDF>
  </metadata>
  <g
     inkscape:label="Layer 1"
     inkscape:groupmode="layer"
     id="layer1">
    <path
       style="fill:#000000;fill-rule:evenodd;stroke:none"
       d="m 287.79195,779.51318 c 0.0575,0.19101 -0.27797,0.49313 -0.96504,0.92045 -0.68707,0.42732 -1.7264,0.98065 -3.05802,1.71516 -1.33162,0.73451 -2.95676,1.6509 -4.78216,2.83405 -1.8254,1.18315 -3.85253,2.63364 -5.93424,4.45646 -3.46258,3.02146 -7.09411,7.11898 -10.19288,12.38972 -10e-6,0 -10e-6,10e-6 -10e-6,10e-6 -2.44828,4.13541 -4.54544,8.96143 -6.14934,14.42657 -1.6039,5.46514 -2.71224,11.5722 -3.35395,18.08365 -0.53262,5.58962 -0.69846,11.48179 -0.48307,17.62105 0.21538,6.13926 0.81208,12.52568 1.75197,19.08214 1e-5,0 1e-5,10e-6 1e-5,10e-6 1.25887,10.09516 3.32246,20.53081 6.68033,30.88026 1.65265,1.38006 5.00499,1.30413 8.90103,1.51676 1.88831,0.18428 4.07113,0.39243 6.48725,0.95713 2.14644,0.41982 4.55676,1.51334 6.80859,3.57106 -5e-5,-2e-5 -10e-5,-5e-5 -1.5e-4,-8e-5 -2.1803,-1.28086 -3.21825,-1.76526 -3.22931,-1.31757 0,1e-5 0,2e-5 0,3e-5 -0.21908,0.0361 -0.15953,0.003 0.18418,-0.0501 0,0 1e-5,0 1e-5,0 0.23297,-0.0631 0.7502,-0.1554 1.55719,-0.22675 0.42946,-0.47255 1.94255,0.0129 4.42335,1.59219 1.81244,2.13892 2.56346,3.88187 2.78767,4.78127 0.17656,0.35816 0.3248,0.68235 0.45402,0.96251 0.28218,0.61184 0.47271,1.01111 0.66994,1.09905 -0.27839,-0.16085 0.0859,-0.0146 0.9256,0.63181 1.42163,1.14768 2.38705,2.3944 2.94082,3.60204 0.54917,1.28092 0.75089,2.05982 0.73618,2.28371 0,0 0,1e-5 1e-5,1e-5 0.17881,0.81053 0.31759,1.57143 0.43918,2.27801 0,0 0,0 0,10e-6 0.3355,1.93357 0.61691,3.8268 0.88925,5.67265 0.26687,1.80489 0.51732,3.57038 0.78671,5.29179 0.0936,0.59261 0.17699,1.12954 0.27002,1.60764 0,0 0,10e-6 1e-5,10e-6 0.0336,0.15955 0.0443,0.23088 0.0418,0.21175 0.52502,0.6337 0.10381,-0.0157 -1.19626,-1.99286 -3.57758,-1.47635 -5.02458,-1.95509 -4.47238,-1.2289 -1e-5,-2e-5 -2e-5,-4e-5 -2e-5,-7e-5 -0.22461,-0.82646 1.63488,-0.48483 5.44704,1.23175 1.53598,2.01681 2.11594,3.59294 1.94452,4.51787 0.0728,1.17754 0.025,2.07587 -0.0305,2.69288 0,10e-6 0,10e-6 0,10e-6 -0.0285,0.70574 -0.0823,1.13317 -0.0494,1.2805 0,0 0,10e-6 0,10e-6 0.25406,0.11094 -0.11716,-0.361 -0.91074,-1.62379 0.87299,0.66065 1.47281,2.34834 1.11664,4.94926 1.56895,-0.56855 3.60415,-1.89213 6.02593,-3.08358 4.04381,-0.56409 8.12353,-1.24479 12.25543,-1.76765 4.00655,-0.52338 8.20626,-0.92878 12.51425,-0.71022 1.76658,0.0779 3.68981,0.33424 5.68244,0.92203 1.6507,0.43177 3.44221,1.37378 5.1051,2.94119 -4e-5,-2e-5 -7e-5,-3e-5 -1.1e-4,-5e-5 -2.3094,-1.18992 -3.17876,-1.64498 -2.79215,-1.15349 0.15069,-0.004 0.58194,-0.069 1.2937,-0.11809 2.09603,-0.19792 4.34539,0.55853 6.33149,2.30474 -2.26624,-1.16571 -3.11443,-1.61257 -2.73016,-1.1299 0,0 0,0 0,0 0.15532,-0.004 0.58631,-0.0684 1.29239,-0.11646 0,0 0,0 0,0 1.66955,-0.40009 3.49579,0.14865 5.06222,1.67763 0,0 0,0 0,0 -0.0515,-0.0124 -0.0964,-0.0324 -0.14182,-0.0515 -0.088,-0.037 -0.17146,-0.0764 -0.25117,-0.11558 -0.27541,-0.13551 -0.50483,-0.27125 -0.68964,-0.40055 0.25451,0.0263 0.56637,0.0412 0.93292,0.0595 1.24718,0.0596 2.5158,0.0912 3.80173,0.12296 4.05526,0.0996 8.01106,0.1589 11.8528,0.22156 4.32776,0.0706 8.49818,0.13687 12.4964,0.20849 1.85433,0.69442 3.71994,1.32426 5.58598,1.93711 -0.37719,-2.14213 -0.71768,-4.34571 -0.85819,-6.53843 -0.14052,-2.19272 -0.0816,-4.37462 0.26814,-6.4894 1.17121,-4.50179 3.65619,-8.01824 6.41552,-10.53696 2.14071,-1.04654 3.337,-1.06795 3.46591,-0.57162 0.51976,-0.26895 0.0791,0.10894 -1.43653,0.64565 1.0792,-0.97177 2.11198,-1.8954 3.09668,-2.76937 1.89736,-0.93835 2.9719,-0.92203 3.12601,-0.47785 0.49336,-0.21134 0.16162,0.14444 -1.08084,0.56767 0.20856,-0.0801 0.41694,-0.47116 0.74079,-0.98564 0.32385,-0.51447 0.76273,-1.15275 1.38729,-1.77466 1.13935,-0.835 1.9259,-0.9557 2.24803,-0.88681 0.67444,-0.14857 1.08711,-0.13166 1.26312,-0.20142 2.42486,-0.9443 4.20407,-1.9638 5.42788,-2.65396 1.22382,-0.69015 1.91459,-1.04702 2.10453,-0.85708 0.18994,0.18994 -0.12883,0.92522 -1.09013,2.06703 -0.96129,1.1418 -2.58672,2.69146 -5.06494,4.19871 -0.73916,0.38782 -1.40614,0.56352 -1.80704,0.69118 -0.61846,0.3105 -0.95416,0.27787 -0.54785,0.17593 -0.15785,0.16049 -0.27901,0.52614 -0.51606,1.061 -0.23704,0.53487 -0.58953,1.23928 -1.26658,2.04476 -1.71965,0.90042 -2.86484,0.984 -3.03619,0.56767 -0.49142,0.2451 -0.23531,-0.0309 1.17066,-0.47785 -0.87399,0.98472 -1.79765,2.01749 -2.76938,3.09669 -1.99507,1.0161 -3.24989,1.11868 -3.39189,0.64565 -0.51928,0.29643 -0.14072,-0.0145 1.51055,-0.57162 -1.95887,2.1995 -3.62179,5.04781 -4.13406,8.27035 -0.57748,2.13956 -0.93897,4.46304 -1.18809,6.97775 -0.24912,2.51471 -0.38536,5.22081 -0.58448,8.11559 -2.8471,0.61285 -5.83721,1.31309 -8.97478,2.0512 -3.99853,0.14159 -8.17424,0.27797 -12.51469,0.39863 -3.84508,0.10703 -7.82951,0.2083 -11.94826,0.25959 -1.29221,0.0165 -2.62528,0.0305 -4.00113,0.0136 -0.37853,-0.003 -0.81384,-0.0117 -1.30641,-0.0397 -0.39334,-0.14445 -0.83159,-0.29649 -1.31408,-0.46287 -0.13965,-0.0481 -0.28309,-0.0973 -0.42961,-0.1501 -0.0756,-0.0272 -0.15369,-0.0538 -0.22728,-0.0884 0,0 0,0 0,0 0.0672,0.0297 -0.33488,-0.0255 -0.80947,-0.28334 0,0 0,0 0,0 -0.10425,0.006 -0.47781,0.0792 -1.13575,0.14401 0,0 0,0 0,0 -0.12743,0.5257 -1.57665,0.14518 -4.20711,-1.38474 0.48611,0.24621 0.50685,0.39951 0.45982,0.34376 -0.0987,0.005 -0.47202,0.0776 -1.13446,0.14237 -0.12512,0.53453 -1.59549,0.14576 -4.26906,-1.40831 -4e-5,-2e-5 -9e-5,-5e-5 -1.3e-4,-7e-5 -0.0779,-0.17337 -0.60848,-0.31612 -1.35034,-0.59127 -0.9669,-0.28666 -2.16186,-0.3775 -3.52722,-0.43826 -3.35616,-0.1207 -6.96747,0.3496 -10.83651,0.89965 -3.88102,0.56928 -7.90336,1.31663 -12.1186,1.97249 -3.72045,-0.28418 -7.95611,-0.5182 -12.70902,-1.58548 -0.35617,-0.41056 -1.51768,-1.38344 -2.79408,-2.87216 -1.52698,-1.99619 -2.11573,-3.56999 -1.94952,-4.49571 0,-10e-6 0,-2e-5 0,-3e-5 -0.0787,-1.1706 -0.0377,-2.07156 0.0117,-2.69128 0,-10e-6 0,-10e-6 0,-2e-5 0.0222,-0.70343 0.0699,-1.13351 0.0306,-1.27891 -0.25901,-0.10865 0.10535,0.36473 0.90575,1.64595 3.57001,1.47443 5.02156,1.95719 4.46939,1.23174 -2e-5,-2e-5 -3e-5,-4e-5 -5e-5,-6e-5 0.22494,0.82712 -1.63011,0.48984 -5.45011,-1.22881 -1.41825,-2.09549 -1.85456,-2.93199 -1.37261,-2.45992 -0.0954,-0.36787 -0.15655,-0.65074 -0.19286,-0.84563 -10e-6,0 -10e-6,-10e-6 -10e-6,-10e-6 -0.13982,-0.70288 -0.24852,-1.35653 -0.34576,-1.95629 -0.29668,-1.81487 -0.56295,-3.61026 -0.83375,-5.37903 -0.28264,-1.84301 -0.55914,-3.65581 -0.87407,-5.42886 0,-10e-6 0,-10e-6 0,-2e-5 -0.11879,-0.66326 -0.22966,-1.2733 -0.35519,-1.82426 0,0 0,0 0,-10e-6 -0.18733,-0.54833 -0.11957,-0.5663 0.0751,0.006 -0.14677,-0.19345 -0.12126,-0.25454 0.0383,-0.0436 -0.15195,-0.0896 -0.88409,-0.55229 -2.03796,-1.58863 -1.19243,-1.30172 -2.03589,-2.58852 -2.62419,-3.7572 -0.26938,-0.53515 -0.48484,-1.04453 -0.65605,-1.51847 -0.7108,-1.33786 -0.73586,-2.00177 -0.62953,-1.56898 2.18418,1.28267 3.22072,1.76515 3.23179,1.31722 0.21951,-0.0368 0.15912,-0.004 -0.18427,0.0482 -10e-6,0 -10e-6,10e-6 -2e-5,10e-6 -0.23337,0.0626 -0.75146,0.15428 -1.5573,0.2249 -10e-6,10e-6 -2e-5,3e-5 -3e-5,4e-5 -0.4298,0.47231 -1.94416,-0.0154 -4.42081,-1.59253 -5e-5,-3e-5 -1.1e-4,-7e-5 -1.7e-4,-1.1e-4 -0.14637,-0.34047 -0.99832,-0.56758 -2.12073,-0.94965 -1.42367,-0.37726 -3.17858,-0.52075 -5.18344,-0.75878 -4.76206,-0.72653 -10.35826,-2.16097 -15.47208,-5.93406 -4.07308,-11.94341 -6.65191,-23.81612 -8.2219,-35.13303 0,0 0,-10e-6 0,-10e-6 -0.83599,-6.88545 -1.27389,-13.63284 -1.28636,-20.13847 -0.0125,-6.50564 0.40033,-12.76939 1.21213,-18.7098 0.92593,-6.93299 2.47733,-13.49304 4.59619,-19.36733 2.11886,-5.87429 4.80203,-11.0649 7.83405,-15.46286 0,0 0,-10e-6 1e-5,-10e-6 3.89585,-5.62059 8.36782,-9.77867 12.53936,-12.65468 2.51558,-1.72865 4.90601,-2.99506 7.03568,-3.94069 2.12967,-0.94563 4.00008,-1.57102 5.53395,-1.98582 1.53388,-0.4148 2.7325,-0.61951 3.55608,-0.68421 0.82357,-0.0647 1.27283,0.0102 1.33035,0.20117 z"
       id="path3117-1"
       inkscape:path-effect="#path-effect3119-7"
       inkscape:original-d="m 287.79195,779.51318 c -49.77606,14.989 -42.60303,88.25746 -30.30797,125.14263 7.15489,5.44897 17.84706,2.20423 22.48656,6.84373 0.48884,0.48884 2.44419,-0.48884 2.93304,0 1.47576,1.47577 1.77694,4.70998 3.9107,6.84374 1.03153,1.03153 1.94221,0.95138 2.93303,2.93303 0.76751,1.53501 2.54652,16.23399 2.93303,16.6205 0.23044,0.23044 0.74724,-0.23044 0.97768,0 1.30356,1.30357 -0.3259,5.54017 0.97767,6.84374 1.03949,1.03948 1.95536,1.79126 1.95536,3.91071 9.12974,0.72024 34.66143,-7.37867 41.06242,-0.97768 0.56543,0.56543 3.01189,-0.89882 4.88838,0.97768 0.56544,0.56543 3.01189,-0.89883 4.88839,0.97767 0.40563,0.40564 33.51923,0 37.15172,0 -0.42525,-12.02871 0.0466,-17.64477 5.86605,-23.46424 0.46089,-0.46088 1.49447,0.46088 1.95536,0 0.67738,-0.67739 2.25564,-2.25564 2.93303,-2.93303 0.46088,-0.46088 1.49447,0.46088 1.95535,0 0.81473,-0.81473 1.14062,-2.1183 1.95536,-2.93303 0.40968,-0.40969 2.34049,-0.68141 2.93302,-0.97767 2.43095,-1.21548 4.95504,-2.99968 6.84374,-4.88839"
       inkscape:connector-curvature="0" />
    <path
       style="fill:#000000;fill-rule:evenodd;stroke:none"
       d="m 292.68034,778.5355 c -0.15972,-0.47711 1.46166,-1.55892 4.71327,-3.0261 3.25162,-1.46719 8.1439,-3.32183 14.54273,-5.0504 6.39884,-1.72857 14.31471,-3.33216 23.46696,-3.97098 9.15225,-0.63881 19.5463,-0.30693 30.63211,2.12914 8.27101,1.84127 16.79373,5.00983 24.90357,9.69442 8.10983,4.6846 15.80097,10.88631 22.25582,18.60172 0.94862,1.13387 1.86323,2.29158 2.74256,3.47152 6.44073,8.73914 10.81933,18.37606 13.47806,27.96546 2.65872,9.58941 3.60206,19.12478 3.32189,27.92896 -0.33297,10.23867 -2.17112,19.446 -4.5719,27.34596 -2.40078,7.89995 -5.3598,14.49869 -8.1454,19.72297 -2.78561,5.22427 -5.39707,9.08378 -7.34957,11.58676 -1.9525,2.50298 -3.24526,3.65917 -3.64657,3.40835 -0.40131,-0.25082 0.11214,-1.89139 1.28027,-4.77837 1.16812,-2.88699 2.98923,-7.03065 4.99377,-12.36003 2.00455,-5.32939 4.19259,-11.85292 5.89227,-19.42794 1.69969,-7.57501 2.90864,-16.20522 2.76725,-25.58344 -0.11578,-8.02782 -1.2541,-16.62567 -3.80917,-25.18023 -2.55508,-8.55456 -6.52826,-17.05945 -12.23355,-24.66763 -0.76357,-1.03122 -1.5591,-2.04456 -2.38545,-3.0388 -5.62295,-6.76527 -12.37763,-12.29108 -19.53612,-16.57947 -7.1585,-4.28839 -14.71591,-7.33841 -22.09309,-9.28219 -9.98061,-2.65956 -19.57936,-3.45048 -28.21215,-3.41792 -8.63278,0.0326 -16.30093,0.8857 -22.63746,1.80011 -6.33653,0.9144 -11.34973,1.89257 -14.81539,2.46001 -3.46567,0.56744 -5.39499,0.72523 -5.55471,0.24812 z"
       id="path3121-1"
       inkscape:path-effect="#path-effect3123-1"
       inkscape:original-d="m 292.68034,778.5355 c 110.95463,-37.14306 168.25271,56.75308 116.34353,139.80778"
       inkscape:connector-curvature="0" />
    <path
       style="fill:#000000;fill-rule:evenodd;stroke:none"
       d="m 376.76054,838.17379 c 0.26289,0.48124 -0.55061,1.5112 -2.20495,3.04011 -1.65433,1.52891 -4.16168,3.54719 -7.07211,6.19698 -1.27205,1.20008 -2.65254,2.45537 -3.89515,3.79282 -1.24261,1.33746 -2.34855,2.75552 -2.90228,4.35244 -0.58288,1.33865 -0.85306,2.89378 -0.80849,4.55641 0.0446,1.66262 0.40372,3.43295 1.04424,5.12284 0,0 0,0 0,0 1.25705,3.2689 3.65629,6.40849 6.768,8.97878 2.83901,2.2223 6.11985,4.02036 9.40782,4.26658 0.47358,0.056 0.95899,0.0713 1.44894,0.0477 2.4205,-0.11673 4.84376,-1.17091 6.45527,-2.78307 0.55233,-0.36986 1.00272,-1.49782 1.69411,-2.91641 0.82562,-1.93054 1.40875,-4.03438 1.90833,-6.19185 1.24917,-5.54387 1.6962,-10.84969 1.49211,-15.60508 0,0 0,0 0,0 -0.11952,-2.51079 -0.37928,-4.7669 -0.91174,-6.73353 -0.55021,-1.85258 -1.12044,-3.3727 -1.97772,-4.3611 -0.38284,-0.51066 -0.89195,-0.93554 -1.43647,-1.25374 -0.54451,-0.31819 -1.12504,-0.52995 -1.68965,-0.63758 -0.93307,-0.20437 -1.8633,-0.1706 -2.7137,-0.0848 -0.85041,0.0858 -1.62166,0.22644 -2.27244,0.32891 -1.30155,0.20495 -2.11828,0.24337 -2.33412,-0.11637 -0.21584,-0.35974 0.15014,-1.10543 1.2506,-2.08354 0.55022,-0.48906 1.29015,-1.03108 2.27674,-1.5285 0.98659,-0.49741 2.22038,-0.95317 3.77913,-1.16492 1.09992,-0.11257 2.30466,-0.0398 3.53919,0.29644 1.23453,0.33623 2.49939,0.93637 3.67022,1.87175 1.97577,1.6484 3.5508,3.91538 4.54168,6.34771 1.08996,2.54439 1.83486,5.38159 2.2666,8.30963 0,0 0,0 0,0 0.83542,5.50053 0.84091,11.74329 -0.27408,18.2247 -0.42428,2.54174 -1.05823,5.2251 -2.08606,7.96492 -0.61497,1.87323 -1.71679,4.10833 -3.74105,6.31507 -3.38833,3.38768 -7.98111,5.49502 -12.91932,5.76075 -0.99958,0.0538 -2.00483,0.0319 -3.00722,-0.0667 -5.88029,-0.71359 -10.88923,-3.3984 -14.6624,-6.78285 -4.27904,-3.69663 -7.39786,-8.4462 -8.99457,-13.47047 0,0 0,0 0,-10e-6 -0.90494,-2.80131 -1.19955,-5.69877 -0.94933,-8.44806 0.25023,-2.74929 1.04468,-5.35031 2.2773,-7.64265 1.53104,-2.57264 3.35526,-4.45609 5.14915,-5.94137 1.79388,-1.48529 3.55946,-2.57251 5.13379,-3.45989 3.67726,-2.18146 6.77056,-3.47678 8.97038,-4.18011 2.19982,-0.70333 3.51636,-0.80318 3.77925,-0.32194 z"
       id="path3137-5"
       inkscape:path-effect="#path-effect3139-5"
       inkscape:original-d="m 376.76054,838.17379 c -6.28266,3.43199 -16.56842,9.67259 -19.55353,15.64283 -8.24577,16.49153 17.37768,39.32757 31.28566,25.41959 7.99625,-7.99626 10.84212,-54.60697 -11.73213,-41.06242 z"
       inkscape:connector-curvature="0" />
    <path
       style="fill:#000000;fill-rule:evenodd;stroke:none"
       d="m 303.62836,839.28467 c 0.26289,-0.48124 1.57943,-0.38139 3.77925,0.32194 2.19982,0.70333 5.29312,1.99865 8.97038,4.18012 1.57432,0.88737 3.33991,1.97459 5.13379,3.45988 1.79389,1.48528 3.61811,3.36873 5.14915,5.94137 1.23262,2.29234 2.02707,4.89336 2.2773,7.64265 0.25022,2.74929 -0.0444,5.64675 -0.94933,8.44806 0,10e-6 0,10e-6 0,10e-6 -1.5967,5.02427 -4.71553,9.77384 -8.99456,13.47047 -3.77317,3.38445 -8.78212,6.06926 -14.6624,6.78285 -1.0024,0.0985 -2.00765,0.12045 -3.00723,0.0667 -4.93821,-0.26574 -9.53099,-2.37307 -12.91932,-5.76075 -2.02426,-2.20674 -3.12607,-4.44184 -3.74105,-6.31507 -1.02783,-2.73982 -1.66178,-5.42318 -2.08606,-7.96492 -1.11499,-6.48141 -1.1095,-12.72417 -0.27408,-18.2247 0,0 0,0 0,0 0.43173,-2.92804 1.17664,-5.76524 2.2666,-8.30963 0.99088,-2.43233 2.56591,-4.69931 4.54168,-6.34771 1.17083,-0.93538 2.43569,-1.53552 3.67022,-1.87175 1.23453,-0.33624 2.43927,-0.40901 3.53918,-0.29644 1.55875,0.21175 2.79255,0.66751 3.77914,1.16492 0.98659,0.49742 1.72652,1.03944 2.27674,1.5285 1.10046,0.97811 1.46644,1.7238 1.2506,2.08354 -0.21584,0.35974 -1.03257,0.32132 -2.33412,0.11637 -0.65078,-0.10247 -1.42203,-0.24314 -2.27244,-0.32891 -0.85041,-0.0858 -1.78064,-0.11954 -2.7137,0.0848 -0.56461,0.10763 -1.14514,0.31939 -1.68966,0.63758 -0.54451,0.3182 -1.05362,0.74308 -1.43647,1.25374 -0.85728,0.9884 -1.4275,2.50852 -1.97771,4.3611 -0.53247,1.96663 -0.79222,4.22274 -0.91175,6.73353 0,0 0,0 0,0 -0.20408,4.75539 0.24295,10.06121 1.49211,15.60507 0.49958,2.15747 1.08272,4.26132 1.90834,6.19186 0.69139,1.41859 1.14177,2.54654 1.69411,2.91641 1.61151,1.61216 4.03477,2.66634 6.45527,2.78307 0.48995,0.0236 0.97536,0.008 1.44894,-0.0477 3.28798,-0.24622 6.56881,-2.04428 9.40783,-4.26658 3.11171,-2.57029 5.51094,-5.70988 6.76799,-8.97878 0,0 0,0 10e-6,0 0.64051,-1.68989 0.99966,-3.46022 1.04423,-5.12284 0.0446,-1.66263 -0.22561,-3.21776 -0.80849,-4.55641 -0.55373,-1.59692 -1.65967,-3.01498 -2.90228,-4.35243 -1.24261,-1.33746 -2.6231,-2.59274 -3.89515,-3.79283 -2.91043,-2.64979 -5.41778,-4.66807 -7.07211,-6.19698 -1.65434,-1.52891 -2.46784,-2.55887 -2.20495,-3.04011 z"
       id="path3137-7-2"
       inkscape:path-effect="#path-effect3139-1-5"
       inkscape:original-d="m 303.62836,839.28467 c 6.28266,3.432 16.56842,9.67259 19.55353,15.64283 8.24577,16.49153 -17.37767,39.32757 -31.28566,25.41959 -7.99625,-7.99626 -10.84213,-54.60697 11.73213,-41.06242 z"
       inkscape:connector-curvature="0" />
    <path
       style="fill:#000000;fill-rule:evenodd;stroke:none"
       d="m 332.28432,913.90766 c -0.44147,-0.27134 -0.77648,-0.68933 -0.98387,-1.25624 -0.2074,-0.56691 -0.28849,-1.28504 -0.14661,-2.12785 0.14188,-0.84281 0.50992,-1.81316 1.26153,-2.81438 0.75162,-1.00121 1.89325,-2.03467 3.56922,-2.90041 0,0 10e-6,0 10e-6,0 1.25396,-0.43445 2.57205,-0.66864 3.84736,-0.67928 1.27531,-0.0107 2.50643,0.2026 3.59249,0.61736 0.30059,0.1148 0.58626,0.24324 0.85623,0.38325 1.22473,0.55995 2.2149,1.17943 3.02232,1.77914 0.80742,0.59972 1.43491,1.18019 1.95496,1.71587 0.54717,0.48583 0.94262,0.98093 1.26944,1.44728 0.32682,0.46636 0.58768,0.90536 0.8263,1.32522 0.23862,0.41985 0.45582,0.82292 0.62923,1.23484 0.17341,0.41192 0.30139,0.83521 0.30139,1.2752 0,0.43999 -0.13549,0.86982 -0.45151,1.25268 -0.31601,0.38285 -0.814,0.71621 -1.47047,0.94768 -0.65647,0.23147 -1.47047,0.35858 -2.34666,0.35188 -0.8762,-0.007 -1.81177,-0.1488 -2.66865,-0.40172 -0.92384,-0.22402 -1.83509,-0.5314 -2.67089,-0.84755 -0.8358,-0.31615 -1.59401,-0.63918 -2.26688,-0.87748 -0.12888,-0.0278 -0.25167,-0.0589 -0.3676,-0.0925 -0.8377,-0.24292 -1.1943,-0.58012 -1.31201,-0.63014 0,0 0,0 0,0 -0.3038,-0.24828 -0.74256,-0.22162 -1.27643,-0.10546 -0.53387,0.11616 -1.15735,0.32051 -1.78744,0.48307 -1.26018,0.3251 -2.49852,0.46227 -3.38146,-0.0804 z"
       id="path3182-7"
       inkscape:path-effect="#path-effect3184-4"
       inkscape:original-d="m 332.28432,913.90766 c 6.84466,-11.13608 13.31708,0 20,0"
       inkscape:connector-curvature="0" />
    <path
       style="fill:none;stroke:#000000;stroke-width:20;stroke-linecap:butt;stroke-linejoin:miter;stroke-miterlimit:4;stroke-opacity:1;stroke-dasharray:none"
       d="m 426.23511,691.39919 -18.18275,105.05586 -2.0203,-4.04061 2.0203,5.05076"
       id="path3198-6"
       inkscape:connector-curvature="0" />
    <path
       style="fill:#000000;fill-rule:evenodd;stroke:none"
       d="m 392.40987,789.4855 c 0.29873,-0.0579 0.65859,0.13863 0.90872,0.7139 0.12506,0.28763 0.21707,0.66339 0.26013,1.07634 0.0431,0.41296 0.0344,0.86391 0.008,1.23635 0,0 0,0 0,0 -0.0221,1.08916 -0.21549,2.4238 -0.39478,3.83449 -0.13145,1.08152 -0.29897,2.15717 -0.17215,3.0282 0.29393,0.52421 0.21226,0.70645 -0.0802,-0.31709 0.4779,0.34465 1.33305,0.53408 2.45371,0.84227 1.14392,0.26406 2.51471,0.40958 4.14117,0.63049 1.431,0.17442 3.1011,0.39037 5.01303,0.88513 1.52749,0.30207 3.42688,1.12013 5.41152,2.84605 1.16595,1.20029 1.92205,2.57327 2.22793,4.01037 0.29569,1.45937 0.31921,2.7519 0.15027,3.80929 -0.349,2.42118 -1.08437,4.50227 -1.87545,6.20093 -0.29763,0.67501 -0.60452,1.32661 -0.91255,1.95703 -0.49226,1.00743 -0.97836,1.94325 -1.4269,2.82461 -0.28728,0.57544 -0.52766,1.03767 -0.68168,1.40959 0,1e-5 0,1e-5 0,1e-5 -0.074,0.4849 -0.12872,0.25805 0.0122,-0.64277 -0.0413,0.37124 0.0626,0.98916 0.17118,1.82735 0.16973,1.13606 0.40464,2.30109 0.65423,3.49015 0.69641,3.3039 1.46806,6.45569 2.14986,9.38852 1.25401,5.37273 2.17899,9.85546 2.61876,13.08617 0.43978,3.23071 0.37256,5.22039 -0.43356,5.54284 -0.80612,0.32245 -2.2613,-1.07408 -4.06022,-3.8749 -1.79891,-2.80083 -3.91835,-7.01404 -6.0542,-12.21112 -1.17286,-2.85014 -2.36945,-6.04353 -3.42113,-9.58042 -0.37815,-1.26746 -0.74459,-2.62342 -1.05054,-4.08155 -0.21567,-0.93003 -0.41518,-2.11844 -0.4565,-3.58704 0.14093,-1.73173 0.42002,-2.75598 0.65811,-3.04973 0,0 0,0 0,-1e-5 0.32827,-0.83127 0.66282,-1.54293 0.95907,-2.14492 0.47225,-0.9766 0.9441,-1.90485 1.3814,-2.79521 0.27365,-0.55716 0.53063,-1.0935 0.76367,-1.61327 0.61569,-1.46857 1.13557,-2.60596 1.2438,-3.49459 0.0248,-0.34473 0.0858,-0.47868 0.0844,-0.37701 0.0344,0.19605 0.2007,0.40069 0.48458,0.71892 0.12583,-0.13288 -0.46009,-0.30935 -1.33786,-0.74661 -1.12018,-0.43725 -2.49,-0.75684 -3.97152,-1.15463 -1.61231,-0.41538 -3.35166,-0.91358 -5.05763,-1.62352 -1.74366,-0.67072 -3.51006,-1.83151 -4.93844,-3.39314 -1.64486,-2.3759 -1.77065,-4.26657 -1.29623,-5.46189 0.40719,-1.80016 1.04822,-3.07417 1.63186,-4.07283 0.79165,-1.41374 1.52303,-2.41905 2.12537,-3.20453 0,0 1e-5,0 1e-5,0 0.23321,-0.40814 0.48493,-0.66571 0.70206,-0.86924 0.21713,-0.20353 0.4025,-0.35263 0.5612,-0.48843 0.31739,-0.27161 0.54694,-0.51663 0.84567,-0.57455 z"
       id="path3968-1"
       inkscape:path-effect="#path-effect3970-2"
       inkscape:original-d="m 392.40987,789.4855 c 0.41957,2.16397 -4.34962,9.79253 -2.02031,12.12183 3.87678,3.87678 12.857,2.75548 16.16244,6.06092 3.64075,3.64075 -4.04061,13.86947 -4.04061,16.16244 0,5.48693 7.17075,26.00809 10.10153,33.33503"
       inkscape:connector-curvature="0" />
    <path
       style="fill:#000000;fill-rule:evenodd;stroke:none"
       d="m 401.50124,795.54642 c 0.0435,0.68863 -0.57379,1.37862 -1.6725,2.08132 -1.09872,0.7027 -2.67853,1.42367 -4.59757,2.2173 -1.91904,0.79363 -4.17825,1.66319 -6.66737,2.63889 -2.48912,0.97571 -5.20928,2.05821 -8.06525,3.22446 -0.47573,0.19427 -0.94778,0.38769 -1.41575,0.57985 0,0 0,0 0,0 -5.3902,2.23071 -10.20653,4.31912 -13.90592,5.64299 -3.6994,1.32388 -6.31868,1.84581 -7.1122,0.78778 -0.39676,-0.52901 -0.29021,-1.40426 0.28681,-2.53262 0.57703,-1.12836 1.62661,-2.50813 3.11453,-4.00154 1.48793,-1.4934 3.41564,-3.09861 5.72083,-4.6596 2.30519,-1.56099 4.98834,-3.07596 7.94459,-4.39813 0,0 0,0 0,0 0.51431,-0.23151 1.03752,-0.45718 1.569,-0.67615 3.19061,-1.31452 6.37797,-2.2559 9.33688,-2.83273 2.9589,-0.57683 5.68673,-0.79102 7.98309,-0.73094 2.29635,0.0601 4.15997,0.39011 5.44508,0.86913 1.28511,0.47902 1.99223,1.10136 2.03575,1.78999 z"
       id="path3976-4"
       inkscape:path-effect="#path-effect3978-8"
       inkscape:original-d="m 401.50124,795.54642 c -17.20779,1.08741 -33.36434,9.61842 -43.43656,17.17259"
       inkscape:connector-curvature="0" />
    <path
       style="fill:none;stroke:#000000;stroke-width:10;stroke-linecap:butt;stroke-linejoin:miter;stroke-miterlimit:4;stroke-opacity:1;stroke-dasharray:none"
       d="m 391.2264,840.82996 -7.07107,44.44672 0,1.01015"
       id="path3980-2"
       inkscape:connector-curvature="0" />
    <path
       style="fill:none;stroke:#000000;stroke-width:20;stroke-linecap:butt;stroke-linejoin:miter;stroke-miterlimit:4;stroke-opacity:1;stroke-dasharray:none"
       d="m 444.41785,585.83824 -18.18275,105.05586 -2.0203,-4.04061 2.0203,5.05076"
       id="path3198-9-2"
       inkscape:connector-curvature="0" />
    <path
       style="fill:none;stroke:#000000;stroke-width:20;stroke-linecap:butt;stroke-linejoin:miter;stroke-miterlimit:4;stroke-opacity:1;stroke-dasharray:none"
       d="m 454.0143,529.26971 -18.18275,105.05586 -2.0203,-4.04061 2.0203,5.05076"
       id="path3198-9-4-2"
       inkscape:connector-curvature="0" />
    <path
       style="fill:#000000;fill-rule:evenodd;stroke:none"
       d="m 449.51718,576.00409 c 0.17539,-0.21009 1.43658,0.46742 3.63969,2.07111 2.20312,1.60369 5.34904,4.1391 9.13213,7.77236 3.78309,3.63327 8.20574,8.37102 12.7744,14.41425 4.56866,6.04324 9.28575,13.39846 13.43265,22.20189 3.61472,7.69839 6.78333,16.42101 9.24028,26.05292 2.45694,9.63191 4.19914,20.1751 5.11325,31.34601 0.79483,9.65471 1.0269,19.78437 0.7432,30.29764 -0.2837,10.51326 -1.08345,21.41003 -2.24447,32.58191 -1.69649,10.04548 -3.7513,20.32423 -6.03583,30.81092 -2.28454,10.48669 -4.79849,21.1813 -7.36139,32.06699 13.61899,-18.00438 26.0081,-38.33253 35.38014,-60.67174 5.21065,-12.4201 9.32314,-25.08859 12.22846,-37.85615 4.34611,-15.84337 6.68341,-31.80636 7.36331,-47.35047 0.67991,-15.54412 -0.29651,-30.66759 -2.53827,-44.96565 -2.61568,-16.72795 -6.86558,-32.34052 -11.86767,-46.66868 -5.00209,-14.32815 -10.75511,-27.37259 -16.56688,-39.05329 0,-1e-5 0,-1e-5 0,-2e-5 -6.17119,-12.39706 -12.41324,-23.2822 -18.17097,-32.68348 -5.75772,-9.40128 -11.0322,-17.31974 -15.41017,-23.75176 -4.37796,-6.43202 -7.86093,-11.37889 -10.1571,-14.78816 -2.29617,-3.40926 -3.40603,-5.28264 -3.14271,-5.49661 0.26332,-0.21397 1.88791,1.24147 4.6958,4.26417 2.80788,3.02269 6.79956,7.6141 11.68882,13.74505 4.88927,6.13095 10.67766,13.80276 16.95395,23.03863 6.27629,9.23586 13.04161,20.0371 19.7387,32.45953 0,10e-6 0,10e-6 0,2e-5 6.31419,11.70706 12.56038,24.88832 18.02495,39.49731 5.46457,14.60898 10.14601,30.6471 13.1377,47.96754 2.55633,14.83636 3.76404,30.5806 3.20084,46.81047 -0.56319,16.22987 -2.89876,32.94363 -7.37828,49.57664 -4.06981,12.8994 -9.42991,25.64491 -15.93983,38.07817 -11.70896,22.36285 -26.47345,42.50328 -42.29237,60.1706 1.0768,-11.59676 2.1697,-22.92324 3.12615,-33.96213 0.95646,-11.03889 1.77619,-21.79028 2.35373,-32.23336 1.29917,-10.99403 2.27163,-21.65344 2.75694,-31.89971 0.4853,-10.24627 0.48367,-20.07951 -0.0579,-29.43818 -0.63069,-10.80809 -2.0009,-20.9887 -4.04166,-30.30168 -2.04076,-9.31298 -4.74935,-17.76065 -7.89724,-25.25994 -3.58086,-8.56325 -7.74226,-15.85051 -11.79208,-21.94742 -4.04981,-6.0969 -7.99057,-11.00974 -11.33399,-14.89551 -3.34343,-3.88576 -6.09174,-6.75119 -7.92371,-8.72578 -1.83196,-1.97458 -2.748,-3.06432 -2.57261,-3.27441 z"
       id="path4207"
       inkscape:path-effect="#path-effect4209"
       inkscape:original-d="m 449.51718,576.00409 c 67.3518,56.22679 51.87042,144.5319 37.90812,230.77706 109.11523,-132.22159 51.46117,-263.60258 -22.35607,-354.44707"
       inkscape:connector-curvature="0" />
    <path
       style="fill:none;stroke:#000000;stroke-width:20;stroke-linecap:butt;stroke-linejoin:miter;stroke-miterlimit:4;stroke-opacity:1;stroke-dasharray:none"
       d="m 468.58822,441.5009 -18.18275,105.05586 -2.0203,-4.04061 2.0203,5.05076"
       id="path3198-9-4-2-1"
       inkscape:connector-curvature="0" />
    <path
       style="fill:url(#linearGradient5747);fill-opacity:1;fill-rule:nonzero"
       d="m 487.30367,800.15359 c 0.38356,-2.35714 3.5891,-17.05094 6.50611,-30.80094 4.77891,-22.52654 8.91853,-30.85726 9.64126,-56.60189 0.51677,-18.40826 -5.85856,-33.14486 -6.94482,-41.42857 -4.59876,-35.06977 -11.87966,-64.01995 -33.95898,-82.97899 l -10.72194,-9.2067 3.92199,-27.44269 c 1.88516,-13.19067 -1.29473,-39.8886 6.13095,-55.64372 l 10.79526,-28.20104 c -5.23858,-9.68199 10.03014,7.97135 14.74917,14.50705 23.8175,32.98646 66.35677,107.51638 61.63211,153.01999 -11.13166,107.21003 -13.48791,98.67692 -29.17668,124.88204 -7.23481,12.08438 -22.6312,42.68528 -33.35945,44.54697 l 2.10793,-0.36579 z"
       id="path4293"
       inkscape:connector-curvature="0"
       sodipodi:nodetypes="csssscsscsssscc" />
  </g>
</svg>
