<?xml version="1.0" encoding="UTF-8" standalone="no"?>
<!-- Created with Inkscape (http://www.inkscape.org/) -->

<svg
   xmlns:dc="http://purl.org/dc/elements/1.1/"
   xmlns:cc="http://creativecommons.org/ns#"
   xmlns:rdf="http://www.w3.org/1999/02/22-rdf-syntax-ns#"
   xmlns:svg="http://www.w3.org/2000/svg"
   xmlns="http://www.w3.org/2000/svg"
   xmlns:xlink="http://www.w3.org/1999/xlink"
   xmlns:sodipodi="http://sodipodi.sourceforge.net/DTD/sodipodi-0.dtd"
   xmlns:inkscape="http://www.inkscape.org/namespaces/inkscape"
   width="744.09448819"
   height="1052.3622047"
   id="svg2"
   version="1.1"
   inkscape:version="0.48.4 r9939"
   sodipodi:docname="skull2.svg">
  <defs
     id="defs4">
    <linearGradient
       inkscape:collect="always"
       id="linearGradient5271">
      <stop
         style="stop-color:#ffffff;stop-opacity:1;"
         offset="0"
         id="stop5273" />
      <stop
         style="stop-color:#ffffff;stop-opacity:0;"
         offset="1"
         id="stop5275" />
    </linearGradient>
    <inkscape:path-effect
       effect="skeletal"
       id="path-effect4209"
       is_visible="true"
       pattern="M 0,5 C 0,2.24 2.24,0 5,0 7.76,0 10,2.24 10,5 10,7.76 7.76,10 5,10 2.24,10 0,7.76 0,5 z"
       copytype="single_stretched"
       prop_scale="1"
       scale_y_rel="false"
       spacing="0"
       normal_offset="0"
       tang_offset="0"
       prop_units="false"
       vertical_pattern="false"
       fuse_tolerance="0" />
    <inkscape:path-effect
       effect="skeletal"
       id="path-effect4060"
       is_visible="true"
       pattern="m 48.284271,-217.85714 c 0,-2.76 2.24,-5 5,-5 2.76,0 5,2.24 5,5 0,2.76 -2.24,5 -5,5 -2.76,0 -5,-2.24 -5,-5 z"
       copytype="single_stretched"
       prop_scale="1"
       scale_y_rel="false"
       spacing="0"
       normal_offset="0"
       tang_offset="0"
       prop_units="false"
       vertical_pattern="false"
       fuse_tolerance="0" />
    <inkscape:path-effect
       effect="skeletal"
       id="path-effect3978"
       is_visible="true"
       pattern="m 11.428571,-227.85714 c 0,-2.76 2.24,-5 5,-5 2.76,0 5,2.24 5,5 0,2.76 -2.24,5 -5,5 -2.76,0 -5,-2.24 -5,-5 z"
       copytype="single_stretched"
       prop_scale="1"
       scale_y_rel="false"
       spacing="0"
       normal_offset="0"
       tang_offset="0"
       prop_units="false"
       vertical_pattern="false"
       fuse_tolerance="0" />
    <inkscape:path-effect
       effect="skeletal"
       id="path-effect3970"
       is_visible="true"
       pattern="m 11.428571,-227.85714 c 0,-2.76 2.24,-5 5,-5 2.76,0 5,2.24 5,5 0,2.76 -2.24,5 -5,5 -2.76,0 -5,-2.24 -5,-5 z"
       copytype="single_stretched"
       prop_scale="1"
       scale_y_rel="false"
       spacing="0"
       normal_offset="0"
       tang_offset="0"
       prop_units="false"
       vertical_pattern="false"
       fuse_tolerance="0" />
    <inkscape:path-effect
       effect="skeletal"
       id="path-effect3184"
       is_visible="true"
       pattern="m 11.428571,-227.85714 c 0,-2.76 2.24,-5 5,-5 2.76,0 5,2.24 5,5 0,2.76 -2.24,5 -5,5 -2.76,0 -5,-2.24 -5,-5 z"
       copytype="single_stretched"
       prop_scale="1"
       scale_y_rel="false"
       spacing="0"
       normal_offset="0"
       tang_offset="0"
       prop_units="false"
       vertical_pattern="false"
       fuse_tolerance="0" />
    <inkscape:path-effect
       effect="skeletal"
       id="path-effect3139"
       is_visible="true"
       pattern="m 27.142857,-232.14286 c 0,-2.76 2.24,-5 5,-5 2.76,0 5,2.24 5,5 0,2.76 -2.24,5 -5,5 -2.76,0 -5,-2.24 -5,-5 z"
       copytype="single_stretched"
       prop_scale="1"
       scale_y_rel="false"
       spacing="0"
       normal_offset="0"
       tang_offset="0"
       prop_units="false"
       vertical_pattern="false"
       fuse_tolerance="0" />
    <inkscape:path-effect
       effect="skeletal"
       id="path-effect3123"
       is_visible="true"
       pattern="m 11.428571,-227.85714 c 0,-2.76 2.24,-5 5,-5 2.76,0 5,2.24 5,5 0,2.76 -2.24,5 -5,5 -2.76,0 -5,-2.24 -5,-5 z"
       copytype="single_stretched"
       prop_scale="1"
       scale_y_rel="false"
       spacing="0"
       normal_offset="0"
       tang_offset="0"
       prop_units="false"
       vertical_pattern="false"
       fuse_tolerance="0" />
    <inkscape:path-effect
       effect="skeletal"
       id="path-effect3119"
       is_visible="true"
       pattern="m 11.428571,-227.85714 c 0,-2.76 2.24,-5 5,-5 2.76,0 5,2.24 5,5 0,2.76 -2.24,5 -5,5 -2.76,0 -5,-2.24 -5,-5 z"
       copytype="single_stretched"
       prop_scale="1"
       scale_y_rel="false"
       spacing="0"
       normal_offset="0"
       tang_offset="0"
       prop_units="false"
       vertical_pattern="false"
       fuse_tolerance="0" />
    <inkscape:path-effect
       effect="skeletal"
       id="path-effect3139-1"
       is_visible="true"
       pattern="m -74.568563,-230.51964 c 0,-2.76 2.24,-5 5,-5 2.76,0 5,2.24 5,5 0,2.76 -2.24,5 -5,5 -2.76,0 -5,-2.24 -5,-5 z"
       copytype="single_stretched"
       prop_scale="1"
       scale_y_rel="false"
       spacing="0"
       normal_offset="0"
       tang_offset="0"
       prop_units="false"
       vertical_pattern="false"
       fuse_tolerance="0" />
    <inkscape:path-effect
       effect="skeletal"
       id="path-effect4060-8"
       is_visible="true"
       pattern="m 89.854305,307.70722 c 0,-2.76 2.24,-5 5,-5 2.76,0 5,2.24 5,5 0,2.76 -2.24,5 -5,5 -2.76,0 -5,-2.24 -5,-5 z"
       copytype="single_stretched"
       prop_scale="1"
       scale_y_rel="false"
       spacing="0"
       normal_offset="0"
       tang_offset="0"
       prop_units="false"
       vertical_pattern="false"
       fuse_tolerance="0" />
    <inkscape:path-effect
       effect="skeletal"
       id="path-effect3978-8"
       is_visible="true"
       pattern="m 52.998605,297.70722 c 0,-2.76 2.24,-5 5,-5 2.76,0 5,2.24 5,5 0,2.76 -2.24,5 -5,5 -2.76,0 -5,-2.24 -5,-5 z"
       copytype="single_stretched"
       prop_scale="1"
       scale_y_rel="false"
       spacing="0"
       normal_offset="0"
       tang_offset="0"
       prop_units="false"
       vertical_pattern="false"
       fuse_tolerance="0" />
    <inkscape:path-effect
       effect="skeletal"
       id="path-effect3970-2"
       is_visible="true"
       pattern="m 52.998605,297.70722 c 0,-2.76 2.24,-5 5,-5 2.76,0 5,2.24 5,5 0,2.76 -2.24,5 -5,5 -2.76,0 -5,-2.24 -5,-5 z"
       copytype="single_stretched"
       prop_scale="1"
       scale_y_rel="false"
       spacing="0"
       normal_offset="0"
       tang_offset="0"
       prop_units="false"
       vertical_pattern="false"
       fuse_tolerance="0" />
    <inkscape:path-effect
       effect="skeletal"
       id="path-effect3184-4"
       is_visible="true"
       pattern="m 52.998605,297.70722 c 0,-2.76 2.24,-5 5,-5 2.76,0 5,2.24 5,5 0,2.76 -2.24,5 -5,5 -2.76,0 -5,-2.24 -5,-5 z"
       copytype="single_stretched"
       prop_scale="1"
       scale_y_rel="false"
       spacing="0"
       normal_offset="0"
       tang_offset="0"
       prop_units="false"
       vertical_pattern="false"
       fuse_tolerance="0" />
    <inkscape:path-effect
       effect="skeletal"
       id="path-effect3139-1-5"
       is_visible="true"
       pattern="m -32.998525,295.04472 c 0,-2.76 2.24,-5 5,-5 2.76,0 5,2.24 5,5 0,2.76 -2.24,5 -5,5 -2.76,0 -5,-2.24 -5,-5 z"
       copytype="single_stretched"
       prop_scale="1"
       scale_y_rel="false"
       spacing="0"
       normal_offset="0"
       tang_offset="0"
       prop_units="false"
       vertical_pattern="false"
       fuse_tolerance="0" />
    <inkscape:path-effect
       effect="skeletal"
       id="path-effect3139-5"
       is_visible="true"
       pattern="m 68.712895,293.42151 c 0,-2.76 2.24,-5 5,-5 2.76,0 5,2.24 5,5 0,2.76 -2.24,5 -5,5 -2.76,0 -5,-2.24 -5,-5 z"
       copytype="single_stretched"
       prop_scale="1"
       scale_y_rel="false"
       spacing="0"
       normal_offset="0"
       tang_offset="0"
       prop_units="false"
       vertical_pattern="false"
       fuse_tolerance="0" />
    <inkscape:path-effect
       effect="skeletal"
       id="path-effect3123-1"
       is_visible="true"
       pattern="m 52.998605,297.70722 c 0,-2.76 2.24,-5 5,-5 2.76,0 5,2.24 5,5 0,2.76 -2.24,5 -5,5 -2.76,0 -5,-2.24 -5,-5 z"
       copytype="single_stretched"
       prop_scale="1"
       scale_y_rel="false"
       spacing="0"
       normal_offset="0"
       tang_offset="0"
       prop_units="false"
       vertical_pattern="false"
       fuse_tolerance="0" />
    <inkscape:path-effect
       effect="skeletal"
       id="path-effect3119-7"
       is_visible="true"
       pattern="m 52.998605,297.70722 c 0,-2.76 2.24,-5 5,-5 2.76,0 5,2.24 5,5 0,2.76 -2.24,5 -5,5 -2.76,0 -5,-2.24 -5,-5 z"
       copytype="single_stretched"
       prop_scale="1"
       scale_y_rel="false"
       spacing="0"
       normal_offset="0"
       tang_offset="0"
       prop_units="false"
       vertical_pattern="false"
       fuse_tolerance="0" />
    <radialGradient
       inkscape:collect="always"
       xlink:href="#linearGradient5271"
       id="radialGradient5277"
       cx="499.21086"
       cy="635.40339"
       fx="499.21086"
       fy="635.40339"
       r="43.460429"
       gradientTransform="matrix(1,0,0,3.8562416,0,-1814.8656)"
       gradientUnits="userSpaceOnUse" />
  </defs>
  <sodipodi:namedview
     id="base"
     pagecolor="#000000"
     bordercolor="#666666"
     borderopacity="1.0"
     inkscape:pageopacity="0"
     inkscape:pageshadow="2"
     inkscape:zoom="0.49497475"
     inkscape:cx="-196.33811"
     inkscape:cy="117.56265"
     inkscape:document-units="px"
     inkscape:current-layer="layer2"
     showgrid="false"
     inkscape:window-width="1920"
     inkscape:window-height="1003"
     inkscape:window-x="-9"
     inkscape:window-y="-9"
     inkscape:window-maximized="1" />
  <metadata
     id="metadata7">
    <rdf:RDF>
      <cc:Work
         rdf:about="">
        <dc:format>image/svg+xml</dc:format>
        <dc:type
           rdf:resource="http://purl.org/dc/dcmitype/StillImage" />
        <dc:title></dc:title>
      </cc:Work>
    </rdf:RDF>
  </metadata>
  <g
     inkscape:groupmode="layer"
     id="layer2"
     inkscape:label="Layer" />
  <g
     inkscape:label="Layer 1"
     inkscape:groupmode="layer"
     id="layer1">
    <path
       style="fill:#000000;fill-rule:evenodd;stroke:none"
       d="m 409.02387,914.43257 c 0.18798,0.18798 -0.13267,0.92116 -1.113,2.06752 -0.98034,1.14635 -2.64197,2.70725 -5.1875,4.23795 -2.0953,0.78722 -4.482,2.05711 -6.77653,4.06406 -2.29453,2.00695 -4.50802,4.76511 -5.89191,8.22313 -1.12318,2.47852 -2.01238,5.26592 -2.65415,8.32586 -0.64178,3.05994 -1.03533,6.39322 -1.2333,9.90442 -11.76479,-0.40025 -25.57037,-0.45854 -41.01495,-0.22083 -15.44459,0.23771 -32.53007,0.7726 -50.76532,1.05631 -3.81611,-7.20886 -6.2117,-14.75989 -8.78439,-21.88223 -1.41955,-5.72152 -2.54215,-11.21738 -5.50641,-14.78948 -0.89624,-0.31057 -1.84169,-0.56541 -2.83057,-0.78469 -2.80155,-0.62121 -5.91296,-0.95236 -9.1757,-1.4624 -2.25675,-0.42902 -4.62879,-0.91124 -7.06121,-1.61199 -10e-6,0 -10e-6,0 -2e-5,-10e-6 -2.21267,-0.90742 -4.74983,-2.16044 -7.3278,-4.09437 -4.09576,-11.89315 -6.73626,-23.78039 -8.36933,-35.19556 -0.84229,-6.80992 -1.30066,-13.51761 -1.33604,-20.02774 -0.0354,-6.51013 0.3522,-12.82255 1.15553,-18.85998 0.87676,-6.75483 2.35183,-13.23424 4.42537,-19.1432 2.07354,-5.90896 4.74398,-11.24826 7.88165,-15.87914 3.70614,-5.43629 8.0816,-9.74165 12.51524,-12.90654 3.15953,-2.23029 6.30407,-3.8831 9.25057,-5.12272 2.9465,-1.23962 5.69639,-2.06656 8.14271,-2.62519 8.30809,-0.84557 12.87942,-0.99148 12.99033,-0.34357 0.11091,0.64791 -4.23834,2.02909 -12.14005,3.95843 -2.17931,0.83428 -4.5872,1.89313 -7.10495,3.2862 -2.51774,1.39308 -5.14677,3.12076 -7.69729,5.30156 -3.67894,3.1022 -7.23952,7.16709 -10.21702,12.13788 -2.56414,4.24739 -4.68057,9.1324 -6.28458,14.5708 -1.60401,5.43841 -2.69465,11.4315 -3.34193,17.74727 -0.56015,5.65609 -0.73758,11.57667 -0.53531,17.70825 0.20228,6.13157 0.78424,12.47415 1.69794,18.95551 1.21357,10.13141 3.2378,20.5383 6.5329,30.81772 0.34176,0.12747 1.26737,0.0591 2.51979,0.15081 0,0 0,10e-6 1e-5,10e-6 1.8915,0.54607 3.96432,0.94647 6.17434,1.36966 3.58276,0.796 7.45325,1.55858 11.46983,2.76095 1.41775,0.4244 2.84673,0.90202 4.27993,1.45257 5.16616,6.443 7.58472,13.65337 9.46127,20.01963 1.13406,6.47139 1.77585,12.53668 3.62287,17.6121 16.16244,0.31099 31.50934,0.41618 45.67522,0.7993 14.16587,0.38312 27.14888,1.04269 38.52633,1.99152 -0.41566,-3.15059 -0.44552,-6.24938 -0.0839,-9.15261 0.36165,-2.90323 1.11389,-5.61155 2.20108,-8.04712 2.06118,-4.20103 5.0383,-7.24321 8.01539,-9.29174 2.9771,-2.04854 5.9649,-3.11808 8.50785,-3.607 2.35898,-0.92157 4.10182,-1.93009 5.30625,-2.61549 1.20443,-0.6854 1.89275,-1.0438 2.08073,-0.85582 z"
       id="path3117-1"
       inkscape:path-effect="#path-effect3119-7"
       inkscape:original-d="m 409.02387,914.43257 c -1.8887,1.88871 -4.41279,3.67291 -6.84374,4.88839 -15.09909,4.15428 -17.95709,19.3243 -17.59817,30.30797 -29.94881,-1.74587 -60.30051,-0.95571 -87.99091,-0.97767 -5.57534,-12.09386 -6.40518,-28.18134 -13.68747,-37.15172 -8.05775,-2.9787 -20.4771,-3.3542 -25.4196,-6.84373 -12.29506,-36.88517 -19.46809,-110.15363 30.30797,-125.14263 l 12.56519,-2.151"
       inkscape:connector-curvature="0"
       sodipodi:nodetypes="cccccccc"
       inkscape:export-filename="C:\Users\Rui\Desktop\TrabalhosGit\Flybeat\flybeat\reports\Meta 3\Packaging\skull1.png"
       inkscape:export-xdpi="52.893532"
       inkscape:export-ydpi="52.893532" />
    <path
       style="fill:#000000;fill-rule:evenodd;stroke:none"
       d="m 292.68034,778.5355 c -0.15972,-0.47711 1.46166,-1.55892 4.71327,-3.0261 3.25162,-1.46719 8.1439,-3.32183 14.54273,-5.0504 6.39884,-1.72857 14.31471,-3.33216 23.46696,-3.97098 9.15225,-0.63881 19.5463,-0.30693 30.63211,2.12914 8.27101,1.84127 16.79373,5.00983 24.90357,9.69442 8.10983,4.6846 15.80097,10.88631 22.25582,18.60172 0.94862,1.13387 1.86323,2.29158 2.74256,3.47152 6.44073,8.73914 10.81933,18.37606 13.47806,27.96546 2.65872,9.58941 3.60206,19.12478 3.32189,27.92896 -0.33297,10.23867 -2.17112,19.446 -4.5719,27.34596 -2.40078,7.89995 -5.3598,14.49869 -8.1454,19.72297 -2.78561,5.22427 -5.39707,9.08378 -7.34957,11.58676 -1.9525,2.50298 -3.24526,3.65917 -3.64657,3.40835 -0.40131,-0.25082 0.11214,-1.89139 1.28027,-4.77837 1.16812,-2.88699 2.98923,-7.03065 4.99377,-12.36003 2.00455,-5.32939 4.19259,-11.85292 5.89227,-19.42794 1.69969,-7.57501 2.90864,-16.20522 2.76725,-25.58344 -0.11578,-8.02782 -1.2541,-16.62567 -3.80917,-25.18023 -2.55508,-8.55456 -6.52826,-17.05945 -12.23355,-24.66763 -0.76357,-1.03122 -1.5591,-2.04456 -2.38545,-3.0388 -5.62295,-6.76527 -12.37763,-12.29108 -19.53612,-16.57947 -7.1585,-4.28839 -14.71591,-7.33841 -22.09309,-9.28219 -9.98061,-2.65956 -19.57936,-3.45048 -28.21215,-3.41792 -8.63278,0.0326 -16.30093,0.8857 -22.63746,1.80011 -6.33653,0.9144 -11.34973,1.89257 -14.81539,2.46001 -3.46567,0.56744 -5.39499,0.72523 -5.55471,0.24812 z"
       id="path3121-1"
       inkscape:path-effect="#path-effect3123-1"
       inkscape:original-d="m 292.68034,778.5355 c 110.95463,-37.14306 168.25271,56.75308 116.34353,139.80778"
       inkscape:connector-curvature="0"
       inkscape:export-filename="C:\Users\Rui\Desktop\TrabalhosGit\Flybeat\flybeat\reports\Meta 3\Packaging\skull1.png"
       inkscape:export-xdpi="52.893532"
       inkscape:export-ydpi="52.893532" />
    <path
       style="fill:#000000;fill-rule:evenodd;stroke:none"
       d="m 376.76054,838.17379 c 0.26289,0.48124 -0.55061,1.5112 -2.20495,3.04011 -1.65433,1.52891 -4.16168,3.54719 -7.07211,6.19698 -1.27205,1.20008 -2.65254,2.45537 -3.89515,3.79282 -1.24261,1.33746 -2.34855,2.75552 -2.90228,4.35244 -0.58288,1.33865 -0.85306,2.89378 -0.80849,4.55641 0.0446,1.66262 0.40372,3.43295 1.04424,5.12284 0,0 0,0 0,0 1.25705,3.2689 3.65629,6.40849 6.768,8.97878 2.83901,2.2223 6.11985,4.02036 9.40782,4.26658 0.47358,0.056 0.95899,0.0713 1.44894,0.0477 2.4205,-0.11673 4.84376,-1.17091 6.45527,-2.78307 0.55233,-0.36986 1.00272,-1.49782 1.69411,-2.91641 0.82562,-1.93054 1.40875,-4.03438 1.90833,-6.19185 1.24917,-5.54387 1.6962,-10.84969 1.49211,-15.60508 0,0 0,0 0,0 -0.11952,-2.51079 -0.37928,-4.7669 -0.91174,-6.73353 -0.55021,-1.85258 -1.12044,-3.3727 -1.97772,-4.3611 -0.38284,-0.51066 -0.89195,-0.93554 -1.43647,-1.25374 -0.54451,-0.31819 -1.12504,-0.52995 -1.68965,-0.63758 -0.93307,-0.20437 -1.8633,-0.1706 -2.7137,-0.0848 -0.85041,0.0858 -1.62166,0.22644 -2.27244,0.32891 -1.30155,0.20495 -2.11828,0.24337 -2.33412,-0.11637 -0.21584,-0.35974 0.15014,-1.10543 1.2506,-2.08354 0.55022,-0.48906 1.29015,-1.03108 2.27674,-1.5285 0.98659,-0.49741 2.22038,-0.95317 3.77913,-1.16492 1.09992,-0.11257 2.30466,-0.0398 3.53919,0.29644 1.23453,0.33623 2.49939,0.93637 3.67022,1.87175 1.97577,1.6484 3.5508,3.91538 4.54168,6.34771 1.08996,2.54439 1.83486,5.38159 2.2666,8.30963 0,0 0,0 0,0 0.83542,5.50053 0.84091,11.74329 -0.27408,18.2247 -0.42428,2.54174 -1.05823,5.2251 -2.08606,7.96492 -0.61497,1.87323 -1.71679,4.10833 -3.74105,6.31507 -3.38833,3.38768 -7.98111,5.49502 -12.91932,5.76075 -0.99958,0.0538 -2.00483,0.0319 -3.00722,-0.0667 -5.88029,-0.71359 -10.88923,-3.3984 -14.6624,-6.78285 -4.27904,-3.69663 -7.39786,-8.4462 -8.99457,-13.47047 0,0 0,0 0,-10e-6 -0.90494,-2.80131 -1.19955,-5.69877 -0.94933,-8.44806 0.25023,-2.74929 1.04468,-5.35031 2.2773,-7.64265 1.53104,-2.57264 3.35526,-4.45609 5.14915,-5.94137 1.79388,-1.48529 3.55946,-2.57251 5.13379,-3.45989 3.67726,-2.18146 6.77056,-3.47678 8.97038,-4.18011 2.19982,-0.70333 3.51636,-0.80318 3.77925,-0.32194 z"
       id="path3137-5"
       inkscape:path-effect="#path-effect3139-5"
       inkscape:original-d="m 376.76054,838.17379 c -6.28266,3.43199 -16.56842,9.67259 -19.55353,15.64283 -8.24577,16.49153 17.37768,39.32757 31.28566,25.41959 7.99625,-7.99626 10.84212,-54.60697 -11.73213,-41.06242 z"
       inkscape:connector-curvature="0"
       inkscape:export-filename="C:\Users\Rui\Desktop\TrabalhosGit\Flybeat\flybeat\reports\Meta 3\Packaging\skull1.png"
       inkscape:export-xdpi="52.893532"
       inkscape:export-ydpi="52.893532" />
    <path
       style="fill:#000000;fill-rule:evenodd;stroke:none"
       d="m 303.62836,839.28467 c 0.26289,-0.48124 1.57943,-0.38139 3.77925,0.32194 2.19982,0.70333 5.29312,1.99865 8.97038,4.18012 1.57432,0.88737 3.33991,1.97459 5.13379,3.45988 1.79389,1.48528 3.61811,3.36873 5.14915,5.94137 1.23262,2.29234 2.02707,4.89336 2.2773,7.64265 0.25022,2.74929 -0.0444,5.64675 -0.94933,8.44806 0,10e-6 0,10e-6 0,10e-6 -1.5967,5.02427 -4.71553,9.77384 -8.99456,13.47047 -3.77317,3.38445 -8.78212,6.06926 -14.6624,6.78285 -1.0024,0.0985 -2.00765,0.12045 -3.00723,0.0667 -4.93821,-0.26574 -9.53099,-2.37307 -12.91932,-5.76075 -2.02426,-2.20674 -3.12607,-4.44184 -3.74105,-6.31507 -1.02783,-2.73982 -1.66178,-5.42318 -2.08606,-7.96492 -1.11499,-6.48141 -1.1095,-12.72417 -0.27408,-18.2247 0,0 0,0 0,0 0.43173,-2.92804 1.17664,-5.76524 2.2666,-8.30963 0.99088,-2.43233 2.56591,-4.69931 4.54168,-6.34771 1.17083,-0.93538 2.43569,-1.53552 3.67022,-1.87175 1.23453,-0.33624 2.43927,-0.40901 3.53918,-0.29644 1.55875,0.21175 2.79255,0.66751 3.77914,1.16492 0.98659,0.49742 1.72652,1.03944 2.27674,1.5285 1.10046,0.97811 1.46644,1.7238 1.2506,2.08354 -0.21584,0.35974 -1.03257,0.32132 -2.33412,0.11637 -0.65078,-0.10247 -1.42203,-0.24314 -2.27244,-0.32891 -0.85041,-0.0858 -1.78064,-0.11954 -2.7137,0.0848 -0.56461,0.10763 -1.14514,0.31939 -1.68966,0.63758 -0.54451,0.3182 -1.05362,0.74308 -1.43647,1.25374 -0.85728,0.9884 -1.4275,2.50852 -1.97771,4.3611 -0.53247,1.96663 -0.79222,4.22274 -0.91175,6.73353 0,0 0,0 0,0 -0.20408,4.75539 0.24295,10.06121 1.49211,15.60507 0.49958,2.15747 1.08272,4.26132 1.90834,6.19186 0.69139,1.41859 1.14177,2.54654 1.69411,2.91641 1.61151,1.61216 4.03477,2.66634 6.45527,2.78307 0.48995,0.0236 0.97536,0.008 1.44894,-0.0477 3.28798,-0.24622 6.56881,-2.04428 9.40783,-4.26658 3.11171,-2.57029 5.51094,-5.70988 6.76799,-8.97878 0,0 0,0 10e-6,0 0.64051,-1.68989 0.99966,-3.46022 1.04423,-5.12284 0.0446,-1.66263 -0.22561,-3.21776 -0.80849,-4.55641 -0.55373,-1.59692 -1.65967,-3.01498 -2.90228,-4.35243 -1.24261,-1.33746 -2.6231,-2.59274 -3.89515,-3.79283 -2.91043,-2.64979 -5.41778,-4.66807 -7.07211,-6.19698 -1.65434,-1.52891 -2.46784,-2.55887 -2.20495,-3.04011 z"
       id="path3137-7-2"
       inkscape:path-effect="#path-effect3139-1-5"
       inkscape:original-d="m 303.62836,839.28467 c 6.28266,3.432 16.56842,9.67259 19.55353,15.64283 8.24577,16.49153 -17.37767,39.32757 -31.28566,25.41959 -7.99625,-7.99626 -10.84213,-54.60697 11.73213,-41.06242 z"
       inkscape:connector-curvature="0"
       inkscape:export-filename="C:\Users\Rui\Desktop\TrabalhosGit\Flybeat\flybeat\reports\Meta 3\Packaging\skull1.png"
       inkscape:export-xdpi="52.893532"
       inkscape:export-ydpi="52.893532" />
    <path
       style="fill:#000000;fill-rule:evenodd;stroke:none"
       d="m 332.28432,913.90766 c -0.44147,-0.27134 -0.77648,-0.68933 -0.98387,-1.25624 -0.2074,-0.56691 -0.28849,-1.28504 -0.14661,-2.12785 0.14188,-0.84281 0.50992,-1.81316 1.26153,-2.81438 0.75162,-1.00121 1.89325,-2.03467 3.56922,-2.90041 0,0 10e-6,0 10e-6,0 1.25396,-0.43445 2.57205,-0.66864 3.84736,-0.67928 1.27531,-0.0107 2.50643,0.2026 3.59249,0.61736 0.30059,0.1148 0.58626,0.24324 0.85623,0.38325 1.22473,0.55995 2.2149,1.17943 3.02232,1.77914 0.80742,0.59972 1.43491,1.18019 1.95496,1.71587 0.54717,0.48583 0.94262,0.98093 1.26944,1.44728 0.32682,0.46636 0.58768,0.90536 0.8263,1.32522 0.23862,0.41985 0.45582,0.82292 0.62923,1.23484 0.17341,0.41192 0.30139,0.83521 0.30139,1.2752 0,0.43999 -0.13549,0.86982 -0.45151,1.25268 -0.31601,0.38285 -0.814,0.71621 -1.47047,0.94768 -0.65647,0.23147 -1.47047,0.35858 -2.34666,0.35188 -0.8762,-0.007 -1.81177,-0.1488 -2.66865,-0.40172 -0.92384,-0.22402 -1.83509,-0.5314 -2.67089,-0.84755 -0.8358,-0.31615 -1.59401,-0.63918 -2.26688,-0.87748 -0.12888,-0.0278 -0.25167,-0.0589 -0.3676,-0.0925 -0.8377,-0.24292 -1.1943,-0.58012 -1.31201,-0.63014 0,0 0,0 0,0 -0.3038,-0.24828 -0.74256,-0.22162 -1.27643,-0.10546 -0.53387,0.11616 -1.15735,0.32051 -1.78744,0.48307 -1.26018,0.3251 -2.49852,0.46227 -3.38146,-0.0804 z"
       id="path3182-7"
       inkscape:path-effect="#path-effect3184-4"
       inkscape:original-d="m 332.28432,913.90766 c 6.84466,-11.13608 13.31708,0 20,0"
       inkscape:connector-curvature="0"
       inkscape:export-filename="C:\Users\Rui\Desktop\TrabalhosGit\Flybeat\flybeat\reports\Meta 3\Packaging\skull1.png"
       inkscape:export-xdpi="52.893532"
       inkscape:export-ydpi="52.893532" />
    <path
       style="fill:none;stroke:#000000;stroke-width:20;stroke-linecap:butt;stroke-linejoin:miter;stroke-miterlimit:4;stroke-opacity:1;stroke-dasharray:none"
       d="m 426.23511,691.39919 -18.18275,105.05586 -2.0203,-4.04061 2.0203,5.05076"
       id="path3198-6"
       inkscape:connector-curvature="0"
       inkscape:export-filename="C:\Users\Rui\Desktop\TrabalhosGit\Flybeat\flybeat\reports\Meta 3\Packaging\skull1.png"
       inkscape:export-xdpi="52.893532"
       inkscape:export-ydpi="52.893532" />
    <path
       style="fill:#000000;fill-rule:evenodd;stroke:none"
       d="m 392.40987,789.4855 c 0.29873,-0.0579 0.65859,0.13863 0.90872,0.7139 0.12506,0.28763 0.21707,0.66339 0.26013,1.07634 0.0431,0.41296 0.0344,0.86391 0.008,1.23635 0,0 0,0 0,0 -0.0221,1.08916 -0.21549,2.4238 -0.39478,3.83449 -0.13145,1.08152 -0.29897,2.15717 -0.17215,3.0282 0.29393,0.52421 0.21226,0.70645 -0.0802,-0.31709 0.4779,0.34465 1.33305,0.53408 2.45371,0.84227 1.14392,0.26406 2.51471,0.40958 4.14117,0.63049 1.431,0.17442 3.1011,0.39037 5.01303,0.88513 1.52749,0.30207 3.42688,1.12013 5.41152,2.84605 1.16595,1.20029 1.92205,2.57327 2.22793,4.01037 0.29569,1.45937 0.31921,2.7519 0.15027,3.80929 -0.349,2.42118 -1.08437,4.50227 -1.87545,6.20093 -0.29763,0.67501 -0.60452,1.32661 -0.91255,1.95703 -0.49226,1.00743 -0.97836,1.94325 -1.4269,2.82461 -0.28728,0.57544 -0.52766,1.03767 -0.68168,1.40959 0,1e-5 0,1e-5 0,1e-5 -0.074,0.4849 -0.12872,0.25805 0.0122,-0.64277 -0.0413,0.37124 0.0626,0.98916 0.17118,1.82735 0.16973,1.13606 0.40464,2.30109 0.65423,3.49015 0.69641,3.3039 1.46806,6.45569 2.14986,9.38852 1.25401,5.37273 2.17899,9.85546 2.61876,13.08617 0.43978,3.23071 0.37256,5.22039 -0.43356,5.54284 -0.80612,0.32245 -2.2613,-1.07408 -4.06022,-3.8749 -1.79891,-2.80083 -3.91835,-7.01404 -6.0542,-12.21112 -1.17286,-2.85014 -2.36945,-6.04353 -3.42113,-9.58042 -0.37815,-1.26746 -0.74459,-2.62342 -1.05054,-4.08155 -0.21567,-0.93003 -0.41518,-2.11844 -0.4565,-3.58704 0.14093,-1.73173 0.42002,-2.75598 0.65811,-3.04973 0,0 0,0 0,-1e-5 0.32827,-0.83127 0.66282,-1.54293 0.95907,-2.14492 0.47225,-0.9766 0.9441,-1.90485 1.3814,-2.79521 0.27365,-0.55716 0.53063,-1.0935 0.76367,-1.61327 0.61569,-1.46857 1.13557,-2.60596 1.2438,-3.49459 0.0248,-0.34473 0.0858,-0.47868 0.0844,-0.37701 0.0344,0.19605 0.2007,0.40069 0.48458,0.71892 0.12583,-0.13288 -0.46009,-0.30935 -1.33786,-0.74661 -1.12018,-0.43725 -2.49,-0.75684 -3.97152,-1.15463 -1.61231,-0.41538 -3.35166,-0.91358 -5.05763,-1.62352 -1.74366,-0.67072 -3.51006,-1.83151 -4.93844,-3.39314 -1.64486,-2.3759 -1.77065,-4.26657 -1.29623,-5.46189 0.40719,-1.80016 1.04822,-3.07417 1.63186,-4.07283 0.79165,-1.41374 1.52303,-2.41905 2.12537,-3.20453 0,0 1e-5,0 1e-5,0 0.23321,-0.40814 0.48493,-0.66571 0.70206,-0.86924 0.21713,-0.20353 0.4025,-0.35263 0.5612,-0.48843 0.31739,-0.27161 0.54694,-0.51663 0.84567,-0.57455 z"
       id="path3968-1"
       inkscape:path-effect="#path-effect3970-2"
       inkscape:original-d="m 392.40987,789.4855 c 0.41957,2.16397 -4.34962,9.79253 -2.02031,12.12183 3.87678,3.87678 12.857,2.75548 16.16244,6.06092 3.64075,3.64075 -4.04061,13.86947 -4.04061,16.16244 0,5.48693 7.17075,26.00809 10.10153,33.33503"
       inkscape:connector-curvature="0"
       inkscape:export-filename="C:\Users\Rui\Desktop\TrabalhosGit\Flybeat\flybeat\reports\Meta 3\Packaging\skull1.png"
       inkscape:export-xdpi="52.893532"
       inkscape:export-ydpi="52.893532" />
    <path
       style="fill:#000000;fill-rule:evenodd;stroke:none"
       d="m 401.50124,795.54642 c 0.0435,0.68863 -0.57379,1.37862 -1.6725,2.08132 -1.09872,0.7027 -2.67853,1.42367 -4.59757,2.2173 -1.91904,0.79363 -4.17825,1.66319 -6.66737,2.63889 -2.48912,0.97571 -5.20928,2.05821 -8.06525,3.22446 -0.47573,0.19427 -0.94778,0.38769 -1.41575,0.57985 0,0 0,0 0,0 -5.3902,2.23071 -10.20653,4.31912 -13.90592,5.64299 -3.6994,1.32388 -6.31868,1.84581 -7.1122,0.78778 -0.39676,-0.52901 -0.29021,-1.40426 0.28681,-2.53262 0.57703,-1.12836 1.62661,-2.50813 3.11453,-4.00154 1.48793,-1.4934 3.41564,-3.09861 5.72083,-4.6596 2.30519,-1.56099 4.98834,-3.07596 7.94459,-4.39813 0,0 0,0 0,0 0.51431,-0.23151 1.03752,-0.45718 1.569,-0.67615 3.19061,-1.31452 6.37797,-2.2559 9.33688,-2.83273 2.9589,-0.57683 5.68673,-0.79102 7.98309,-0.73094 2.29635,0.0601 4.15997,0.39011 5.44508,0.86913 1.28511,0.47902 1.99223,1.10136 2.03575,1.78999 z"
       id="path3976-4"
       inkscape:path-effect="#path-effect3978-8"
       inkscape:original-d="m 401.50124,795.54642 c -17.20779,1.08741 -33.36434,9.61842 -43.43656,17.17259"
       inkscape:connector-curvature="0"
       inkscape:export-filename="C:\Users\Rui\Desktop\TrabalhosGit\Flybeat\flybeat\reports\Meta 3\Packaging\skull1.png"
       inkscape:export-xdpi="52.893532"
       inkscape:export-ydpi="52.893532" />
    <path
       style="fill:none;stroke:#000000;stroke-width:10;stroke-linecap:butt;stroke-linejoin:miter;stroke-miterlimit:4;stroke-opacity:1;stroke-dasharray:none"
       d="m 391.2264,840.82996 -7.07107,44.44672 0,1.01015"
       id="path3980-2"
       inkscape:connector-curvature="0"
       inkscape:export-filename="C:\Users\Rui\Desktop\TrabalhosGit\Flybeat\flybeat\reports\Meta 3\Packaging\skull1.png"
       inkscape:export-xdpi="52.893532"
       inkscape:export-ydpi="52.893532" />
    <path
       style="fill:none;stroke:#000000;stroke-width:20;stroke-linecap:butt;stroke-linejoin:miter;stroke-miterlimit:4;stroke-opacity:1;stroke-dasharray:none"
       d="m 444.41785,585.83824 -18.18275,105.05586 -2.0203,-4.04061 2.0203,5.05076"
       id="path3198-9-2"
       inkscape:connector-curvature="0"
       inkscape:export-filename="C:\Users\Rui\Desktop\TrabalhosGit\Flybeat\flybeat\reports\Meta 3\Packaging\skull1.png"
       inkscape:export-xdpi="52.893532"
       inkscape:export-ydpi="52.893532" />
    <path
       style="fill:none;stroke:#000000;stroke-width:20;stroke-linecap:butt;stroke-linejoin:miter;stroke-miterlimit:4;stroke-opacity:1;stroke-dasharray:none"
       d="m 454.0143,529.26971 -18.18275,105.05586 -2.0203,-4.04061 2.0203,5.05076"
       id="path3198-9-4-2"
       inkscape:connector-curvature="0"
       inkscape:export-filename="C:\Users\Rui\Desktop\TrabalhosGit\Flybeat\flybeat\reports\Meta 3\Packaging\skull1.png"
       inkscape:export-xdpi="52.893532"
       inkscape:export-ydpi="52.893532" />
    <path
       style="fill:#000000;fill-rule:evenodd;stroke:none"
       d="m 449.51718,576.00409 c 0.17539,-0.21009 1.43658,0.46742 3.63969,2.07111 2.20312,1.60369 5.34904,4.1391 9.13213,7.77236 3.78309,3.63327 8.20574,8.37102 12.7744,14.41425 4.56866,6.04324 9.28575,13.39846 13.43265,22.20189 3.61472,7.69839 6.78333,16.42101 9.24028,26.05292 2.45694,9.63191 4.19914,20.1751 5.11325,31.34601 0.79483,9.65471 1.0269,19.78437 0.7432,30.29764 -0.2837,10.51326 -1.08345,21.41003 -2.24447,32.58191 -1.69649,10.04548 -3.7513,20.32423 -6.03583,30.81092 -2.28454,10.48669 -4.79849,21.1813 -7.36139,32.06699 13.61899,-18.00438 26.0081,-38.33253 35.38014,-60.67174 5.21065,-12.4201 9.32314,-25.08859 12.22846,-37.85615 4.34611,-15.84337 6.68341,-31.80636 7.36331,-47.35047 0.67991,-15.54412 -0.29651,-30.66759 -2.53827,-44.96565 -2.61568,-16.72795 -6.86558,-32.34052 -11.86767,-46.66868 -5.00209,-14.32815 -10.75511,-27.37259 -16.56688,-39.05329 0,-1e-5 0,-1e-5 0,-2e-5 -6.17119,-12.39706 -12.41324,-23.2822 -18.17097,-32.68348 -5.75772,-9.40128 -11.0322,-17.31974 -15.41017,-23.75176 -4.37796,-6.43202 -7.86093,-11.37889 -10.1571,-14.78816 -2.29617,-3.40926 -3.40603,-5.28264 -3.14271,-5.49661 0.26332,-0.21397 1.88791,1.24147 4.6958,4.26417 2.80788,3.02269 6.79956,7.6141 11.68882,13.74505 4.88927,6.13095 10.67766,13.80276 16.95395,23.03863 6.27629,9.23586 13.04161,20.0371 19.7387,32.45953 0,10e-6 0,10e-6 0,2e-5 6.31419,11.70706 12.56038,24.88832 18.02495,39.49731 5.46457,14.60898 10.14601,30.6471 13.1377,47.96754 2.55633,14.83636 3.76404,30.5806 3.20084,46.81047 -0.56319,16.22987 -2.89876,32.94363 -7.37828,49.57664 -4.06981,12.8994 -9.42991,25.64491 -15.93983,38.07817 -11.70896,22.36285 -26.47345,42.50328 -42.29237,60.1706 1.0768,-11.59676 2.1697,-22.92324 3.12615,-33.96213 0.95646,-11.03889 1.77619,-21.79028 2.35373,-32.23336 1.29917,-10.99403 2.27163,-21.65344 2.75694,-31.89971 0.4853,-10.24627 0.48367,-20.07951 -0.0579,-29.43818 -0.63069,-10.80809 -2.0009,-20.9887 -4.04166,-30.30168 -2.04076,-9.31298 -4.74935,-17.76065 -7.89724,-25.25994 -3.58086,-8.56325 -7.74226,-15.85051 -11.79208,-21.94742 -4.04981,-6.0969 -7.99057,-11.00974 -11.33399,-14.89551 -3.34343,-3.88576 -6.09174,-6.75119 -7.92371,-8.72578 -1.83196,-1.97458 -2.748,-3.06432 -2.57261,-3.27441 z"
       id="path4207"
       inkscape:path-effect="#path-effect4209"
       inkscape:original-d="m 449.51718,576.00409 c 67.3518,56.22679 51.87042,144.5319 37.90812,230.77706 109.11523,-132.22159 51.46117,-263.60258 -22.35607,-354.44707"
       inkscape:connector-curvature="0"
       inkscape:export-filename="C:\Users\Rui\Desktop\TrabalhosGit\Flybeat\flybeat\reports\Meta 3\Packaging\skull1.png"
       inkscape:export-xdpi="52.893532"
       inkscape:export-ydpi="52.893532" />
    <path
       style="fill:none;stroke:#000000;stroke-width:20;stroke-linecap:butt;stroke-linejoin:miter;stroke-miterlimit:4;stroke-opacity:1;stroke-dasharray:none"
       d="m 468.58822,441.5009 -18.18275,105.05586 -2.0203,-4.04061 2.0203,5.05076"
       id="path3198-9-4-2-1"
       inkscape:connector-curvature="0"
       inkscape:export-filename="C:\Users\Rui\Desktop\TrabalhosGit\Flybeat\flybeat\reports\Meta 3\Packaging\skull1.png"
       inkscape:export-xdpi="52.893532"
       inkscape:export-ydpi="52.893532" />
    <path
       style="fill:none;stroke:#000000;stroke-width:1px;stroke-linecap:butt;stroke-linejoin:miter;stroke-opacity:1"
       d="m 406.78571,915.93361 6.07143,-3.92857"
       id="path3789"
       inkscape:connector-curvature="0"
       inkscape:export-filename="C:\Users\Rui\Desktop\TrabalhosGit\Flybeat\flybeat\reports\Meta 3\Packaging\skull1.png"
       inkscape:export-xdpi="52.893532"
       inkscape:export-ydpi="52.893532" />
    <path
       style="fill:#ffffff;fill-opacity:0;fill-rule:evenodd;stroke:#000000;stroke-width:1.01015258000000000"
       d="m 355.39332,946.65919 c -7.50038,-0.39469 -23.27912,-0.77133 -35.06387,-0.83697 l -21.4268,-0.11933 -1.00124,-3.78807 c -0.55068,-2.08344 -1.69829,-7.19734 -2.55026,-11.36422 -2.06305,-10.09022 -7.91918,-21.98852 -11.50929,-23.3842 -1.48211,-0.57619 -7.22297,-2.07268 -12.75747,-3.32554 l -10.06271,-2.27794 -2.26214,-8.9922 c -4.20997,-16.73498 -5.69882,-31.18522 -5.11837,-49.67691 0.5803,-18.48656 2.25812,-26.60795 7.74092,-37.46931 3.61329,-7.15788 10.66396,-15.10886 16.98458,-19.15335 11.96134,-7.65392 38.93108,-12.86511 61.87436,-11.95557 16.93267,0.67126 26.29307,2.95691 40.21414,9.81961 12.56112,6.19227 12.87662,7.41705 2.71734,10.54873 -9.36571,2.88705 -14.91461,5.8409 -20.30347,10.80818 -4.15552,3.83043 -5.86685,7.88081 -3.32972,7.88081 0.61356,0 6.97513,-2.30771 14.13685,-5.12824 l 13.0213,-5.12824 2.68986,2.11584 c 1.47941,1.16371 5.11176,2.81991 8.07188,3.68044 l 5.38204,1.5646 -1.63501,3.72064 c -3.81165,8.67382 -3.90403,10.40888 -1.03693,19.47566 2.84764,9.00525 9.52486,22.2116 11.57604,22.89533 1.83852,0.61284 1.52888,-3.37902 -1.29353,-16.67581 -2.6803,-12.62732 -3.07855,-16.97095 -1.63765,-17.86147 0.4911,-0.30352 1.50333,0.91972 2.24939,2.7183 l 1.35648,3.27016 1.12929,-5.55584 1.1293,-5.55584 2.25121,5.05076 c 1.23818,2.77792 3.12323,8.68732 4.18901,13.13199 5.17789,21.59352 3.05442,43.04678 -6.81235,68.82469 l -3.61024,9.4321 -6.09453,3.04547 c -3.352,1.67501 -6.73344,3.04548 -7.5143,3.04548 -0.78087,0 -3.83421,2.41443 -6.78519,5.36541 -5.58137,5.58139 -7.6348,10.80802 -7.6348,19.43304 l 0,3.48582 -6.81853,-0.17318 c -3.75019,-0.0953 -12.95521,-0.49613 -20.45559,-0.89083 l 0,0 z m -4.0942,-31.70138 c 2.38755,-2.87683 -3.38498,-9.07752 -9.52262,-10.22895 -6.15996,-1.15561 -12.70048,4.42833 -9.58456,8.18278 0.69126,0.83292 2.1332,1.2275 3.36645,0.92119 1.18649,-0.29469 3.97553,0.13224 6.19787,0.94875 5.23501,1.92336 8.04973,1.97534 9.54286,0.17623 l 0,0 z m -38.57554,-28.41678 c 5.66791,-2.82443 10.25041,-7.44381 13.28478,-13.39166 6.21704,-12.18641 1.66317,-23.47937 -12.27707,-30.44539 -10.71514,-5.35442 -11.28252,-3.99676 -1.98992,4.76158 8.42291,7.93865 8.92483,8.88762 8.36351,15.81277 -0.75576,9.32397 -12.93558,18.34175 -21.12344,15.63951 -4.37402,-1.44356 -6.75259,-6.61197 -8.08443,-17.56674 -1.95648,-16.09252 1.89804,-24.77428 9.87517,-22.24244 1.15126,0.3654 2.09321,0.23482 2.09321,-0.29018 0,-1.63524 -2.7065,-3.29849 -6.22332,-3.82447 -11.98113,-1.79192 -18.20689,18.44826 -12.30322,39.9982 3.51962,12.84752 15.77355,17.83324 28.38473,11.54882 z m 73.2593,0.19813 c 6.74881,-2.87564 10.30353,-9.24979 11.81747,-21.19055 1.06554,-8.40417 -0.11541,-19.21602 -2.69199,-24.64578 -2.23197,-4.70351 -6.90335,-7.57182 -11.26837,-6.91897 -5.91175,0.88417 -8.6206,4.48063 -2.94032,3.90379 1.80565,-0.18337 3.82457,0.0319 4.4865,0.47841 1.68728,1.13814 -4.4377,39.60439 -6.42781,40.36806 -0.76061,0.29187 -3.98692,-0.77157 -7.16956,-2.36323 -9.21295,-4.60742 -13.9697,-13.74117 -10.93668,-21.00022 0.73386,-1.75637 4.69246,-6.23725 8.79689,-9.95749 6.27483,-5.68751 7.08315,-6.76587 5.07861,-6.77527 -3.35077,-0.0157 -13.49417,5.59708 -17.68052,9.78342 -10.67989,10.67989 -4.45543,30.32291 11.98328,37.81657 4.81526,2.19506 12.44767,2.42074 16.9525,0.50126 l 0,0 z"
       id="path3791"
       inkscape:connector-curvature="0"
       inkscape:export-filename="C:\Users\Rui\Desktop\TrabalhosGit\Flybeat\flybeat\reports\Meta 3\Packaging\skull1.png"
       inkscape:export-xdpi="52.893532"
       inkscape:export-ydpi="52.893532" />
    <path
       style="fill:#ffffff;fill-opacity:1;fill-rule:evenodd"
       d="m 365.62572,946.45521 c -16.72602,-0.80277 -33.04948,-1.23122 -46.96429,-1.2327 -7.46429,-7.1e-4 -14.87727,-0.1031 -16.4733,-0.22736 l -2.90187,-0.22592 -1.32366,-5.93265 c -3.64584,-16.34069 -5.89519,-22.55512 -10.63559,-29.38368 -1.05435,-1.51879 -1.82244,-2.20247 -3.08415,-2.74524 -1.72895,-0.74378 -11.622,-3.3017 -18.26,-4.72127 -2.0625,-0.44107 -3.93183,-0.97756 -4.15406,-1.1922 -0.99676,-0.9627 -5.21874,-20.46205 -6.34807,-29.31883 -2.05244,-16.09615 -1.49947,-39.79651 1.19795,-51.34403 1.51403,-6.48148 4.67327,-13.8127 8.26855,-19.18771 2.49804,-3.73461 8.33256,-9.97082 11.69762,-12.50295 15.58288,-11.7258 59.18572,-17.21781 84.97919,-10.70358 5.88471,1.4862 11.08421,3.49401 18.46596,7.13069 6.59861,3.25086 9.46429,5.04245 9.46429,5.91694 0,0.71928 -2.26748,1.77217 -8.09244,3.75766 -9.18319,3.13019 -14.243,5.95997 -19.37052,10.83328 -2.95089,2.8046 -4.32276,4.93541 -4.32276,6.71418 0,2.90111 1.47412,2.55628 19.85061,-4.64351 l 8.95776,-3.50958 1.57796,1.21576 c 2.24391,1.72886 4.44356,2.77577 9.13614,4.34826 2.25753,0.75651 4.17172,1.44258 4.25375,1.52462 0.082,0.082 -0.63156,2.07977 -1.58576,4.43941 -3.01694,7.46051 -3.12794,9.10523 -1.08837,16.12666 1.65885,5.71074 2.93119,8.86783 6.45592,16.01915 4.1225,8.36413 6.33985,10.98023 7.80761,9.21169 0.77711,-0.93636 0.17421,-6.10486 -1.97767,-16.95408 -1.84496,-9.30179 -2.83605,-17.14286 -2.1668,-17.14286 0.22306,0 2.5315,4.74946 3.19279,6.56898 0.13516,0.37186 0.31666,0.60519 0.40336,0.51849 0.0867,-0.0867 0.62919,-2.37026 1.20555,-5.0746 0.57636,-2.70433 1.1222,-4.99124 1.21297,-5.08202 0.26885,-0.26885 3.40437,8.29872 4.52158,12.35487 5.14153,18.66683 4.69813,37.20769 -1.39066,58.15056 -1.52614,5.2493 -2.81158,8.97794 -5.97894,17.34303 l -2.01249,5.31503 -4.9951,2.43944 c -2.7473,1.3417 -5.94867,2.76148 -7.11416,3.15507 -1.25466,0.4237 -3.21076,1.55179 -4.79535,2.76549 -7.8027,5.97639 -11.18498,12.86337 -11.18498,22.77479 l 0,3.05659 -3.48215,-0.0508 c -1.91517,-0.028 -7.74107,-0.25522 -12.94642,-0.50506 z m -15.82676,-29.74759 c 3.94598,-1.1744 3.28621,-6.15627 -1.25311,-9.46201 -5.09798,-3.71258 -10.32073,-4.31156 -14.21744,-1.63055 -3.02789,2.08324 -4.11997,4.2281 -3.34633,6.57225 0.61857,1.87427 1.52012,2.32377 4.6607,2.32377 1.95904,0 3.70248,0.29166 6.25982,1.04721 4.85154,1.43336 6.25543,1.6377 7.89636,1.14933 z m -43.07925,-27.3487 c 11.2581,-2.38659 21.03417,-12.92884 22.4667,-24.22746 1.18826,-9.37205 -4.1601,-17.49275 -15.16784,-23.03012 -4.24478,-2.13531 -7.40954,-3.30455 -8.94438,-3.30455 -0.97167,0 -1.33617,-0.19022 -1.63929,-0.85549 -0.96718,-2.12273 -5.59898,-3.99854 -9.00813,-3.64817 -10.00921,1.02871 -15.23505,16.26333 -12.01494,35.02651 1.31316,7.65157 3.11899,11.89186 6.47521,15.20452 4.63341,4.57328 10.96654,6.2903 17.83267,4.83476 l 0,0 z m 75.33458,-0.92657 c 5.7012,-0.88177 10.42125,-4.34121 12.7963,-9.37872 3.44959,-7.31662 4.77809,-18.13949 3.45969,-28.18497 -1.24463,-9.48342 -3.80985,-14.22582 -9.06452,-16.75786 -3.6062,-1.7377 -9.80491,-0.59769 -11.77182,2.16498 -0.85117,1.19553 -1.19134,1.37527 -3.27404,1.7299 -1.51072,0.25723 -3.69919,1.08153 -6.25276,2.35513 -12.05454,6.01225 -16.76093,12.0001 -16.73619,21.29313 0.0194,7.29 3.03818,13.73395 9.11908,19.46584 6.37534,6.00942 13.86016,8.52887 21.72426,7.31257 z"
       id="path5263"
       inkscape:connector-curvature="0"
       inkscape:export-filename="C:\Users\Rui\Desktop\TrabalhosGit\Flybeat\flybeat\reports\Meta 3\Packaging\skull1.png"
       inkscape:export-xdpi="52.893532"
       inkscape:export-ydpi="52.893532" />
    <path
       style="fill:#000000;fill-opacity:1;fill-rule:evenodd"
       d="m 298.80957,880.18998 c -4.28258,-1.19093 -6.91425,-5.17141 -8.62467,-13.04503 -1.37043,-6.3085 -1.88865,-13.26838 -1.32368,-17.77713 0.76472,-6.10282 2.2231,-9.36323 4.86597,-10.87864 1.20963,-0.69359 1.95869,-0.78891 5.41337,-0.68886 2.20521,0.0638 4.01121,0.26824 4.01334,0.45416 0.002,0.18592 3.83935,3.86871 8.52715,8.18398 5.17803,4.76652 8.83939,8.45778 9.32866,9.4048 1.82953,3.54125 1.10384,10.00432 -1.59053,14.16514 -4.34405,6.70843 -14.70065,11.8248 -20.60961,10.18158 z"
       id="path5265"
       inkscape:connector-curvature="0"
       inkscape:export-filename="C:\Users\Rui\Desktop\TrabalhosGit\Flybeat\flybeat\reports\Meta 3\Packaging\skull1.png"
       inkscape:export-xdpi="52.893532"
       inkscape:export-ydpi="52.893532" />
    <path
       style="fill:#000000;fill-opacity:1;fill-rule:evenodd"
       d="m 377.85016,880.16569 c -14.02959,-4.87974 -21.86149,-16.46458 -17.30024,-25.59037 0.66671,-1.33394 3.45748,-4.31949 8.95666,-9.58185 4.39351,-4.2043 8.3317,-8.1555 8.75154,-8.78046 0.73627,-1.09597 0.89482,-1.1361 4.46816,-1.13064 6.11373,0.009 5.80751,-0.27662 5.48337,5.11973 -0.72035,11.99223 -6.17946,40.77175 -7.72494,40.72466 -0.26913,-0.008 -1.45466,-0.35068 -2.63455,-0.76107 z"
       id="path5267"
       inkscape:connector-curvature="0"
       inkscape:export-filename="C:\Users\Rui\Desktop\TrabalhosGit\Flybeat\flybeat\reports\Meta 3\Packaging\skull1.png"
       inkscape:export-xdpi="52.893532"
       inkscape:export-ydpi="52.893532" />
    <path
       style="fill:url(#radialGradient5277);fill-opacity:1;fill-rule:evenodd"
       d="m 489.04064,802.55625 c 0,-0.24257 1.37723,-6.43607 3.06051,-13.76333 6.51939,-28.37862 9.17322,-42.48287 10.34701,-54.99107 1.10464,-11.77136 1.5354,-39.71496 0.78247,-50.76017 -2.8756,-42.18407 -16.09125,-73.49604 -41.20464,-97.62656 l -6.27556,-6.02995 4.05246,-23.17557 c 2.22885,-12.74657 4.06005,-24.08471 4.06933,-25.19588 0.014,-1.67902 10.34555,-62.8747 10.66972,-63.19886 0.41811,-0.41812 15.95818,23.61925 22.99309,35.56569 25.78682,43.79033 39.56051,82.63867 44.26927,124.86035 1.3365,11.9838 1.09644,34.72607 -0.50379,47.72971 -2.34119,19.02468 -8.71529,44.2148 -15.91164,62.882 -5.96521,15.47364 -13.89472,31.05274 -23.39388,45.96194 -3.30175,5.1822 -12.41869,18.18275 -12.75107,18.18275 -0.1118,0 -0.20328,-0.19847 -0.20328,-0.44105 z"
       id="path5269"
       inkscape:connector-curvature="0"
       inkscape:export-xdpi="52.893532"
       inkscape:export-ydpi="52.893532"
       inkscape:export-filename="C:\Users\Rui\Desktop\TrabalhosGit\Flybeat\flybeat\reports\Meta 3\Packaging\skull1.png" />
  </g>
</svg>
