<?xml version="1.0" encoding="UTF-8" standalone="no"?>
<!-- Created with Inkscape (http://www.inkscape.org/) -->

<svg
   xmlns:dc="http://purl.org/dc/elements/1.1/"
   xmlns:cc="http://creativecommons.org/ns#"
   xmlns:rdf="http://www.w3.org/1999/02/22-rdf-syntax-ns#"
   xmlns:svg="http://www.w3.org/2000/svg"
   xmlns="http://www.w3.org/2000/svg"
   xmlns:xlink="http://www.w3.org/1999/xlink"
   xmlns:sodipodi="http://sodipodi.sourceforge.net/DTD/sodipodi-0.dtd"
   xmlns:inkscape="http://www.inkscape.org/namespaces/inkscape"
   width="800"
   height="600"
   id="svg4329"
   version="1.1"
   inkscape:version="0.48.4 r9939"
   inkscape:export-filename="C:\Users\Rui\Desktop\TrabalhosGit\Flybeat\flybeat\reports\Meta 3\Packaging\WinMax.png"
   inkscape:export-xdpi="36"
   inkscape:export-ydpi="36"
   sodipodi:docname="New document 13">
  <defs
     id="defs4331">
    <linearGradient
       inkscape:collect="always"
       id="linearGradient7052">
      <stop
         style="stop-color:#00ffff;stop-opacity:1;"
         offset="0"
         id="stop7054" />
      <stop
         style="stop-color:#00ffff;stop-opacity:0;"
         offset="1"
         id="stop7056" />
    </linearGradient>
    <linearGradient
       inkscape:collect="always"
       id="linearGradient7044">
      <stop
         style="stop-color:#00ffff;stop-opacity:1;"
         offset="0"
         id="stop7046" />
      <stop
         style="stop-color:#00ffff;stop-opacity:0;"
         offset="1"
         id="stop7048" />
    </linearGradient>
    <linearGradient
       inkscape:collect="always"
       id="linearGradient7034">
      <stop
         style="stop-color:#00ffff;stop-opacity:1;"
         offset="0"
         id="stop7036" />
      <stop
         style="stop-color:#00ffff;stop-opacity:0;"
         offset="1"
         id="stop7038" />
    </linearGradient>
    <linearGradient
       inkscape:collect="always"
       id="linearGradient7024">
      <stop
         style="stop-color:#00ffff;stop-opacity:1;"
         offset="0"
         id="stop7026" />
      <stop
         style="stop-color:#00ffff;stop-opacity:0;"
         offset="1"
         id="stop7028" />
    </linearGradient>
    <linearGradient
       inkscape:collect="always"
       id="linearGradient7000">
      <stop
         style="stop-color:#00ffff;stop-opacity:1;"
         offset="0"
         id="stop7002" />
      <stop
         style="stop-color:#00ffff;stop-opacity:0;"
         offset="1"
         id="stop7004" />
    </linearGradient>
    <linearGradient
       inkscape:collect="always"
       id="linearGradient6992">
      <stop
         style="stop-color:#00ffff;stop-opacity:1;"
         offset="0"
         id="stop6994" />
      <stop
         style="stop-color:#00ffff;stop-opacity:0;"
         offset="1"
         id="stop6996" />
    </linearGradient>
    <linearGradient
       inkscape:collect="always"
       id="linearGradient6984">
      <stop
         style="stop-color:#00ffff;stop-opacity:1;"
         offset="0"
         id="stop6986" />
      <stop
         style="stop-color:#00ffff;stop-opacity:0;"
         offset="1"
         id="stop6988" />
    </linearGradient>
    <linearGradient
       inkscape:collect="always"
       id="linearGradient6976">
      <stop
         style="stop-color:#00ffff;stop-opacity:1;"
         offset="0"
         id="stop6978" />
      <stop
         style="stop-color:#00ffff;stop-opacity:0;"
         offset="1"
         id="stop6980" />
    </linearGradient>
    <linearGradient
       inkscape:collect="always"
       id="linearGradient6968">
      <stop
         style="stop-color:#00ffff;stop-opacity:1;"
         offset="0"
         id="stop6970" />
      <stop
         style="stop-color:#00ffff;stop-opacity:0;"
         offset="1"
         id="stop6972" />
    </linearGradient>
    <linearGradient
       inkscape:collect="always"
       id="linearGradient6960">
      <stop
         style="stop-color:#00ffff;stop-opacity:1;"
         offset="0"
         id="stop6962" />
      <stop
         style="stop-color:#00ffff;stop-opacity:0;"
         offset="1"
         id="stop6964" />
    </linearGradient>
    <linearGradient
       inkscape:collect="always"
       id="linearGradient6952">
      <stop
         style="stop-color:#00ffff;stop-opacity:1;"
         offset="0"
         id="stop6954" />
      <stop
         style="stop-color:#00ffff;stop-opacity:0;"
         offset="1"
         id="stop6956" />
    </linearGradient>
    <linearGradient
       inkscape:collect="always"
       id="linearGradient6934">
      <stop
         style="stop-color:#ff8080;stop-opacity:1;"
         offset="0"
         id="stop6936" />
      <stop
         style="stop-color:#ff8080;stop-opacity:0;"
         offset="1"
         id="stop6938" />
    </linearGradient>
    <linearGradient
       id="linearGradient6924">
      <stop
         style="stop-color:#f9d837;stop-opacity:1;"
         offset="0"
         id="stop6926" />
      <stop
         style="stop-color:#fade58;stop-opacity:0;"
         offset="1"
         id="stop6928" />
    </linearGradient>
    <linearGradient
       inkscape:collect="always"
       xlink:href="#linearGradient6924"
       id="linearGradient6930"
       x1="317.51072"
       y1="272.37696"
       x2="682.61486"
       y2="272.37696"
       gradientUnits="userSpaceOnUse" />
    <linearGradient
       inkscape:collect="always"
       xlink:href="#linearGradient6934"
       id="linearGradient6940"
       x1="459.76141"
       y1="395.14959"
       x2="577.38829"
       y2="395.14959"
       gradientUnits="userSpaceOnUse" />
    <linearGradient
       inkscape:collect="always"
       xlink:href="#linearGradient6952"
       id="linearGradient6958"
       x1="568.13116"
       y1="270.27231"
       x2="600.53061"
       y2="270.27231"
       gradientUnits="userSpaceOnUse" />
    <linearGradient
       inkscape:collect="always"
       xlink:href="#linearGradient6960"
       id="linearGradient6966"
       x1="514.0713"
       y1="247.72691"
       x2="611.98608"
       y2="247.72691"
       gradientUnits="userSpaceOnUse" />
    <linearGradient
       inkscape:collect="always"
       xlink:href="#linearGradient6968"
       id="linearGradient6974"
       x1="514.0713"
       y1="247.72691"
       x2="611.98608"
       y2="247.72691"
       gradientUnits="userSpaceOnUse" />
    <linearGradient
       inkscape:collect="always"
       xlink:href="#linearGradient6976"
       id="linearGradient6982"
       x1="568.13116"
       y1="270.27231"
       x2="600.53061"
       y2="270.27231"
       gradientUnits="userSpaceOnUse" />
    <linearGradient
       inkscape:collect="always"
       xlink:href="#linearGradient6984"
       id="linearGradient6990"
       x1="514.15156"
       y1="238.87047"
       x2="613.21043"
       y2="238.87047"
       gradientUnits="userSpaceOnUse" />
    <linearGradient
       inkscape:collect="always"
       xlink:href="#linearGradient6992"
       id="linearGradient6998"
       x1="349.1466"
       y1="241.56932"
       x2="431.46071"
       y2="241.56932"
       gradientUnits="userSpaceOnUse" />
    <linearGradient
       inkscape:collect="always"
       xlink:href="#linearGradient7000"
       id="linearGradient7006"
       x1="349.1466"
       y1="241.56932"
       x2="431.46071"
       y2="241.56932"
       gradientUnits="userSpaceOnUse" />
    <linearGradient
       inkscape:collect="always"
       xlink:href="#linearGradient7024"
       id="linearGradient7032"
       x1="348.94711"
       y1="238.87047"
       x2="431.83514"
       y2="238.87047"
       gradientUnits="userSpaceOnUse" />
    <linearGradient
       inkscape:collect="always"
       xlink:href="#linearGradient7034"
       id="linearGradient7040"
       x1="348.9471"
       y1="238.87047"
       x2="431.83514"
       y2="238.87047"
       gradientUnits="userSpaceOnUse" />
    <linearGradient
       inkscape:collect="always"
       xlink:href="#linearGradient7044"
       id="linearGradient7050"
       x1="514.47089"
       y1="263.02765"
       x2="611.79982"
       y2="263.02765"
       gradientUnits="userSpaceOnUse" />
    <linearGradient
       inkscape:collect="always"
       xlink:href="#linearGradient7052"
       id="linearGradient7058"
       x1="514.47089"
       y1="263.02765"
       x2="611.79982"
       y2="263.02765"
       gradientUnits="userSpaceOnUse" />
  </defs>
  <sodipodi:namedview
     id="base"
     pagecolor="#ffffff"
     bordercolor="#666666"
     borderopacity="1.0"
     inkscape:pageopacity="0.0"
     inkscape:pageshadow="2"
     inkscape:zoom="0.98994949"
     inkscape:cx="873.32653"
     inkscape:cy="403.70299"
     inkscape:document-units="px"
     inkscape:current-layer="layer1"
     showgrid="false"
     inkscape:window-width="1920"
     inkscape:window-height="1003"
     inkscape:window-x="-9"
     inkscape:window-y="-9"
     inkscape:window-maximized="1" />
  <metadata
     id="metadata4334">
    <rdf:RDF>
      <cc:Work
         rdf:about="">
        <dc:format>image/svg+xml</dc:format>
        <dc:type
           rdf:resource="http://purl.org/dc/dcmitype/StillImage" />
        <dc:title></dc:title>
      </cc:Work>
    </rdf:RDF>
  </metadata>
  <g
     inkscape:label="Layer 1"
     inkscape:groupmode="layer"
     id="layer1"
     transform="translate(0,-452.36218)">
    <path
       sodipodi:type="arc"
       style="fill:none;stroke:none"
       id="path4485"
       sodipodi:cx="389.91888"
       sodipodi:cy="236.34508"
       sodipodi:rx="201.02036"
       sodipodi:ry="201.02036"
       d="m 590.93924,236.34508 a 201.02036,201.02036 0 1 1 -402.04071,0 201.02036,201.02036 0 1 1 402.04071,0 z"
       transform="translate(-32.324881,449.33172)"
       inkscape:export-filename="C:\Users\Rui\Desktop\TrabalhosGit\Flybeat\flybeat\reports\Meta 3\Packaging\WinMax2.png"
       inkscape:export-xdpi="67"
       inkscape:export-ydpi="67" />
    <path
       style="fill:#000000"
       d="m 477.77898,923.19659 c -45.6961,-5.529 -84.13666,-23.73872 -117.00267,-55.42547 -30.36025,-29.27091 -50.70416,-67.3907 -58.19919,-109.0518 -2.24681,-12.48892 -3.13428,-44.5476 -1.59507,-57.61964 10.78402,-91.58493 81.83557,-163.86852 172.8906,-175.88851 13.13575,-1.73402 37.04586,-1.94988 49.22501,-0.44439 68.51496,8.46925 127.26208,50.17266 157.00197,111.45254 9.76827,20.1278 15.10568,37.83343 18.53934,61.5 2.40546,16.57963 1.52128,46.65834 -1.88489,64.12179 -4.94819,25.36943 -16.12112,52.46326 -30.50581,73.97511 -41.21264,61.63225 -115.731,96.18133 -188.46929,87.38037 z m 37.24356,-16.50787 c 81.91198,-7.24973 147.72505,-65.80155 164.63365,-146.4694 3.19007,-15.21928 4.26956,-40.03384 2.46356,-56.63079 -2.26194,-20.78698 -10.02138,-46.43921 -19.31953,-63.86921 -8.99177,-16.85565 -18.04765,-29.30789 -31.1679,-42.85722 -27.90929,-28.82205 -60.66978,-46.29842 -100.90099,-53.82653 -12.97044,-2.42704 -48.51194,-2.44683 -61.24274,-0.0341 -51.74669,9.80699 -93.38225,36.85873 -121.79676,79.13462 -13.14648,19.55969 -22.85886,43.10895 -27.66704,67.08323 -2.75866,13.75509 -3.79934,43.18793 -2.01096,56.87468 2.6812,20.51961 8.04354,38.54506 17.06411,57.36081 21.35478,44.54332 59.98331,78.67717 106.60085,94.19716 25.08348,8.35084 48.49796,11.23576 73.34375,9.03675 z m -35.45111,-19.03678 c -17.17512,-2.34116 -38.14296,-10.30092 -51.16117,-19.42168 -10.07224,-7.05677 -28.2595,-26.05231 -35.8262,-37.41837 -15.36305,-23.07711 -27.50324,-53.67792 -27.51011,-69.34257 l -0.003,-5.75 -8,0 -8,0 0,-6.07262 0,-6.07262 72.25,0.52595 c 39.7375,0.28927 99.55517,0.54695 132.92815,0.57262 l 60.67815,0.0467 2.13259,5.69986 c 4.20457,11.23772 5.36498,18.26734 5.41446,32.80014 0.056,16.43893 -1.2382,22.42167 -7.81319,36.11899 -5.7649,12.00969 -12.85696,21.59387 -22.89324,30.93783 -20.2233,18.82825 -43.49439,30.64694 -70.73866,35.92607 -10.28919,1.99373 -31.91862,2.75008 -41.45826,1.44973 z m 27.52623,-10.97166 c 17.73812,-2.17503 35.3437,-8.16803 50.16673,-17.07693 8.76072,-5.26535 20.74082,-13.94308 20.78213,-15.05344 0.0661,-1.77537 -10.91403,-12.30121 -17.17165,-16.46126 -36.17097,-24.04641 -86.02873,-6.87534 -99.73581,34.34912 -1.1372,3.42015 -2.06763,6.84836 -2.06763,7.61823 0,2.55802 21.51187,7.34033 34.02623,7.56438 3.03943,0.0544 9.33943,-0.36863 14,-0.9401 z M 340.21098,704.46932 c -6.45005,-21.73193 -4.4109,-42.7495 6.12164,-63.09597 5.38077,-10.39443 12.26734,-17.81208 20.06711,-21.61465 35.0189,-17.07252 73.89349,12.45065 76.37508,58.00279 0.58485,10.73557 -0.34917,19.0347 -3.23647,28.75731 l -1.54439,5.20052 -47.81559,0 -47.81558,0 z m 90.8556,-13.21585 c 2.86196,-20.16169 -3.96969,-40.73286 -17.83458,-53.70279 -3.5901,-3.35836 -8.47897,-6.96936 -10.86415,-8.02444 -14.63266,-6.47272 -31.7858,-2.79467 -40.54155,8.69308 -11.41269,14.97373 -16.39482,37.02115 -12.61682,55.83322 l 1.13806,5.66678 39.75865,0 39.75866,0 z m -49.65431,1.94841 c -9.62493,-4.79631 -15.25749,-13.40469 -16.09527,-24.59879 -1.28509,-17.17099 11.02845,-30.86423 27.75443,-30.86423 24.94581,0 37.02031,29.94262 19.92573,49.41226 -7.35746,8.37969 -21.48156,11.08546 -31.58489,6.05076 z m 125.79472,15.76744 c -3.00978,-7.47634 -4.49166,-16.30164 -4.49166,-26.75 0,-13.38892 1.72528,-20.67438 7.84959,-33.14708 10.94808,-22.29676 33.16399,-35.79759 56.00651,-34.03573 40.68604,3.13814 67.32971,48.25824 53.40107,90.43281 l -2.06413,6.25 -12.91847,0 c -7.33611,0 -12.91847,-0.40356 -12.91847,-0.9339 0,-0.51365 1.9125,-2.21163 4.25,-3.77329 2.3375,-1.56166 4.69421,-3.84141 5.23713,-5.0661 0.76692,-1.72999 1.82228,-2.22671 4.73095,-2.22671 4.81451,0 5.28192,-1.54862 5.28192,-17.5 0,-10.534 -0.35637,-13.0995 -2.91707,-21 -3.37685,-10.41854 -6.2329,-15.00464 -13.78767,-22.13957 -9.12995,-8.62256 -19.85973,-12.72475 -32.86159,-12.56358 -21.36739,0.26485 -40.18098,16.75717 -46.38654,40.66325 -1.80728,6.9623 -2.03241,21.72704 -0.42842,28.09708 l 1.11872,4.44282 22.1415,0 22.14151,0 2.73978,2.54047 c 1.50688,1.39726 2.73978,3.08901 2.73978,3.75945 0,0.67044 0.9,1.78105 2,2.46801 1.1,0.68696 2,1.6952 2,2.24054 0,0.63397 -11.13549,0.99153 -30.87868,0.99153 l -30.87868,0 z m 53.22915,-14.33906 c -4.90433,-1.42138 -12.52955,-7.0175 -15.54846,-11.41094 -3.17687,-4.62332 -5.81625,-12.731 -5.81625,-17.86639 0,-5.76432 3.89002,-14.60171 8.6827,-19.72547 5.66777,-6.05932 12.35787,-8.96725 20.77904,-9.03189 9.91951,-0.0761 15.58445,2.11433 21.94843,8.4868 5.9192,5.9271 7.94741,10.73578 8.41254,19.94533 0.36189,7.16547 0.13313,8.33903 -2.77844,14.25327 -3.70985,7.53577 -9.66004,12.65283 -17.37807,14.94484 -5.52733,1.64144 -13.43077,1.8161 -18.30149,0.40445 z"
       id="path6838"
       inkscape:connector-curvature="0"
       sodipodi:nodetypes="sssssssssssssssssssssssscssccccccsscsssssccsscsssssssssscccsssssscccssssssssssscssssssssssscccssssscsssssssssss"
       inkscape:export-filename="C:\Users\Rui\Desktop\TrabalhosGit\Flybeat\flybeat\reports\Meta 3\Packaging\WinMax2.png"
       inkscape:export-xdpi="67"
       inkscape:export-ydpi="67" />
    <path
       style="fill:url(#linearGradient7006);fill-opacity:1;fill-rule:evenodd;stroke:url(#linearGradient6998);stroke-width:0.25517856999999999;stroke-miterlimit:4;stroke-opacity:1;stroke-dasharray:none"
       d="m 350.38878,247.06048 c -0.0408,-0.12277 -0.30832,-1.40849 -0.59442,-2.85715 l -0.52017,-2.63393 0.4661,-0.004 c 0.25635,-0.002 0.8277,-0.17042 1.26967,-0.37392 0.69764,-0.32122 1.72574,-0.43192 7.79884,-0.83968 6.62838,-0.44505 7.01312,-0.45353 7.33549,-0.16179 0.18712,0.16934 0.55487,0.30789 0.81723,0.30789 0.28612,0 0.47701,0.0984 0.47701,0.24599 0,0.35215 0.40547,0.64008 0.96679,0.68654 0.26633,0.022 0.56938,0.14267 0.67345,0.26806 0.10406,0.12539 0.47185,0.22798 0.8173,0.22798 0.36029,0 0.71409,0.11761 0.8298,0.27585 0.11093,0.15172 0.38095,0.28935 0.60004,0.30586 0.21908,0.0165 0.39833,0.13344 0.39833,0.25986 0,0.18271 1.19032,0.22986 5.80358,0.22986 4.85407,0 5.80357,-0.0409 5.80357,-0.24988 0,-0.35372 1.47927,-0.44291 2.58928,-0.15612 2.1183,0.54728 4.03669,0.76202 6.81261,0.76257 4.28841,8.6e-4 7.78477,-0.68319 11.37586,-2.22559 l 1.46908,-0.63098 6.97972,0 c 5.98634,0 7.01136,-0.0381 7.20202,-0.26786 0.142,-0.1711 0.53692,-0.26786 1.09329,-0.26786 0.65517,0 0.87099,-0.0664 0.87099,-0.26786 0,-0.16298 0.16623,-0.26785 0.42457,-0.26785 0.23351,0 0.5246,-0.12054 0.64686,-0.26786 0.12227,-0.14732 0.49371,-0.26786 0.82544,-0.26786 0.33172,0 0.60313,-0.0803 0.60313,-0.17857 0,-0.0982 0.15498,-0.17857 0.34439,-0.17857 0.18942,0 0.46492,-0.12054 0.61225,-0.26786 0.18474,-0.18474 0.63876,-0.26785 1.46319,-0.26785 1.04227,0 1.16687,-0.0343 0.97303,-0.26786 -0.1859,-0.224 -0.15932,-0.26786 0.16231,-0.26786 0.21154,0 0.43087,-0.12053 0.4874,-0.26786 0.0565,-0.14732 0.28306,-0.26785 0.5034,-0.26785 0.23485,0 0.5705,-0.22168 0.81118,-0.53572 0.32743,-0.42724 0.54633,-0.53571 1.08114,-0.53571 l 0.67059,0 -0.0891,0.75893 c -0.17073,1.45415 -1.31412,9.69106 -1.41291,10.17857 l -0.0995,0.49107 -39.63427,0 c -31.54877,0 -39.64942,-0.0455 -39.70853,-0.22321 z"
       id="path6902"
       inkscape:connector-curvature="0"
       transform="translate(0,452.36218)"
       inkscape:export-filename="C:\Users\Rui\Desktop\TrabalhosGit\Flybeat\flybeat\reports\Meta 3\Packaging\WinMax2.png"
       inkscape:export-xdpi="67"
       inkscape:export-ydpi="67" />
    <path
       style="fill:#00ffff;fill-opacity:1;fill-rule:evenodd;stroke:#00ffff;stroke-width:0.12758929;stroke-miterlimit:4;stroke-opacity:1;stroke-dasharray:none"
       d="m 588.16645,238.58073 c 0.23248,-0.12551 0.48822,-0.32819 0.5683,-0.45041 l 0.1456,-0.22222 2.28884,0.008 2.28884,0.008 -1.29464,0.16965 c -1.09688,0.14373 -3.42414,0.51508 -4.19643,0.66961 -0.13887,0.0278 -0.0635,-0.0416 0.19949,-0.18354 z"
       id="path6904"
       inkscape:connector-curvature="0"
       transform="translate(0,452.36218)"
       inkscape:export-filename="C:\Users\Rui\Desktop\TrabalhosGit\Flybeat\flybeat\reports\Meta 3\Packaging\WinMax2.png"
       inkscape:export-xdpi="67"
       inkscape:export-ydpi="67" />
    <path
       style="fill:url(#linearGradient6930);fill-opacity:1;fill-rule:evenodd;stroke:none"
       d="m 484.96441,453.83605 c -13.57959,-1.00236 -35.74325,-6.29026 -50.90101,-12.1442 -53.59769,-20.69945 -95.27528,-67.05434 -110.17826,-122.5431 -4.89461,-18.22426 -5.94141,-26.5095 -5.87119,-46.46928 0.0713,-20.27496 1.07529,-29.33654 4.9784,-44.93418 15.44188,-61.70896 61.33901,-110.64258 122.07104,-130.147081 20.97323,-6.735693 24.85554,-7.237792 55.55839,-7.185359 30.99938,0.05294 33.70637,0.421564 56.06346,7.634421 59.02395,19.042339 105.32604,69.221669 120.60867,130.708179 4.97906,20.03221 6.23166,47.80484 3.14715,69.77825 -6.12816,43.65563 -30.96769,87.08849 -65.70422,114.88629 -36.96071,29.5777 -82.87646,43.87761 -129.77243,40.41606 z m 38.32233,-19.98684 c 26.23592,-5.30467 51.39107,-18.66046 70.2612,-37.30425 13.22985,-13.07117 21.72863,-26.58377 26.74968,-42.5306 1.8849,-5.98645 2.23261,-9.47455 2.26685,-22.74036 0.0414,-16.03288 -1.46791,-25.40505 -5.73235,-35.59595 l -1.58514,-3.78807 -52.26184,-7e-4 c -28.74401,-3.7e-4 -88.74097,-0.30249 -133.32658,-0.67134 l -81.06474,-0.67067 0,6.73227 0,6.73227 7.93688,0 7.93687,0 0.57141,7.82868 c 1.38742,19.00844 15.23614,51.27258 30.87882,71.94017 7.81194,10.32136 25.6238,28.08108 32.98315,32.88658 12.49244,8.15733 27.11418,14.15122 43.43656,17.80597 6.64002,1.48678 11.23382,1.72793 25.75889,1.35223 9.7594,-0.25242 21.04278,-1.13763 25.19034,-1.97623 z m 72.33919,-146.05487 c 2.47946,-2.73978 2.2899,-10.39205 -0.47407,-19.13787 -1.14128,-3.61129 -2.08092,-7.12062 -2.08809,-7.7985 -0.009,-0.89154 3.55002,-1.31072 12.86641,-1.51523 l 12.87944,-0.28272 2.41111,-8.08122 c 1.92764,-6.46082 2.42611,-10.51181 2.48599,-20.20305 0.0887,-14.36013 -1.46897,-21.31251 -7.58198,-33.84011 -3.32139,-6.80667 -5.88509,-10.26889 -12.36921,-16.70441 -12.72029,-12.62496 -24.43344,-17.64078 -41.19549,-17.64078 -16.03127,0 -28.0973,5.05794 -39.74899,16.6623 -7.93236,7.90014 -13.12774,16.41195 -17.3058,28.35281 -2.5535,7.29787 -2.80488,9.28793 -2.79935,22.16004 0.005,11.96768 0.3728,15.34585 2.39113,21.97082 l 2.38505,7.82868 30.15741,0 30.15743,0 0.0358,4.79822 c 0.042,5.62739 1.2436,8.05357 5.92436,11.96181 1.88913,1.57734 4.49716,5.27014 5.79564,8.20622 l 2.36086,5.33832 5.91709,0 c 4.68651,0 6.3077,-0.4316 7.79526,-2.07533 l 4e-5,0 z M 440.02714,254.2618 c 4.58014,-15.10549 4.20285,-34.9538 -0.95161,-50.06271 -11.50639,-33.72782 -44.05573,-50.73757 -71.79389,-37.5183 -13.84872,6.59992 -24.95078,23.46581 -29.46148,44.75689 -2.16426,10.2156 -1.40497,28.81082 1.62487,39.79366 l 2.29905,8.33376 48.33752,0 48.33753,0 1.60801,-5.3033 0,0 z"
       id="path6912"
       inkscape:connector-curvature="0"
       inkscape:export-filename="C:\Users\Rui\Desktop\TrabalhosGit\Flybeat\flybeat\reports\Meta 3\Packaging\WinMax2.png"
       inkscape:export-xdpi="67"
       inkscape:export-ydpi="67"
       transform="translate(0,452.36218)" />
    <path
       style="fill:url(#linearGradient6940);fill-opacity:1;fill-rule:evenodd;stroke:#ffaaaa"
       d="m 489.5101,424.46345 c -9.54499,-0.61794 -25.18834,-4.00302 -28.65733,-6.20119 -2.6848,-1.70126 4.21866,-18.13323 11.70327,-27.85673 20.13798,-26.16191 59.80627,-32.61498 87.49855,-14.2339 5.70511,3.78684 16.8337,14.21111 16.8337,15.76831 0,1.24651 -10.67091,9.1036 -19.43913,14.31319 -20.27008,12.04337 -48.07543,19.49629 -67.93906,18.21032 z"
       id="path6932"
       inkscape:connector-curvature="0"
       transform="translate(0,452.36218)"
       inkscape:export-filename="C:\Users\Rui\Desktop\TrabalhosGit\Flybeat\flybeat\reports\Meta 3\Packaging\WinMax2.png"
       inkscape:export-xdpi="67"
       inkscape:export-ydpi="67" />
    <path
       style="fill:#ffffff;fill-opacity:1;fill-rule:evenodd;stroke:#ffffff;stroke-width:0.50507629"
       d="m 348.95007,237.89684 c -1.41019,-10.55436 -0.37109,-21.574 3.01573,-31.98185 2.76868,-8.50826 8.53529,-18.67925 13.08801,-23.08427 5.0761,-4.91141 12.12897,-7.77709 20.22992,-8.21968 11.3441,-0.61979 18.38477,2.22417 28.02863,11.3217 7.66916,7.23471 13.40131,17.28923 16.06823,28.18465 1.37147,5.60298 2.19446,12.47176 1.99704,16.66752 -0.1569,3.33459 -0.23812,3.54545 -1.42905,3.71019 -0.69448,0.0961 -1.48997,0.35387 -1.76776,0.57288 -0.27779,0.21902 -3.68706,0.55324 -7.57615,0.74272 -3.88908,0.18947 -7.48916,0.46484 -8.00017,0.61193 -0.6251,0.17993 -0.16833,-0.6666 1.39593,-2.58709 4.75773,-5.84121 7.01113,-12.17868 7.01113,-19.71815 0,-5.47709 -1.03589,-9.75806 -3.49239,-14.43277 -8.54193,-16.25534 -31.23413,-19.4516 -44.42793,-6.2578 -5.33291,5.33291 -7.98174,12.23185 -7.9441,20.69057 0.0384,8.6329 2.74233,15.54248 8.24232,21.06237 2.37511,2.38371 3.15893,3.46665 2.65038,3.6618 -0.39716,0.15241 -2.47911,0.2771 -4.62654,0.2771 -2.92055,0 -4.45224,-0.26467 -6.07832,-1.0503 -2.03289,-0.98219 -2.50586,-1.01425 -7.29221,-0.49435 -2.84029,0.30852 -5.94148,0.96277 -6.96781,1.46998 l -1.8495,0.91402 -0.27539,-2.06117 0,0 z"
       id="path6946"
       inkscape:connector-curvature="0"
       transform="translate(0,452.36218)"
       inkscape:export-filename="C:\Users\Rui\Desktop\TrabalhosGit\Flybeat\flybeat\reports\Meta 3\Packaging\WinMax2.png"
       inkscape:export-xdpi="67"
       inkscape:export-ydpi="67" />
    <path
       style="fill:#ffffff;fill-opacity:1;fill-rule:evenodd;stroke:#ffffff;stroke-width:0.50507628999999998"
       d="m 348.95594,237.96676 c -1.4814,-10.86759 -0.35228,-22.13664 3.30055,-32.94074 1.98029,-5.85716 6.28409,-14.24466 9.48852,-18.49181 5.87288,-7.78389 14.9958,-12.04777 25.77717,-12.04777 7.76977,0 14.09816,1.98034 19.68186,6.15902 15.08935,11.29242 23.79363,28.56194 23.95606,47.52937 l 0.0512,5.97622 -1.87445,0.64979 c -1.03095,0.35739 -4.44022,0.80209 -7.57614,0.98823 -3.13593,0.18615 -6.67682,0.47042 -7.86865,0.63173 l -2.16697,0.29329 2.78944,-3.70795 c 1.53419,-2.03938 3.3859,-5.19172 4.1149,-7.00521 1.39198,-3.46271 2.86444,-11.05238 2.49296,-12.84968 -0.11984,-0.57979 -0.33377,-2.16424 -0.47541,-3.521 -1.15612,-11.07444 -9.97195,-20.97251 -21.00294,-23.58127 -3.81138,-0.90136 -10.71946,-0.76446 -14.39468,0.28527 -9.46,2.70201 -16.98377,10.6506 -19.24653,20.33326 -2.41433,10.3312 0.57367,21.52008 7.68419,28.77425 1.69667,1.73096 2.96567,3.26638 2.82,3.41205 -0.14567,0.14567 -2.28381,0.26485 -4.75144,0.26485 -3.20109,0 -4.94972,-0.24088 -6.103,-0.84072 -1.03192,-0.53672 -2.66307,-0.81326 -4.5109,-0.76477 -5.1033,0.1339 -8.19421,0.67081 -10.38562,1.80403 l -1.5096,0.78064 -0.29049,-2.13108 0,0 z"
       id="path6948"
       inkscape:connector-curvature="0"
       transform="translate(0,452.36218)"
       inkscape:export-filename="C:\Users\Rui\Desktop\TrabalhosGit\Flybeat\flybeat\reports\Meta 3\Packaging\WinMax2.png"
       inkscape:export-xdpi="67"
       inkscape:export-ydpi="67" />
    <path
       style="fill:#ffffff;fill-opacity:1;fill-rule:evenodd;stroke:#ffffff;stroke-width:0.50507629"
       d="m 535.80511,238.12257 c -0.8097,-0.26196 -1.65328,-0.77003 -1.87463,-1.12906 -0.28976,-0.46998 -2.38735,-0.6988 -7.49086,-0.81717 -5.92962,-0.13754 -7.2185,-0.0344 -7.88416,0.63134 -0.43767,0.43767 -1.43297,0.79575 -2.21178,0.79575 -1.18187,0 -1.46821,-0.26098 -1.73169,-1.57836 -0.76012,-3.80062 0.0744,-15.78836 1.50345,-21.59662 1.84242,-7.48837 6.59805,-16.82371 11.48853,-22.55204 11.91526,-13.95664 26.92259,-19.61705 44.07837,-16.62533 11.01264,1.92044 22.23973,9.1028 29.38591,18.79918 3.29112,4.46559 4.6876,7.32949 7.10527,14.57144 2.40216,7.19549 3.09745,11.76662 3.09745,20.36412 l 0,6.46158 -3.52816,0.25244 c -1.94049,0.13884 -3.81558,0.4738 -4.16688,0.74435 -0.37664,0.29008 -3.37219,0.39747 -7.30049,0.26173 l -6.66176,-0.23018 2.57849,-3.09796 c 1.41818,-1.70387 3.50683,-5.02987 4.64146,-7.3911 1.83852,-3.82605 2.0821,-4.77218 2.23887,-8.69596 0.45039,-11.27314 -1.75766,-17.77616 -8.31253,-24.48164 -6.1299,-6.27074 -12.00223,-8.72084 -20.93877,-8.73626 -5.87974,-0.0102 -9.63392,0.75127 -14.01192,2.84188 -9.0805,4.3362 -16.76422,16.41264 -16.76422,26.3482 0,7.18652 3.78206,16.43395 8.60121,21.03065 l 2.84975,2.7182 -1.23665,0.56346 c -1.63985,0.74717 -11.58597,1.1518 -13.45426,0.54736 z"
       id="path6950"
       inkscape:connector-curvature="0"
       transform="translate(0,452.36218)"
       inkscape:export-filename="C:\Users\Rui\Desktop\TrabalhosGit\Flybeat\flybeat\reports\Meta 3\Packaging\WinMax2.png"
       inkscape:export-xdpi="67"
       inkscape:export-ydpi="67" />
    <path
       style="fill:url(#linearGradient7058);fill-opacity:1;fill-rule:evenodd;stroke:url(#linearGradient7050)"
       d="m 580.15991,284.41932 c -1.61759,-3.39731 -3.0882,-5.51456 -5.97267,-8.59894 -2.10469,-2.25054 -4.15288,-4.87255 -4.55154,-5.82668 -0.39866,-0.95413 -0.86979,-3.77686 -1.04695,-6.27273 -0.31616,-4.45405 -0.29982,-4.54619 0.88377,-4.98403 l 1.20587,-0.44608 -1.91589,-1.9159 c -1.05375,-1.05375 -2.26512,-2.59122 -2.69195,-3.41662 -0.42683,-0.82539 -1.79914,-2.49504 -3.04959,-3.71033 l -2.27353,-2.20962 -22.13652,0 -22.13652,0 -0.81862,-3.5992 c -0.45024,-1.97955 -0.75256,-3.66375 -0.67183,-3.74266 0.2751,-0.26888 17.83994,-0.44023 18.33829,-0.17889 0.27298,0.14315 3.56467,0.32204 7.31486,0.39753 5.20035,0.10469 7.37647,-0.0535 9.16953,-0.6666 l 2.351,-0.80387 3.96245,2.03668 c 2.17935,1.12018 5.32616,2.28433 6.99291,2.58701 5.64674,1.02544 15.3997,-0.27434 20.11718,-2.68102 2.59007,-1.32136 10.62534,-2.43351 16.87,-2.33496 2.71379,0.0428 6.27106,-0.19851 7.90505,-0.5363 1.634,-0.3378 3.08966,-0.49542 3.23482,-0.35027 0.14515,0.14515 0.0168,2.02499 -0.28525,4.17741 -0.63741,4.54248 -1.58663,5.69514 -4.68997,5.69514 -2.48977,0 -4.26413,0.81872 -4.9269,2.27335 -0.28864,0.63349 -2.45963,2.76786 -4.82443,4.74303 -2.36479,1.97517 -4.42795,3.79887 -4.5848,4.05266 -0.15685,0.25379 0.34126,0.69019 1.10692,0.96977 0.8752,0.31959 1.06391,0.52315 0.50823,0.54822 -1.46584,0.0661 -1.39808,0.74373 0.95686,9.56802 2.01623,7.55512 2.47703,13.71233 1.24484,16.63337 -1.05824,2.50865 -2.76611,3.13552 -8.49008,3.11623 l -4.94957,-0.0167 -2.14597,-4.50705 0,-10e-6 z"
       id="path7042"
       inkscape:connector-curvature="0"
       transform="translate(0,452.36218)" />
  </g>
  <g
     inkscape:groupmode="layer"
     id="layer4"
     inkscape:label="Layer" />
</svg>
