<?xml version="1.0" encoding="UTF-8" standalone="no"?>
<!-- Created with Inkscape (http://www.inkscape.org/) -->

<svg
   xmlns:dc="http://purl.org/dc/elements/1.1/"
   xmlns:cc="http://creativecommons.org/ns#"
   xmlns:rdf="http://www.w3.org/1999/02/22-rdf-syntax-ns#"
   xmlns:svg="http://www.w3.org/2000/svg"
   xmlns="http://www.w3.org/2000/svg"
   xmlns:sodipodi="http://sodipodi.sourceforge.net/DTD/sodipodi-0.dtd"
   xmlns:inkscape="http://www.inkscape.org/namespaces/inkscape"
   width="744.09448819"
   height="1052.3622047"
   id="svg2"
   version="1.1"
   inkscape:version="0.48.4 r9939"
   sodipodi:docname="Note.svg">
  <defs
     id="defs4">
    <inkscape:path-effect
       effect="skeletal"
       id="path-effect5478"
       is_visible="true"
       pattern="M 0,5 C 0,2.24 2.24,0 5,0 7.76,0 10,2.24 10,5 10,7.76 7.76,10 5,10 2.24,10 0,7.76 0,5 z"
       copytype="single_stretched"
       prop_scale="1"
       scale_y_rel="false"
       spacing="0"
       normal_offset="0"
       tang_offset="0"
       prop_units="false"
       vertical_pattern="false"
       fuse_tolerance="0" />
    <inkscape:path-effect
       effect="skeletal"
       id="path-effect5466"
       is_visible="true"
       pattern="M 0,5 C 0,2.24 2.24,0 5,0 7.76,0 10,2.24 10,5 10,7.76 7.76,10 5,10 2.24,10 0,7.76 0,5 z"
       copytype="single_stretched"
       prop_scale="1"
       scale_y_rel="false"
       spacing="0"
       normal_offset="0"
       tang_offset="0"
       prop_units="false"
       vertical_pattern="false"
       fuse_tolerance="0" />
    <inkscape:path-effect
       effect="skeletal"
       id="path-effect5462"
       is_visible="true"
       pattern="M 0,5 C 0,2.24 2.24,0 5,0 7.76,0 10,2.24 10,5 10,7.76 7.76,10 5,10 2.24,10 0,7.76 0,5 z"
       copytype="single_stretched"
       prop_scale="1"
       scale_y_rel="false"
       spacing="0"
       normal_offset="0"
       tang_offset="0"
       prop_units="false"
       vertical_pattern="false"
       fuse_tolerance="0" />
    <inkscape:path-effect
       effect="skeletal"
       id="path-effect5458"
       is_visible="true"
       pattern="M 0,5 C 0,2.24 2.24,0 5,0 7.76,0 10,2.24 10,5 10,7.76 7.76,10 5,10 2.24,10 0,7.76 0,5 z"
       copytype="single_stretched"
       prop_scale="1"
       scale_y_rel="false"
       spacing="0"
       normal_offset="0"
       tang_offset="0"
       prop_units="false"
       vertical_pattern="false"
       fuse_tolerance="0" />
    <inkscape:path-effect
       effect="skeletal"
       id="path-effect5454"
       is_visible="true"
       pattern="m -177.86696,7.4703744 c 0,-2.76 2.24,-5 5,-5 2.76,0 5,2.24 5,5 0,2.7599996 -2.24,4.9999996 -5,4.9999996 -2.76,0 -5,-2.24 -5,-4.9999996 z"
       copytype="single_stretched"
       prop_scale="1"
       scale_y_rel="false"
       spacing="0"
       normal_offset="0"
       tang_offset="0"
       prop_units="false"
       vertical_pattern="false"
       fuse_tolerance="0" />
    <inkscape:path-effect
       effect="skeletal"
       id="path-effect3931"
       is_visible="true"
       pattern="m 65.765113,16.194062 c 0,-2.76 2.24,-5 5,-5 2.76,0 5,2.24 5,5 0,2.76 -2.24,5 -5,5 -2.76,0 -5,-2.24 -5,-5 z"
       copytype="single_stretched"
       prop_scale="1"
       scale_y_rel="false"
       spacing="0"
       normal_offset="0"
       tang_offset="0"
       prop_units="false"
       vertical_pattern="false"
       fuse_tolerance="0" />
    <inkscape:path-effect
       effect="skeletal"
       id="path-effect3927"
       is_visible="true"
       pattern="m 65.765113,16.194062 c 0,-2.76 2.24,-5 5,-5 2.76,0 5,2.24 5,5 0,2.76 -2.24,5 -5,5 -2.76,0 -5,-2.24 -5,-5 z"
       copytype="single_stretched"
       prop_scale="1"
       scale_y_rel="false"
       spacing="0"
       normal_offset="0"
       tang_offset="0"
       prop_units="false"
       vertical_pattern="false"
       fuse_tolerance="0" />
    <inkscape:path-effect
       effect="skeletal"
       id="path-effect3923"
       is_visible="true"
       pattern="m 2.0203051,-0.05076273 c 0,-2.75999997 2.24,-4.99999997 5,-4.99999997 2.76,0 4.9999999,2.24 4.9999999,4.99999997 0,2.76000003 -2.2399999,5.00000003 -4.9999999,5.00000003 -2.76,0 -5,-2.24 -5,-5.00000003 z"
       copytype="single_stretched"
       prop_scale="1"
       scale_y_rel="false"
       spacing="0"
       normal_offset="0"
       tang_offset="0"
       prop_units="false"
       vertical_pattern="false"
       fuse_tolerance="0" />
    <inkscape:path-effect
       effect="skeletal"
       id="path-effect3907"
       is_visible="true"
       pattern="M 0,5 C 0,2.24 2.24,0 5,0 7.76,0 10,2.24 10,5 10,7.76 7.76,10 5,10 2.24,10 0,7.76 0,5 z"
       copytype="single_stretched"
       prop_scale="1"
       scale_y_rel="false"
       spacing="0"
       normal_offset="0"
       tang_offset="0"
       prop_units="false"
       vertical_pattern="false"
       fuse_tolerance="0" />
    <inkscape:path-effect
       effect="skeletal"
       id="path-effect3899"
       is_visible="true"
       pattern="M 0,5 C 0,2.24 2.24,0 5,0 7.76,0 10,2.24 10,5 10,7.76 7.76,10 5,10 2.24,10 0,7.76 0,5 z"
       copytype="single_stretched"
       prop_scale="1"
       scale_y_rel="false"
       spacing="0"
       normal_offset="0"
       tang_offset="0"
       prop_units="false"
       vertical_pattern="false"
       fuse_tolerance="0" />
    <inkscape:path-effect
       effect="skeletal"
       id="path-effect3891"
       is_visible="true"
       pattern="M 0,5 C 0,2.24 2.24,0 5,0 7.76,0 10,2.24 10,5 10,7.76 7.76,10 5,10 2.24,10 0,7.76 0,5 z"
       copytype="single_stretched"
       prop_scale="1"
       scale_y_rel="false"
       spacing="0"
       normal_offset="0"
       tang_offset="0"
       prop_units="false"
       vertical_pattern="false"
       fuse_tolerance="0" />
    <inkscape:path-effect
       effect="skeletal"
       id="path-effect3883"
       is_visible="true"
       pattern="M 0,5 C 0,2.24 2.24,0 5,0 7.76,0 10,2.24 10,5 10,7.76 7.76,10 5,10 2.24,10 0,7.76 0,5 z"
       copytype="single_stretched"
       prop_scale="1"
       scale_y_rel="false"
       spacing="0"
       normal_offset="0"
       tang_offset="0"
       prop_units="false"
       vertical_pattern="false"
       fuse_tolerance="0" />
    <inkscape:path-effect
       effect="skeletal"
       id="path-effect3879"
       is_visible="true"
       pattern="M 0,5 C 0,2.24 2.24,0 5,0 7.76,0 10,2.24 10,5 10,7.76 7.76,10 5,10 2.24,10 0,7.76 0,5 z"
       copytype="single_stretched"
       prop_scale="1"
       scale_y_rel="false"
       spacing="0"
       normal_offset="0"
       tang_offset="0"
       prop_units="false"
       vertical_pattern="false"
       fuse_tolerance="0" />
    <inkscape:path-effect
       effect="skeletal"
       id="path-effect3875"
       is_visible="true"
       pattern="M 0,5 C 0,2.24 2.24,0 5,0 7.76,0 10,2.24 10,5 10,7.76 7.76,10 5,10 2.24,10 0,7.76 0,5 z"
       copytype="single_stretched"
       prop_scale="1"
       scale_y_rel="false"
       spacing="0"
       normal_offset="0"
       tang_offset="0"
       prop_units="false"
       vertical_pattern="false"
       fuse_tolerance="0" />
    <inkscape:path-effect
       effect="skeletal"
       id="path-effect3871"
       is_visible="true"
       pattern="M 0,5 C 0,2.24 2.24,0 5,0 7.76,0 10,2.24 10,5 10,7.76 7.76,10 5,10 2.24,10 0,7.76 0,5 z"
       copytype="single_stretched"
       prop_scale="1"
       scale_y_rel="false"
       spacing="0"
       normal_offset="0"
       tang_offset="0"
       prop_units="false"
       vertical_pattern="false"
       fuse_tolerance="0" />
    <inkscape:path-effect
       effect="skeletal"
       id="path-effect3863"
       is_visible="true"
       pattern="M 0,5 C 0,2.24 2.24,0 5,0 7.76,0 10,2.24 10,5 10,7.76 7.76,10 5,10 2.24,10 0,7.76 0,5 z"
       copytype="single_stretched"
       prop_scale="1"
       scale_y_rel="false"
       spacing="0"
       normal_offset="0"
       tang_offset="0"
       prop_units="false"
       vertical_pattern="false"
       fuse_tolerance="0" />
    <inkscape:path-effect
       effect="skeletal"
       id="path-effect3859"
       is_visible="true"
       pattern="M 0,5 C 0,2.24 2.24,0 5,0 7.76,0 10,2.24 10,5 10,7.76 7.76,10 5,10 2.24,10 0,7.76 0,5 z"
       copytype="single_stretched"
       prop_scale="1"
       scale_y_rel="false"
       spacing="0"
       normal_offset="0"
       tang_offset="0"
       prop_units="false"
       vertical_pattern="false"
       fuse_tolerance="0" />
    <inkscape:path-effect
       effect="skeletal"
       id="path-effect3847"
       is_visible="true"
       pattern="M 0,5 C 0,2.24 2.24,0 5,0 7.76,0 10,2.24 10,5 10,7.76 7.76,10 5,10 2.24,10 0,7.76 0,5 z"
       copytype="single_stretched"
       prop_scale="1"
       scale_y_rel="false"
       spacing="0"
       normal_offset="0"
       tang_offset="0"
       prop_units="false"
       vertical_pattern="false"
       fuse_tolerance="0" />
    <inkscape:path-effect
       effect="skeletal"
       id="path-effect3843"
       is_visible="true"
       pattern="m -227.08641,417.24917 c 0,-2.76 2.24,-5 5,-5 2.76,0 5,2.24 5,5 0,2.76 -2.24,5 -5,5 -2.76,0 -5,-2.24 -5,-5 z"
       copytype="single_stretched"
       prop_scale="1"
       scale_y_rel="false"
       spacing="0"
       normal_offset="0"
       tang_offset="0"
       prop_units="false"
       vertical_pattern="false"
       fuse_tolerance="0" />
  </defs>
  <sodipodi:namedview
     id="base"
     pagecolor="#000000"
     bordercolor="#666666"
     borderopacity="1.0"
     inkscape:pageopacity="0"
     inkscape:pageshadow="2"
     inkscape:zoom="1.1449386"
     inkscape:cx="376.87112"
     inkscape:cy="482.87507"
     inkscape:document-units="px"
     inkscape:current-layer="layer1"
     showgrid="false"
     inkscape:window-width="1920"
     inkscape:window-height="1003"
     inkscape:window-x="-9"
     inkscape:window-y="-9"
     inkscape:window-maximized="1" />
  <metadata
     id="metadata7">
    <rdf:RDF>
      <cc:Work
         rdf:about="">
        <dc:format>image/svg+xml</dc:format>
        <dc:type
           rdf:resource="http://purl.org/dc/dcmitype/StillImage" />
        <dc:title></dc:title>
      </cc:Work>
    </rdf:RDF>
  </metadata>
  <g
     inkscape:label="Layer 1"
     inkscape:groupmode="layer"
     id="layer1">
    <path
       style="fill:#00ff00;fill-opacity:1;fill-rule:nonzero;stroke:#000000;stroke-width:3.70556164;stroke-linejoin:round;stroke-miterlimit:4;stroke-opacity:0;stroke-dasharray:none"
       d="m 340.9848,397.51815 c -24.72485,-3.0203 -47.10858,-15.4145 -55.56596,-30.7676 -10.02686,-18.20237 -0.7279,-38.6251 27.02559,-59.3547 18.99087,-14.18463 26.41667,-16.49923 65.07897,-20.28489 l 6.89411,-0.67504 4.55363,-14.23738 c 2.59673,-8.11897 5.87186,-22.5566 7.62113,-33.59599 10.1434,-64.0136 12.14349,-76.00999 14.33738,-85.99487 1.33571,-6.07906 3.78024,-23.032 5.43229,-37.67321 2.6553,-23.53235 6.48511,-49.2282 7.53523,-50.55721 0.9808,-1.24127 27.16131,12.91434 36.36522,19.66241 15.90049,11.65783 39.63501,36.38282 50.35291,52.45419 15.39822,23.08943 25.71384,47.37909 31.20902,73.48618 2.13963,10.16522 2.71931,16.97552 2.68097,31.49727 -0.0269,10.1903 -0.56098,21.02907 -1.18684,24.08615 -1.02489,5.00617 -1.21756,4.08589 -1.9395,-9.2639 -2.82397,-52.22008 -24.3397,-92.06029 -63.50385,-117.58878 -10.61838,-6.92141 -37.07054,-20.13459 -40.3085,-20.13459 -0.99109,0 -2.08107,1.25062 -2.42216,2.77917 -0.34109,1.52854 -6.32368,16.55046 -8.75195,34.27644 -7.67804,56.04841 -13.4822,78.41593 -15.61685,116.95574 -0.002,20.86228 0.40653,26.61126 2.50345,35.20284 5.46452,22.3895 4.21977,44.77689 -3.34987,60.24867 -10.46729,21.3944 -38.16819,33.2387 -68.94442,29.4791 z"
       id="path5444"
       inkscape:connector-curvature="0"
       sodipodi:nodetypes="sssscssssssssssssssscsss"
       inkscape:export-filename="C:\Users\Rui\Desktop\TrabalhosGit\Flybeat\flybeat\reports\Meta 3\Packaging\Y.png"
       inkscape:export-xdpi="90"
       inkscape:export-ydpi="90" />
    <path
       style="fill:#ff0000;fill-rule:evenodd;stroke:none"
       d="m 312.50355,689.21263 c 0.5428,-0.42599 2.55228,1.0822 5.75128,4.13229 3.199,3.05009 7.5917,7.63884 12.94217,13.35474 5.35047,5.7159 11.66172,12.55693 18.68415,20.13226 7.02243,7.57532 14.75729,15.88428 22.90935,24.57645 1.28548,1.37065 2.56212,2.73056 3.82854,4.07856 0,0 0,0 0,0 15.43079,16.42284 29.36499,31.03794 39.2678,41.76447 9.90281,10.72652 15.72681,17.62114 14.83098,18.59823 -0.89583,0.97709 -8.36465,-4.15336 -19.57151,-13.64986 -11.20686,-9.4965 -26.09978,-23.41393 -41.77469,-39.85267 0,-10e-6 0,-10e-6 0,-10e-6 -1.28673,-1.34926 -2.57904,-2.71542 -3.87528,-4.09737 -8.22034,-8.76387 -15.82006,-17.34103 -22.52409,-25.32129 -6.70403,-7.98026 -12.51316,-15.36222 -17.20702,-21.70396 -4.69387,-6.34174 -8.27525,-11.6408 -10.55182,-15.4526 -2.27657,-3.8118 -3.25266,-6.13325 -2.70986,-6.55924 z"
       id="path5464"
       inkscape:path-effect="#path-effect5466"
       inkscape:original-d="m 312.50355,689.21263 c 38.17656,48.64533 83.73009,95.02068 118.21427,126.637"
       inkscape:connector-curvature="0" />
    <path
       style="fill:#ff0000;fill-rule:evenodd;stroke:none;stroke-width:0.1;stroke-miterlimit:4;stroke-dasharray:none"
       d="m 411.31735,700.33382 c 0.58845,0.49985 -0.52389,2.95959 -3.09275,6.88042 -2.56886,3.92083 -6.61612,9.28327 -11.7702,15.60273 0,0 0,10e-6 -1e-5,10e-6 -6.95169,8.52328 -15.97584,18.81215 -26.30238,29.69221 0,0 -1e-5,0 -1e-5,0 -1.74909,1.84294 -3.53565,3.70356 -5.35634,5.57565 -9.04847,9.30391 -17.8698,17.76801 -25.80403,24.85173 -4.26519,3.80921 -8.27637,7.23769 -11.92673,10.18569 -3.65037,2.94799 -6.93867,5.41633 -9.7333,7.34694 -5.58925,3.86121 -9.17574,5.58691 -9.76998,4.85554 -0.59424,-0.73137 1.86061,-3.80986 6.38952,-8.74429 4.52891,-4.93443 11.08792,-11.78688 18.96884,-19.95558 7.30921,-7.57999 15.723,-16.27497 24.70676,-25.51219 1.80767,-1.85867 3.59538,-3.69412 5.35927,-5.50093 0,0 0,-10e-6 10e-6,-10e-6 10.41155,-10.66546 19.96877,-20.33108 27.79449,-27.97947 0,0 0,0 0,0 5.81969,-5.68969 10.67454,-10.22945 14.20103,-13.26122 3.5265,-3.03177 5.74736,-4.53708 6.33581,-4.03723 z"
       id="path5476"
       inkscape:path-effect="#path-effect5478"
       inkscape:original-d="m 411.31735,700.33382 c -14.79693,17.41965 -69.94674,77.52111 -103.75573,104.99092"
       inkscape:connector-curvature="0" />
  </g>
</svg>
